<svg width="28" height="28" viewBox="0 0 28 28" fill="none" xmlns="http://www.w3.org/2000/svg">
    <path fill-rule="evenodd" clip-rule="evenodd" d="M27.72 13.86C27.72 21.5147 21.5147 27.72 13.86 27.72C6.20533 27.72 0 21.5147 0 13.86C0 6.20533 6.20533 0 13.86 0C21.5147 0 27.72 6.20533 27.72 13.86ZM8.53909 14.5235L10.8182 9.48438L13.1182 14.5235L18.1364 16.8026L13.1182 19.0816L10.8182 24.1207L8.53909 19.0816L3.5 16.8026L8.53909 14.5235ZM19.587 8.90009L20.7634 6.30078L21.9587 8.90009L24.558 10.0954L21.9587 11.2907L20.7634 13.89L19.587 11.2907L16.9688 10.0954L19.587 8.90009Z" fill="currentColor"/>
</svg>
