<svg width="24" height="24" viewBox="0 0 24 24" fill="none" xmlns="http://www.w3.org/2000/svg">
    <path d="M22.25 12C22.25 17.0746 17.9197 21.25 12.5 21.25C7.08032 21.25 2.75 17.0746 2.75 12C2.75 6.92543 7.08032 2.75 12.5 2.75C17.9197 2.75 22.25 6.92543 22.25 12Z" stroke="currentColor" stroke-width="1.5"/>
    <path d="M9.5543 11.5695L10.5032 9.09002L11.4622 11.5731C11.5699 11.8519 11.7738 12.0828 12.0371 12.2241L14.4141 13.5L12.0371 14.7759C11.7738 14.9172 11.5699 15.1481 11.4622 15.4269L10.5032 17.91L9.5543 15.4305L8.85384 15.6986L9.5543 15.4305C9.44676 15.1495 9.24147 14.9167 8.97612 14.7749L6.59101 13.5L8.97612 12.2251L8.62257 11.5637L8.97612 12.2251C9.24147 12.0833 9.44676 11.8505 9.5543 11.5695Z" stroke="currentColor" stroke-width="1.5"/>
    <path d="M15.2109 8.18487L14.9707 8.71112L15.2109 8.18486L14.806 8L15.2109 7.81514C15.4858 7.68962 15.706 7.46875 15.8306 7.1934L16.0055 6.807L16.1863 7.20027C16.311 7.47142 16.5286 7.68901 16.7997 7.8137L17.2049 8L16.7997 8.1863C16.5286 8.31099 16.311 8.52858 16.1863 8.79973L16.0055 9.193L15.8306 8.8066L15.2089 9.08795L15.8306 8.8066C15.706 8.53125 15.4858 8.31038 15.2109 8.18487Z" fill="white" stroke="currentColor" stroke-width="1.5"/>
</svg>
