<svg width="18" height="18" viewBox="0 0 18 18" fill="none" xmlns="http://www.w3.org/2000/svg">
<g clip-path="url(#clip0_191_623)">
<mask id="path-1-inside-1_191_623" fill="white">
<path d="M17.3469 2.93164L9.16157 17.109C9.06339 17.2791 8.8096 17.2501 8.75231 17.0622L6.375 9.2691L0.812022 3.30943C0.678036 3.16589 0.779823 2.93164 0.97618 2.93164L17.3469 2.93164Z"/>
</mask>
<path d="M6.71195 9.85246L17.6838 3.515L17.0099 2.34828L6.03805 8.68574L6.71195 9.85246ZM17.3469 2.93164L18.5137 3.60532C18.7544 3.18845 18.7544 2.67484 18.5137 2.25796C18.273 1.84108 17.8282 1.58428 17.3469 1.58428L17.3469 2.93164ZM6.375 9.2691L7.66373 8.87597C7.60386 8.67971 7.49996 8.49972 7.35995 8.34972L6.375 9.2691ZM0.97618 2.93164L0.97618 1.58428L0.97618 2.93164ZM0.812022 3.30943L-0.172923 4.22882L0.812022 3.30943ZM9.16157 17.109L10.3284 17.7827L9.16157 17.109ZM8.75231 17.0622L7.46357 17.4554L8.75231 17.0622ZM16.18 2.25796L7.99472 16.4353L10.3284 17.7827L18.5137 3.60532L16.18 2.25796ZM0.97618 4.279L17.3469 4.279L17.3469 1.58428L0.97618 1.58428L0.97618 4.279ZM10.041 16.6691L7.66373 8.87597L5.08627 9.66223L7.46357 17.4554L10.041 16.6691ZM7.35995 8.34972L1.79697 2.39005L-0.172923 4.22882L5.39005 10.1885L7.35995 8.34972ZM0.97618 1.58428C-0.398322 1.58428 -1.11082 3.22403 -0.172923 4.22882L1.79697 2.39005C2.4669 3.10775 1.95797 4.279 0.97618 4.279L0.97618 1.58428ZM7.99472 16.4353C8.48565 15.585 9.75456 15.73 10.041 16.6691L7.46357 17.4554C7.86465 18.7702 9.64112 18.9731 10.3284 17.7827L7.99472 16.4353Z" fill="currentColor" mask="url(#path-1-inside-1_191_623)"/>
</g>
<defs>
<clipPath id="clip0_191_623">
<rect width="18" height="18" fill="white" transform="translate(0 0.644531)"/>
</clipPath>
</defs>
</svg>
