<svg width="24" height="24" viewBox="0 0 24 24" fill="none" xmlns="http://www.w3.org/2000/svg">
    <path d="M8.78516 9.75689C8.78516 10.0851 9.04208 10.3536 9.35876 10.3536H16.5825C16.8992 10.3536 17.1561 10.0851 17.1561 9.75689C17.1561 9.42869 16.8992 9.16016 16.5825 9.16016H9.35876C9.04208 9.16016 8.78516 9.42869 8.78516 9.75689Z"
          fill="currentColor"/>
    <path d="M16.5786 12.1445H9.35485C9.03818 12.1445 8.78125 12.4131 8.78125 12.7413C8.78125 13.0695 9.03818 13.338 9.35485 13.338H16.5786C16.8953 13.338 17.1522 13.0695 17.1522 12.7413C17.1522 12.4131 16.8953 12.1445 16.5786 12.1445Z"
          fill="currentColor"/>
    <path d="M16.5786 15.1289H9.35485C9.03818 15.1289 8.78125 15.3974 8.78125 15.7256C8.78125 16.0538 9.03818 16.3224 9.35485 16.3224H16.5786C16.8953 16.3224 17.1522 16.0538 17.1522 15.7256C17.1522 15.3974 16.8953 15.1289 16.5786 15.1289Z"
          fill="currentColor"/>
    <path d="M16.255 2H8.4875C6.84438 2 5.5 3.34266 5.5 4.98368V18.1119C5.5 18.9354 5.8346 19.6753 6.37832 20.2184C6.92205 20.7614 7.66893 21.0956 8.4875 21.0956H17.45C19.0931 21.0956 20.4375 19.7529 20.4375 18.1119V6.17716L16.255 2ZM16.255 3.68876L18.4478 5.87879H16.255V3.68876ZM19.2425 18.1119C19.2425 19.0965 18.4359 19.9021 17.45 19.9021H8.4875C8.0095 19.9021 7.56138 19.7171 7.2208 19.377C6.88023 19.0368 6.695 18.5893 6.695 18.1119V4.98368C6.695 3.99907 7.50163 3.19347 8.4875 3.19347H15.06V6.47552C15.06 6.80373 15.3289 7.07226 15.6575 7.07226H19.2425V18.1119Z"
          fill="currentColor"/>
</svg>
