<svg width="24" height="24" viewBox="1 0 24 24" fill="none" xmlns="http://www.w3.org/2000/svg">
    <path d="M15.6575 7.07226C15.3289 7.07226 15.06 6.80373 15.06 6.47552V2H8.4875C6.84438 2 5.5 3.34266 5.5 4.98368V18.1119C5.5 18.9354 5.8346 19.6753 6.37833 20.2184C6.92205 20.7614 7.66893 21.0956 8.4875 21.0956H17.45C19.0931 21.0956 20.4375 19.7529 20.4375 18.1119V7.07226H15.6575ZM16.5777 16.3217H9.35387C9.0372 16.3217 8.78027 16.0531 8.78027 15.7249C8.78027 15.3967 9.0372 15.1282 9.35387 15.1282H16.5777C16.8943 15.1282 17.1513 15.3967 17.1513 15.7249C17.1513 16.0531 16.8943 16.3217 16.5777 16.3217ZM16.5777 13.338H9.35387C9.0372 13.338 8.78027 13.0695 8.78027 12.7413C8.78027 12.4131 9.0372 12.1445 9.35387 12.1445H16.5777C16.8943 12.1445 17.1513 12.4131 17.1513 12.7413C17.1513 13.0695 16.8943 13.338 16.5777 13.338ZM16.5777 10.3543H9.35387C9.0372 10.3543 8.78027 10.0858 8.78027 9.75758C8.78027 9.42937 9.0372 9.16084 9.35387 9.16084H16.5777C16.8943 9.16084 17.1513 9.42937 17.1513 9.75758C17.1513 10.0858 16.8943 10.3543 16.5777 10.3543Z" fill="currentColor"/>
    <path d="M16.2539 2V5.87879H20.1377L16.2539 2Z" fill="currentColor"/>
</svg>
