<svg width="24" height="24" viewBox="0 0 24 24" fill="none" xmlns="http://www.w3.org/2000/svg">
    <path d="M11.9989 1.99609C16.0488 1.99609 19.3556 5.19084 19.4947 9.24515L19.4989 9.49609V13.5931L20.8789 16.7491C20.9479 16.907 20.9836 17.0775 20.9836 17.2499C20.9836 17.9402 20.424 18.4999 19.7336 18.4999L14.9989 18.5014C14.9989 20.1582 13.6557 21.5014 11.9989 21.5014C10.4012 21.5014 9.09523 20.2524 9.00398 18.6776L8.99844 18.4991L4.27375 18.4999C4.10242 18.4999 3.93291 18.4646 3.77575 18.3964C3.14255 18.1213 2.8522 17.3851 3.12724 16.7519L4.49889 13.594V9.49599C4.49949 5.3412 7.85098 1.99609 11.9989 1.99609ZM13.4984 18.4991L10.4989 18.5014C10.4989 19.3298 11.1705 20.0014 11.9989 20.0014C12.7786 20.0014 13.4193 19.4065 13.492 18.6458L13.4984 18.4991ZM11.9989 3.49609C8.67873 3.49609 5.99937 6.17035 5.99889 9.49609V13.9057L4.65491 16.9999H19.3514L17.9989 13.9067L17.999 9.50895L17.9953 9.28375C17.8842 6.05027 15.2405 3.49609 11.9989 3.49609Z" fill="currentColor"/>
</svg>
