<svg width="16" height="16" viewBox="0 0 16 16" fill="none" xmlns="http://www.w3.org/2000/svg">
    <path fill-rule="evenodd" clip-rule="evenodd" d="M4.77645 2.10337C4.92109 1.96554 5.15559 1.96554 5.30023 2.10337L11.2262 7.75043C11.3708 7.88826 11.3708 8.11174 11.2262 8.24957L5.30023 13.8966C5.15559 14.0345 4.92109 14.0345 4.77645 13.8966C4.63181 13.7588 4.63181 13.5353 4.77645 13.3975L10.4405 8L4.77645 2.60251C4.63181 2.46468 4.63181 2.24121 4.77645 2.10337Z" fill="currentColor"/>
    <path fill-rule="evenodd" clip-rule="evenodd" d="M4.63926 1.95937C4.86115 1.74792 5.21709 1.74792 5.43899 1.95937L11.3649 7.60643C11.5923 7.82307 11.5923 8.17849 11.3649 8.39514L5.43899 14.0422C5.21709 14.2536 4.86115 14.2536 4.63926 14.0422C4.41192 13.8256 4.41192 13.4701 4.63926 13.2535L10.1514 8.00078L4.63926 2.74808C4.41191 2.53143 4.41191 2.17601 4.63926 1.95937ZM10.4413 8.00078L4.77723 13.3983C4.63259 13.5361 4.63259 13.7596 4.77723 13.8974C4.92187 14.0352 5.15637 14.0352 5.30101 13.8974L11.2269 8.25035C11.3716 8.11252 11.3716 7.88905 11.2269 7.75121L5.30101 2.10416C5.15637 1.96632 4.92187 1.96632 4.77723 2.10416C4.63259 2.24199 4.63259 2.46546 4.77723 2.60329L10.4413 8.00078Z" fill="currentColor"/>
</svg>
