<svg width="24" height="24" viewBox="0 0 25 24" fill="none" xmlns="http://www.w3.org/2000/svg">
    <path d="M14.5 2C15.6909 2 16.6656 2.92516 16.7448 4.09595L16.75 4.25C16.75 4.16531 16.7453 4.0817 16.7362 3.99944L18.5 4C19.7426 4 20.75 5.00736 20.75 6.25V19.75C20.75 20.9926 19.7426 22 18.5 22H7C5.75736 22 4.75 20.9926 4.75 19.75V6.25C4.75 5.00736 5.75736 4 7 4L8.76379 3.99944C8.75733 4.05774 8.7531 4.11671 8.75119 4.17626L8.75 4.25C8.75 3.00736 9.75736 2 11 2H14.5ZM14.5 6.5H11C10.2059 6.5 9.50797 6.08867 9.10751 5.46746L9.12902 5.5002L7 5.5C6.58579 5.5 6.25 5.83579 6.25 6.25V19.75C6.25 20.1642 6.58579 20.5 7 20.5H18.5C18.9142 20.5 19.25 20.1642 19.25 19.75V6.25C19.25 5.83579 18.9142 5.5 18.5 5.5L16.371 5.5002L16.3925 5.46746C15.992 6.08867 15.2941 6.5 14.5 6.5ZM14.5 3.5H11C10.5858 3.5 10.25 3.83579 10.25 4.25C10.25 4.66421 10.5858 5 11 5H14.5C14.9142 5 15.25 4.66421 15.25 4.25C15.25 3.83579 14.9142 3.5 14.5 3.5ZM8.75 14.5H12.75C13.1642 14.5 13.5 14.1642 13.5 13.75C13.5 13.3358 13.1642 13 12.75 13H8.75C8.33579 13 8 13.3358 8 13.75C8 14.1642 8.33579 14.5 8.75 14.5ZM8.75 10.5H16.75C17.1642 10.5 17.5 10.1642 17.5 9.75C17.5 9.33579 17.1642 9 16.75 9H8.75C8.33579 9 8 9.33579 8 9.75C8 10.1642 8.33579 10.5 8.75 10.5ZM8.75 18.5H14.75C15.1642 18.5 15.5 18.1642 15.5 17.75C15.5 17.3358 15.1642 17 14.75 17H8.75C8.33579 17 8 17.3358 8 17.75C8 18.1642 8.33579 18.5 8.75 18.5Z" fill="currentColor"/>
</svg>
