<svg width="18" height="18" viewBox="0 0 18 19" fill="none" xmlns="http://www.w3.org/2000/svg">
    <mask id="path-1-inside-1_191_622" fill="white">
        <path fill-rule="evenodd" clip-rule="evenodd" d="M16.0565 13.8418C16.7927 12.6087 17.2158 11.167 17.2158 9.62646C17.2158 5.07901 13.5294 1.39258 8.98193 1.39258C4.43448 1.39258 0.748047 5.07901 0.748047 9.62646C0.748047 14.1739 4.43448 17.8603 8.98193 17.8603C10.5254 17.8603 11.9696 17.4357 13.2043 16.6968L17.1013 17.741L16.0565 13.8418Z"/>
    </mask>
    <path d="M16.0565 13.8418L14.8996 13.151C14.7129 13.4637 14.6607 13.8387 14.755 14.1905L16.0565 13.8418ZM13.2043 16.6968L13.553 15.3953C13.2007 15.301 12.8253 15.3534 12.5123 15.5407L13.2043 16.6968ZM17.1013 17.741L16.7525 19.0424C17.2175 19.167 17.7136 19.0341 18.054 18.6937C18.3944 18.3533 18.5273 17.8572 18.4027 17.3923L17.1013 17.741ZM15.8685 9.62646C15.8685 10.9171 15.5147 12.121 14.8996 13.151L17.2133 14.5325C18.0708 13.0964 18.5632 11.4169 18.5632 9.62646H15.8685ZM8.98193 2.73994C12.7852 2.73994 15.8685 5.82314 15.8685 9.62646H18.5632C18.5632 4.33489 14.2735 0.0452155 8.98193 0.0452155V2.73994ZM2.09541 9.62646C2.09541 5.82314 5.17861 2.73994 8.98193 2.73994V0.0452155C3.69035 0.0452155 -0.599316 4.33489 -0.599316 9.62646H2.09541ZM8.98193 16.513C5.17861 16.513 2.09541 13.4298 2.09541 9.62646H-0.599316C-0.599316 14.918 3.69035 19.2077 8.98193 19.2077V16.513ZM12.5123 15.5407C11.481 16.1579 10.275 16.513 8.98193 16.513V19.2077C10.7758 19.2077 12.4583 18.7135 13.8962 17.8529L12.5123 15.5407ZM12.8555 17.9982L16.7525 19.0424L17.45 16.4395L13.553 15.3953L12.8555 17.9982ZM18.4027 17.3923L17.3579 13.493L14.755 14.1905L15.7998 18.0897L18.4027 17.3923Z" fill="currentColor" mask="url(#path-1-inside-1_191_622)"/>
</svg>
