<svg width="20" height="20" viewBox="0 0 20 20" fill="none" xmlns="http://www.w3.org/2000/svg">
    <path fill-rule="evenodd" clip-rule="evenodd" d="M9.14433 1.875H10.8531C11.2235 1.87499 11.5327 1.87499 11.7865 1.89231C12.0508 1.91034 12.3004 1.94921 12.5423 2.04944C13.1041 2.28211 13.55 2.72854 13.7825 3.28988C13.8827 3.5318 13.9216 3.78131 13.9397 4.04556C13.9466 4.1465 13.9507 4.25619 13.9532 4.375H16.6654C17.0105 4.375 17.2904 4.65482 17.2904 5C17.2904 5.34518 17.0105 5.625 16.6654 5.625H15.6237V14.8613C15.6237 15.3055 15.6237 15.6764 15.5989 15.9795C15.5731 16.2957 15.5172 16.5926 15.3741 16.8734C15.1543 17.3047 14.803 17.6558 14.3719 17.8754C14.0911 18.0185 13.7943 18.0744 13.4781 18.1002C13.1751 18.125 12.8042 18.125 12.3599 18.125H7.63744C7.1932 18.125 6.82217 18.125 6.51897 18.1002C6.20275 18.0744 5.90567 18.0185 5.62479 17.8754C5.19303 17.6554 4.84291 17.3041 4.62347 16.8734C4.48029 16.5924 4.42435 16.2953 4.39848 15.9787C4.37368 15.6753 4.37369 15.3038 4.3737 14.8587L4.3737 5.625H3.33203C2.98685 5.625 2.70703 5.34518 2.70703 5C2.70703 4.65482 2.98685 4.375 3.33203 4.375H6.04414C6.04664 4.25621 6.05079 4.14654 6.05767 4.04562C6.07571 3.78139 6.11458 3.53185 6.21481 3.28988C6.44728 2.72863 6.89303 2.28215 7.45483 2.04944C7.69685 1.9492 7.94652 1.91033 8.2108 1.89231C8.46469 1.87499 8.77394 1.87499 9.14433 1.875ZM7.29441 4.375H12.703C12.7008 4.28401 12.6976 4.20364 12.6926 4.13078C12.6789 3.93027 12.6543 3.83259 12.6277 3.76823C12.5219 3.5128 12.319 3.30994 12.064 3.20429C11.9997 3.17766 11.902 3.1531 11.7014 3.13941C11.4952 3.12534 11.2289 3.125 10.832 3.125H9.16536C8.76853 3.125 8.50215 3.12534 8.29587 3.13941C8.09517 3.1531 7.99746 3.17767 7.93319 3.20429C7.67823 3.3099 7.47549 3.51272 7.36966 3.76823C7.34302 3.83255 7.31846 3.93019 7.30477 4.13072C7.2998 4.2036 7.29654 4.28399 7.29441 4.375ZM5.6237 5.625V14.8333C5.6237 15.3104 5.62418 15.6305 5.64433 15.8769C5.66387 16.1161 5.69876 16.2304 5.73723 16.3059C5.83738 16.5025 5.99682 16.6621 6.19227 16.7616C6.26755 16.8 6.38181 16.8349 6.62078 16.8544C6.86701 16.8745 7.18668 16.875 7.66279 16.875H12.3346C12.8107 16.875 13.1302 16.8745 13.3762 16.8544C13.615 16.8349 13.7291 16.8 13.8044 16.7616C14.0006 16.6617 14.1605 16.5018 14.2603 16.3059C14.2987 16.2306 14.3336 16.1164 14.3531 15.8776C14.3732 15.6315 14.3737 15.312 14.3737 14.8359V5.625H5.6237ZM8.33203 7.70833C8.67721 7.70833 8.95703 7.98816 8.95703 8.33333V14.1667C8.95703 14.5118 8.67721 14.7917 8.33203 14.7917C7.98685 14.7917 7.70703 14.5118 7.70703 14.1667V8.33333C7.70703 7.98816 7.98685 7.70833 8.33203 7.70833ZM11.6654 7.70833C12.0105 7.70833 12.2904 7.98816 12.2904 8.33333V14.1667C12.2904 14.5118 12.0105 14.7917 11.6654 14.7917C11.3202 14.7917 11.0404 14.5118 11.0404 14.1667V8.33333C11.0404 7.98816 11.3202 7.70833 11.6654 7.70833Z" fill="currentColor"/>
</svg>
