<svg width="20" height="20" viewBox="0 0 20 20" fill="none" xmlns="http://www.w3.org/2000/svg">
    <path d="M11.3425 8.4375H6.67705C6.4729 8.4375 6.30859 8.68117 6.30859 8.97954C6.30859 9.2779 6.4729 9.52157 6.67705 9.52157H11.3425C11.5467 9.52157 11.711 9.2779 11.711 8.97954C11.711 8.68117 11.5467 8.4375 11.3425 8.4375Z" fill="currentColor"/>
    <path d="M11.3425 10.5957H6.67705C6.4729 10.5957 6.30859 10.8394 6.30859 11.1377C6.30859 11.4361 6.4729 11.6798 6.67705 11.6798H11.3425C11.5467 11.6798 11.711 11.4361 11.711 11.1377C11.711 10.8394 11.5467 10.5957 11.3425 10.5957Z" fill="currentColor"/>
    <path d="M11.3425 12.7539H6.67705C6.4729 12.7539 6.30859 12.9976 6.30859 13.2959C6.30859 13.5943 6.4729 13.838 6.67705 13.838H11.3425C11.5467 13.838 11.711 13.5943 11.711 13.2959C11.711 12.9976 11.5467 12.7539 11.3425 12.7539Z" fill="currentColor"/>
    <path d="M14.4107 14.4447V5.59806L11.3087 2.5H5.54777C4.32787 2.5 3.33203 3.49456 3.33203 4.7129V14.4496C3.33203 15.0563 3.58099 15.6133 3.9843 16.0111C4.38761 16.4139 4.94031 16.6625 5.54777 16.6625H12.195C13.4149 16.6625 14.4107 15.668 14.4107 14.4496V14.4447ZM11.6672 4.26535L13.1858 5.78205H11.6672V4.26535ZM4.69135 15.305C4.45733 15.0762 4.33285 14.7679 4.33285 14.4447V4.7129C4.33285 4.04157 4.88056 3.49456 5.55275 3.49456H10.6912C10.6863 3.5244 10.6763 3.54926 10.6763 3.5791V6.27933C10.6763 6.55284 10.9004 6.77661 11.1742 6.77661H13.4198V14.4496C13.4198 15.121 12.8721 15.668 12.1999 15.668H5.55275C5.2291 15.668 4.92537 15.5387 4.69135 15.3099V15.305Z" fill="currentColor"/>
    <path d="M15.5366 6.21875C15.2628 6.21875 15.0387 6.44253 15.0387 6.71603V15.5676C15.0387 16.5125 14.2669 17.2832 13.3209 17.2832H6.6737C6.39984 17.2832 6.17578 17.507 6.17578 17.7805C6.17578 18.054 6.39984 18.2778 6.6737 18.2778H13.3209C14.8146 18.2778 16.0345 17.0644 16.0345 15.5676V6.71603C16.0345 6.44253 15.8105 6.21875 15.5366 6.21875Z" fill="currentColor"/>
</svg>
