<svg width="18" height="18" viewBox="0 0 18 18" fill="none" xmlns="http://www.w3.org/2000/svg">
    <path d="M14.375 15C14.375 15.2063 14.207 15.375 14 15.375H5C4.793 15.375 4.625 15.2063 4.625 15V3C4.625 2.79375 4.793 2.625 5 2.625H9.5V6C9.5 6.828 10.172 7.5 11 7.5H14.375V15ZM10.625 3.46575L13.5335 6.375H11C10.793 6.375 10.625 6.20625 10.625 6V3.46575ZM15.0605 6.3105L10.6888 1.9395C10.6693 1.92 10.6452 1.905 10.625 1.887C10.5718 1.839 10.5192 1.79175 10.4608 1.752C10.4307 1.73175 10.3962 1.71825 10.3647 1.701C10.3115 1.671 10.259 1.638 10.2028 1.614C10.055 1.5525 9.896 1.52175 9.73475 1.5105C9.6995 1.50825 9.665 1.5 9.629 1.5H9.62825H9.5H5C4.172 1.5 3.5 2.172 3.5 3V15C3.5 15.828 4.172 16.5 5 16.5H14C14.828 16.5 15.5 15.828 15.5 15V7.5V7.371C15.5 6.9735 15.3417 6.59175 15.0605 6.3105Z" fill="currentColor"/>
</svg>
