<svg width="16" height="16" viewBox="0 0 16 16" fill="none" xmlns="http://www.w3.org/2000/svg">
    <path fill-rule="evenodd" clip-rule="evenodd" d="M13.8986 4.77449C14.0364 4.91913 14.0364 5.15364 13.8986 5.29828L8.25152 11.2242C8.11369 11.3688 7.89022 11.3688 7.75239 11.2242L2.10533 5.29828C1.96749 5.15364 1.96749 4.91913 2.10533 4.77449C2.24316 4.62986 2.46663 4.62986 2.60446 4.77449L8.00195 10.4385L13.3994 4.77449C13.5373 4.62986 13.7607 4.62986 13.8986 4.77449Z" fill="currentColor"/>
    <path fill-rule="evenodd" clip-rule="evenodd" d="M14.0426 4.6373C14.254 4.85919 14.254 5.21514 14.0426 5.43703L8.39553 11.363C8.17888 11.5903 7.82346 11.5903 7.60682 11.363L1.95976 5.43703C1.74831 5.21514 1.74831 4.85919 1.95976 4.6373C2.1764 4.40996 2.53182 4.40996 2.74847 4.6373L8.00117 10.1494L13.2539 4.6373C13.4705 4.40996 13.8259 4.40996 14.0426 4.6373ZM8.00117 10.4393L2.60368 4.77528C2.46585 4.63064 2.24238 4.63064 2.10455 4.77528C1.96671 4.91991 1.96671 5.15442 2.10455 5.29906L7.7516 11.225C7.88944 11.3696 8.11291 11.3696 8.25074 11.225L13.8978 5.29906C14.0356 5.15442 14.0356 4.91991 13.8978 4.77528C13.76 4.63064 13.5365 4.63064 13.3987 4.77528L8.00117 10.4393Z" fill="currentColor"/>
</svg>
