<svg width="18" height="18" viewBox="0 0 18 18" fill="none" xmlns="http://www.w3.org/2000/svg">
<path fill-rule="evenodd" clip-rule="evenodd" d="M11.1219 2.61769C11.6453 2.40947 12.2057 2.31016 12.7688 2.32582C13.3319 2.34148 13.8859 2.47179 14.3969 2.70878C14.9077 2.94568 15.3649 3.28423 15.7406 3.70373C17.2583 5.39147 16.9981 7.9843 15.4421 9.54817L15.4412 9.54904L9.74591 15.2443L9.40123 14.8997L9.74425 15.246C9.54632 15.442 9.279 15.552 9.00041 15.552C8.72183 15.552 8.45451 15.442 8.25658 15.246L8.25492 15.2443L2.41195 9.40138C2.01378 9.00292 1.7009 8.52733 1.49269 8.00391C1.28447 7.4805 1.18516 6.92013 1.20082 6.35704C1.21648 5.79395 1.34679 5.23997 1.58378 4.72894C1.82068 4.21808 2.15923 3.76088 2.57873 3.38524C4.26647 1.86752 6.8593 2.12769 8.42317 3.68374L8.42535 3.68591L9.0006 4.26556L9.72332 3.53808L9.72458 3.53682C10.123 3.13865 10.5985 2.8259 11.1219 2.61769ZM9.05814 14.5533C9.0583 14.5531 9.05798 14.5534 9.05814 14.5533L14.7509 8.86047C14.7511 8.86033 14.7508 8.86061 14.7509 8.86047C15.9928 7.61195 16.1408 5.60654 15.0153 4.35535L15.0145 4.35447C14.7272 4.03352 14.3775 3.77452 13.9867 3.59329C13.5959 3.41207 13.1723 3.31242 12.7417 3.30044C12.3111 3.28847 11.8826 3.36441 11.4823 3.52363C11.0823 3.68275 10.719 3.9217 10.4144 4.22589C10.4142 4.22609 10.4146 4.22568 10.4144 4.22589L9.34626 5.30103C9.25471 5.39318 9.13018 5.44498 9.00029 5.44495C8.8704 5.44491 8.74589 5.39304 8.65439 5.30085L7.73547 4.3749C7.73513 4.37455 7.73478 4.37421 7.73443 4.37387C6.48587 3.13257 4.48133 2.98522 3.23035 4.11051L3.22947 4.1113C2.90852 4.39861 2.64952 4.74834 2.46829 5.13913C2.28707 5.52992 2.18742 5.95355 2.17544 6.38415C2.16347 6.81475 2.23941 7.24326 2.39863 7.64352C2.55784 8.04373 2.79696 8.40728 3.10139 8.71196C3.10143 8.712 3.10135 8.71192 3.10139 8.71196L8.94269 14.5533C8.94284 14.5534 8.94254 14.5531 8.94269 14.5533C8.958 14.5682 8.97901 14.577 9.00041 14.577C9.02181 14.577 9.04283 14.5682 9.05814 14.5533Z" fill="currentColor"/>
<path d="M9.05814 14.5533C9.05798 14.5534 9.0583 14.5531 9.05814 14.5533ZM9.05814 14.5533L14.7509 8.86047M9.05814 14.5533C9.04283 14.5682 9.02181 14.577 9.00041 14.577C8.97901 14.577 8.958 14.5682 8.94269 14.5533M14.7509 8.86047C14.7508 8.86061 14.7511 8.86033 14.7509 8.86047ZM14.7509 8.86047C15.9928 7.61195 16.1408 5.60654 15.0153 4.35535L15.0145 4.35447C14.7272 4.03352 14.3775 3.77452 13.9867 3.59329C13.5959 3.41207 13.1723 3.31242 12.7417 3.30044C12.3111 3.28847 11.8826 3.36441 11.4823 3.52363C11.0823 3.68275 10.719 3.9217 10.4144 4.22589M10.4144 4.22589C10.4146 4.22568 10.4142 4.22609 10.4144 4.22589ZM10.4144 4.22589L9.34626 5.30103C9.25471 5.39318 9.13018 5.44498 9.00029 5.44495C8.8704 5.44491 8.74589 5.39304 8.65439 5.30085L7.73547 4.3749C7.73513 4.37455 7.73478 4.37421 7.73443 4.37387C6.48587 3.13257 4.48133 2.98522 3.23035 4.11051L3.22947 4.1113C2.90852 4.39861 2.64952 4.74834 2.46829 5.13913C2.28707 5.52992 2.18742 5.95355 2.17544 6.38415C2.16347 6.81475 2.23941 7.24326 2.39863 7.64352C2.55784 8.04373 2.79696 8.40728 3.10139 8.71196M3.10139 8.71196C3.10135 8.71192 3.10143 8.712 3.10139 8.71196ZM3.10139 8.71196L8.94269 14.5533M8.94269 14.5533C8.94254 14.5531 8.94284 14.5534 8.94269 14.5533ZM12.7688 2.32582C12.2057 2.31016 11.6453 2.40947 11.1219 2.61769C10.5985 2.8259 10.123 3.13865 9.72458 3.53682L9.72332 3.53808L9.0006 4.26556L8.42535 3.68591L8.42317 3.68374C6.8593 2.12769 4.26647 1.86752 2.57873 3.38524C2.15923 3.76088 1.82068 4.21808 1.58378 4.72894C1.34679 5.23997 1.21648 5.79395 1.20082 6.35704C1.18516 6.92013 1.28447 7.4805 1.49269 8.00391C1.7009 8.52733 2.01378 9.00292 2.41195 9.40138L8.25492 15.2443L8.25658 15.246C8.45451 15.442 8.72183 15.552 9.00041 15.552C9.279 15.552 9.54632 15.442 9.74425 15.246L9.40123 14.8997L9.74591 15.2443L15.4412 9.54904L15.4421 9.54817C16.9981 7.9843 17.2583 5.39147 15.7406 3.70373C15.3649 3.28423 14.9077 2.94568 14.3969 2.70878C13.8859 2.47179 13.3319 2.34148 12.7688 2.32582Z" stroke="currentColor" stroke-width="0.2" stroke-linecap="round" stroke-linejoin="round"/>
</svg>
