<svg width="24" height="24" viewBox="0 0 24 24" fill="none" xmlns="http://www.w3.org/2000/svg">
    <path d="M20.6807 9.72257L13.1807 2.90695C12.9042 2.65397 12.5429 2.51367 12.1682 2.51367C11.7934 2.51367 11.4322 2.65397 11.1557 2.90695L3.65567 9.72257C3.50211 9.86305 3.37947 10.034 3.29554 10.2244C3.21161 10.4149 3.16823 10.6207 3.16817 10.8288V19.4632C3.16207 19.8414 3.29558 20.2085 3.54317 20.4944C3.68369 20.6542 3.85679 20.7821 4.05084 20.8694C4.24489 20.9567 4.45538 21.0015 4.66817 21.0007H9.16817C9.36708 21.0007 9.55785 20.9217 9.6985 20.781C9.83915 20.6404 9.91817 20.4496 9.91817 20.2507V15.7507C9.91817 15.5518 9.99719 15.361 10.1378 15.2204C10.2785 15.0797 10.4693 15.0007 10.6682 15.0007H13.6682C13.8671 15.0007 14.0578 15.0797 14.1985 15.2204C14.3392 15.361 14.4182 15.5518 14.4182 15.7507V20.2507C14.4182 20.4496 14.4972 20.6404 14.6378 20.781C14.7785 20.9217 14.9693 21.0007 15.1682 21.0007H19.6682C19.917 21.0029 20.1622 20.9416 20.3807 20.8226C20.6184 20.6931 20.817 20.5021 20.9555 20.2695C21.0941 20.0369 21.1675 19.7714 21.1682 19.5007V10.8288C21.1681 10.6207 21.1247 10.4149 21.0408 10.2244C20.9569 10.034 20.8342 9.86305 20.6807 9.72257Z" fill="currentColor" />
</svg>
