<svg width="24" height="24" viewBox="0 0 24 24" fill="none" xmlns="http://www.w3.org/2000/svg">
    <path fill-rule="evenodd" clip-rule="evenodd" d="M12.1695 3.91328C12.1445 3.91328 12.1205 3.92263 12.102 3.9395L12.1004 3.94096L4.607 10.7506C4.59577 10.7618 4.58672 10.775 4.58031 10.7896C4.57382 10.8043 4.57017 10.8201 4.56953 10.8361V19.5005C4.56953 19.5271 4.58007 19.5525 4.59882 19.5713C4.61757 19.59 4.64301 19.6005 4.66953 19.6005H9.16953C9.19605 19.6005 9.22149 19.59 9.24024 19.5713C9.259 19.5525 9.26953 19.5271 9.26953 19.5005V15.0005C9.26953 14.6292 9.41703 14.2731 9.67958 14.0106C9.94213 13.748 10.2982 13.6005 10.6695 13.6005H13.6695C14.0408 13.6005 14.3969 13.748 14.6595 14.0106C14.922 14.2731 15.0695 14.6292 15.0695 15.0005V19.5005C15.0695 19.5271 15.0801 19.5525 15.0988 19.5713C15.1176 19.59 15.143 19.6005 15.1695 19.6005H19.6695C19.6961 19.6005 19.7215 19.59 19.7402 19.5713C19.759 19.5525 19.7695 19.5271 19.7695 19.5005V10.8362C19.7689 10.8201 19.7652 10.8043 19.7588 10.7896C19.7523 10.775 19.7433 10.7618 19.7321 10.7506L12.2386 3.94096L12.237 3.9395C12.2186 3.92263 12.1945 3.91328 12.1695 3.91328ZM11.2254 2.97952C11.4834 2.74392 11.8201 2.61328 12.1695 2.61328C12.519 2.61328 12.8558 2.74396 13.1137 2.97961C13.114 2.97985 13.1143 2.98009 13.1145 2.98034L20.6222 9.80289C20.7607 9.93371 20.8715 10.091 20.9484 10.2654C21.0252 10.4397 21.0664 10.6277 21.0694 10.8182L21.0696 10.8287L21.0695 19.5005C21.0695 19.8718 20.922 20.2279 20.6595 20.4905C20.3969 20.753 20.0408 20.9005 19.6695 20.9005H15.1695C14.7982 20.9005 14.4421 20.753 14.1796 20.4905C13.917 20.2279 13.7695 19.8718 13.7695 19.5005V15.0005C13.7695 14.974 13.759 14.9486 13.7402 14.9298C13.7215 14.9111 13.6961 14.9005 13.6695 14.9005H10.6695C10.643 14.9005 10.6176 14.9111 10.5988 14.9298C10.5801 14.9486 10.5695 14.974 10.5695 15.0005V19.5005C10.5695 19.8718 10.422 20.2279 10.1595 20.4905C9.89693 20.753 9.54083 20.9005 9.16953 20.9005H4.66953C4.29823 20.9005 3.94213 20.753 3.67958 20.4905C3.41703 20.2279 3.26953 19.8718 3.26953 19.5005V10.8182C3.27261 10.6277 3.31387 10.4397 3.3907 10.2654C3.46753 10.091 3.57847 9.9338 3.71698 9.80298L3.72605 9.79441L11.2245 2.98034C11.2248 2.98006 11.2251 2.97979 11.2254 2.97952Z" fill="currentColor"/>
</svg>
