<svg width="16" height="16" viewBox="0 0 16 16" fill="none" xmlns="http://www.w3.org/2000/svg">
    <g clip-path="url(#clip0_452_3083)">
        <path d="M4.29609 14.4996C3.93859 14.4996 3.63266 14.3724 3.37829 14.1181C3.12393 13.8637 2.99653 13.5575 2.99609 13.1996V6.69961C2.99609 6.34211 3.12349 6.03618 3.37829 5.78181C3.63309 5.52744 3.93903 5.40004 4.29609 5.39961H4.94609V4.09961C4.94609 3.20044 5.26308 2.43409 5.89704 1.80056C6.53101 1.16703 7.29736 0.850043 8.19609 0.84961C9.09483 0.849176 9.86139 1.16616 10.4958 1.80056C11.1302 2.43496 11.447 3.20131 11.4461 4.09961V5.39961H12.0961C12.4536 5.39961 12.7597 5.52701 13.0145 5.78181C13.2693 6.03661 13.3965 6.34254 13.3961 6.69961V13.1996C13.3961 13.5571 13.2689 13.8633 13.0145 14.1181C12.7602 14.3729 12.454 14.5 12.0961 14.4996H4.29609ZM8.19609 11.2496C8.55359 11.2496 8.85974 11.1224 9.11454 10.8681C9.36934 10.6137 9.49653 10.3075 9.49609 9.94961C9.49566 9.59168 9.36848 9.28574 9.11454 9.03181C8.86061 8.77788 8.55446 8.65048 8.19609 8.64961C7.83773 8.64874 7.53179 8.77614 7.27829 9.03181C7.02479 9.28748 6.89739 9.59341 6.89609 9.94961C6.89479 10.3058 7.02219 10.612 7.27829 10.8681C7.53439 11.1242 7.84033 11.2513 8.19609 11.2496ZM6.24609 5.39961H10.1461V4.09961C10.1461 3.55794 9.95651 3.09753 9.57734 2.71836C9.19818 2.33919 8.73776 2.14961 8.19609 2.14961C7.65443 2.14961 7.19401 2.33919 6.81484 2.71836C6.43568 3.09753 6.24609 3.55794 6.24609 4.09961V5.39961Z" fill="currentColor"/>
    </g>
    <defs>
        <clipPath id="clip0_452_3083">
            <rect width="15.6" height="15.6" fill="white" transform="translate(0.398438 0.199219)"/>
        </clipPath>
    </defs>
</svg>
