<svg width="16" height="16" viewBox="0 0 16 16" fill="none" xmlns="http://www.w3.org/2000/svg">
    <path d="M2.84033 10.372L3.57129 14.0615C3.83609 15.4207 5.59117 15.7163 6.33073 14.6165C6.55794 14.2789 6.63965 13.8737 6.5612 13.4743L5.95414 10.4049H6.7356L10.1543 12.6448C11.1049 13.2682 12.3857 12.5906 12.3857 11.4391V9.5604C13.5268 9.32802 14.3883 8.31703 14.3883 7.10837C14.3883 5.89971 13.5268 4.88873 12.3857 4.65635V2.77764C12.3857 1.63361 11.1109 0.943577 10.1543 1.57191L6.73511 3.81182H3.16536C2.15462 3.81182 1.33203 4.63441 1.33203 5.64516V8.57159C1.33203 9.47104 1.98458 10.2177 2.84033 10.372ZM5.58008 13.6676C5.60677 13.804 5.57878 13.9427 5.5013 14.0582C5.24256 14.442 4.64208 14.332 4.55273 13.8691L3.86646 10.4049H4.93465L5.58008 13.6676ZM13.3883 7.10837C13.3883 7.76068 12.9679 8.31166 12.3857 8.5189V5.69785C12.9679 5.90509 13.3883 6.45607 13.3883 7.10837ZM10.7025 2.4085C10.9951 2.21585 11.3857 2.42601 11.3857 2.77764V11.4391C11.3857 11.7909 10.995 12.0008 10.7025 11.8082L7.38151 9.63246V4.58396L10.7025 2.4085ZM2.33203 5.64516C2.33203 5.18552 2.70573 4.81182 3.16536 4.81182H6.38151V9.40492H3.16536C2.70573 9.40492 2.33203 9.03122 2.33203 8.57159V5.64516Z" fill="currentColor"/>
</svg>
