<svg width="25" height="25" viewBox="0 0 25 25" fill="none" xmlns="http://www.w3.org/2000/svg">
    <path d="M5.75 21.5H19.75C20.8546 21.5 21.75 20.6046 21.75 19.5V5.5C21.75 4.39543 20.8546 3.5 19.75 3.5H5.75C4.64543 3.5 3.75 4.39543 3.75 5.5V19.5C3.75 20.6046 4.64543 21.5 5.75 21.5ZM5.75 21.5L16.75 10.5L21.75 15.5M10.75 9C10.75 9.82843 10.0784 10.5 9.25 10.5C8.42157 10.5 7.75 9.82843 7.75 9C7.75 8.17157 8.42157 7.5 9.25 7.5C10.0784 7.5 10.75 8.17157 10.75 9Z" stroke="currentColor" stroke-width="2" stroke-linecap="round" stroke-linejoin="round"/>
</svg>
