<svg width="48" height="48" viewBox="0 0 48 48" fill="none" xmlns="http://www.w3.org/2000/svg">
    <path d="M14.3715 40.0018H33.6297C35.1918 40.0018 36.4621 38.7448 36.4621 37.1991V34.3964C36.4621 29.449 33.5111 24.8096 28.4642 22.9412C29.5315 22.2223 30.405 21.2564 31.0089 20.1273C31.6128 18.9982 31.9288 17.7402 31.9293 16.4627H33.0638C33.3643 16.4627 33.6525 16.3446 33.8651 16.1343C34.0776 15.924 34.197 15.6388 34.197 15.3414C34.197 15.044 34.0776 14.7588 33.8651 14.5485C33.6525 14.3382 33.3643 14.2201 33.0638 14.2201H31.5611C30.5774 10.9919 27.5819 8.61719 24.0006 8.61719C20.4218 8.61719 17.4238 10.9894 16.4401 14.2201H14.9399C14.6394 14.2201 14.3511 14.3382 14.1386 14.5485C13.9261 14.7588 13.8067 15.044 13.8067 15.3414C13.8067 15.6388 13.9261 15.924 14.1386 16.1343C14.3511 16.3446 14.6394 16.4627 14.9399 16.4627H16.0719C16.0719 19.1529 17.4485 21.5252 19.537 22.9412C14.495 24.8096 11.5391 29.4441 11.5391 34.3964V37.1991C11.5391 38.7448 12.8094 40.0018 14.3715 40.0018ZM30.5205 26.6634C31.6728 27.6033 32.6001 28.7844 33.2357 30.1216C33.8712 31.4588 34.1991 32.9188 34.1957 34.3964V37.1991C34.1957 37.3479 34.1362 37.4906 34.0301 37.596C33.924 37.7014 33.7801 37.761 33.6297 37.7616H31.6822L29.7 29.9136L30.5205 26.6634ZM18.3358 16.4627H29.6654C29.6641 17.949 29.0668 19.374 28.0048 20.4249C26.9427 21.4758 25.5026 22.0668 24.0006 22.0681C22.499 22.0661 21.0596 21.4749 19.998 20.424C18.9365 19.3732 18.3396 17.9485 18.3383 16.4627H18.3358ZM28.5136 25.3648L27.6486 28.7935H20.3526L19.4876 25.3648C20.8885 24.6704 22.4337 24.3088 24.0006 24.3088C25.5675 24.3088 27.1127 24.6704 28.5136 25.3648ZM13.8079 34.3964C13.8079 31.3688 15.1475 28.5857 17.4807 26.6634L18.3037 29.9136L16.319 37.7592H14.3715C14.2215 37.7585 14.078 37.6993 13.972 37.5944C13.866 37.4895 13.8061 37.3475 13.8055 37.1991L13.8079 34.3964Z" fill="currentColor"/>
</svg>
