<svg width="65" height="58" viewBox="0 0 65 58" fill="none" xmlns="http://www.w3.org/2000/svg">
    <ellipse cx="32.4208" cy="24.8448" rx="22.1044" ry="22.5948" fill="currentColor"/>
    <path d="M34.3361 13.75C35.5828 13.75 36.6033 14.7081 36.6861 15.9206L36.6916 16.0801C36.6916 15.9924 36.6867 15.9058 36.6771 15.8206L38.5236 15.8212C39.8245 15.8212 40.8791 16.8644 40.8791 18.1513V32.1318C40.8791 33.4187 39.8245 34.4619 38.5236 34.4619H26.4844C25.1835 34.4619 24.1289 33.4187 24.1289 32.1318V18.1513C24.1289 16.8644 25.1835 15.8212 26.4844 15.8212L28.3309 15.8206C28.3241 15.881 28.3197 15.942 28.3177 16.0037L28.3165 16.0801C28.3165 14.7932 29.3711 13.75 30.672 13.75H34.3361ZM34.3361 18.4102H30.672C29.8407 18.4102 29.11 17.9842 28.6907 17.3409L28.7133 17.3748L26.4844 17.3746C26.0508 17.3746 25.6992 17.7223 25.6992 18.1513V32.1318C25.6992 32.5607 26.0508 32.9085 26.4844 32.9085H38.5236C38.9573 32.9085 39.3088 32.5607 39.3088 32.1318V18.1513C39.3088 17.7223 38.9573 17.3746 38.5236 17.3746L36.2948 17.3748L36.3173 17.3409C35.8981 17.9842 35.1674 18.4102 34.3361 18.4102ZM34.3361 15.3034H30.672C30.2383 15.3034 29.8868 15.6511 29.8868 16.0801C29.8868 16.509 30.2383 16.8568 30.672 16.8568H34.3361C34.7697 16.8568 35.1212 16.509 35.1212 16.0801C35.1212 15.6511 34.7697 15.3034 34.3361 15.3034ZM28.3165 26.6949H32.504C32.9377 26.6949 33.2892 26.3472 33.2892 25.9182C33.2892 25.4893 32.9377 25.1415 32.504 25.1415H28.3165C27.8828 25.1415 27.5313 25.4893 27.5313 25.9182C27.5313 26.3472 27.8828 26.6949 28.3165 26.6949ZM28.3165 22.5525H36.6916C37.1252 22.5525 37.4767 22.2048 37.4767 21.7759C37.4767 21.3469 37.1252 20.9992 36.6916 20.9992H28.3165C27.8828 20.9992 27.5313 21.3469 27.5313 21.7759C27.5313 22.2048 27.8828 22.5525 28.3165 22.5525ZM28.3165 30.8373H34.5978C35.0314 30.8373 35.383 30.4896 35.383 30.0606C35.383 29.6316 35.0314 29.2839 34.5978 29.2839H28.3165C27.8828 29.2839 27.5313 29.6316 27.5313 30.0606C27.5313 30.4896 27.8828 30.8373 28.3165 30.8373Z" fill="white"/>
    <path fill-rule="evenodd" clip-rule="evenodd" d="M33.3962 37.1955C33.3962 37.1955 32.1712 36.2567 32.112 35.1133C32.0531 33.9733 32.6014 33.5816 32.5865 33.2821C32.5718 32.986 31.9524 32.5394 31.1409 32.7365C30.333 32.9368 30.8976 33.5689 30.8232 34.7535C30.7525 35.9413 30.524 36.9775 29.7676 37.6521C29.0112 38.3266 33.3926 37.1924 33.3926 37.1924L33.3962 37.1955Z" fill="#483F1D"/>
    <path fill-rule="evenodd" clip-rule="evenodd" d="M32.5789 33.2464C32.5236 32.954 31.918 32.548 31.1411 32.7387C30.8966 32.7989 30.7779 32.9004 30.7303 33.044C30.7796 33.2993 31.362 33.5742 31.9365 33.6006C32.5901 33.6344 32.5804 33.2668 32.5789 33.2464Z" fill="#908259"/>
    <path fill-rule="evenodd" clip-rule="evenodd" d="M31.8856 37.8898C31.751 37.8218 31.4897 37.7023 31.0698 37.6055C25.0217 36.1921 21.9698 41.1649 23.0333 45.5643C24.0006 49.5783 27.6282 52.0639 32.7847 50.2706L31.8854 37.8864L31.8856 37.8898Z" fill="#C30303"/>
    <path fill-rule="evenodd" clip-rule="evenodd" d="M31.857 37.4891C31.7489 37.4121 31.538 37.2818 31.2053 37.1678C26.3905 35.5302 24.0764 40.7675 25.0027 45.4797C25.8513 49.7811 28.771 52.5044 32.8171 50.7059L31.8572 37.4925L31.857 37.4891Z" fill="#D12B08"/>
    <path fill-rule="evenodd" clip-rule="evenodd" d="M31.8665 37.9039C31.9864 37.8159 32.2274 37.6568 32.6321 37.4951C38.4073 35.1508 42.1425 39.5892 41.7264 44.1051C41.3464 48.2252 38.1224 51.2502 32.7656 50.2847L31.8663 37.9005L31.8665 37.9039Z" fill="#C30303"/>
    <path fill-rule="evenodd" clip-rule="evenodd" d="M31.8371 37.5009C31.9294 37.4082 32.1192 37.2463 32.4351 37.0813C36.9585 34.7087 40.0063 39.524 39.7679 44.3279C39.5503 48.7132 37.0572 51.8625 32.8007 50.7175L31.8408 37.5041L31.8371 37.5009Z" fill="#D12B08"/>
    <path fill-rule="evenodd" clip-rule="evenodd" d="M30.1437 50.3706C26.9727 47.0832 26.0069 37.1225 31.7915 36.7252C37.4051 36.2285 38.0184 45.66 35.6064 49.6295C34.3804 51.6432 31.8122 52.0983 30.1437 50.3706Z" fill="#E84607"/>
    <path fill-rule="evenodd" clip-rule="evenodd" d="M7.91158 17.9756C8.76867 19.5857 9.74583 23.343 10.24 25.3668C10.9215 28.1824 9.82364 28.7854 8.03037 26.5783C6.73885 24.9912 4.38484 21.9863 3.6263 20.3201C2.15848 17.101 6.25431 14.8576 7.91019 17.9721L7.91158 17.9756Z" fill="#6FD067"/>
    <path fill-rule="evenodd" clip-rule="evenodd" d="M7.21961 21.6833C8.39647 23.0745 10.1437 26.539 11.0492 28.4117C12.308 31.017 11.3615 31.837 9.14235 30.0575C7.54706 28.7795 4.61319 26.3415 3.5196 24.8761C1.41152 22.0424 4.94568 18.9895 7.21822 21.6798L7.21961 21.6833Z" fill="#267957"/>
    <path fill-rule="evenodd" clip-rule="evenodd" d="M7.02632 21.9363C7.47258 23.709 9.2624 27.1486 10.252 28.9794C11.6282 31.5252 12.842 31.2224 12.6914 28.373C12.5817 26.3224 12.3137 22.5033 11.7613 20.7575C10.6919 17.3848 6.16921 18.5097 7.02632 21.9363Z" fill="#389971"/>
    <path fill-rule="evenodd" clip-rule="evenodd" d="M7.2284 36.7171C8.98397 40.485 14.8045 47.12 18.0048 50.6286C22.4514 55.5003 25.5033 53.9146 24.1412 47.4481C23.16 42.7927 21.1623 34.1703 19.1333 30.5456C15.2079 23.5371 3.83383 29.4326 7.23187 36.7157L7.2284 36.7171Z" fill="#FF9C4C"/>
    <path fill-rule="evenodd" clip-rule="evenodd" d="M7.22866 36.7187C7.36255 37.0034 7.52003 37.3067 7.69346 37.6197C7.98972 37.3421 8.29222 37.07 8.56558 36.8258C8.5746 36.8182 8.57875 36.8084 8.58777 36.8007C8.59818 36.7965 8.60373 36.7902 8.61275 36.7825C8.62385 36.7699 8.64537 36.7531 8.65439 36.7454C9.38705 36.0768 10.1017 35.5043 10.9058 34.9237C10.9849 34.8593 11.1084 34.7849 11.1972 34.7247C11.3929 34.5888 11.6038 34.4507 11.7883 34.3072C12.095 34.0657 12.308 34.0438 12.3448 33.6011C12.3767 33.0555 11.7225 33.1636 11.37 33.23C11.2215 33.2217 10.6741 33.4358 10.5278 33.5032C10.4043 33.5574 10.287 33.6171 10.1677 33.6817C9.23104 34.1829 8.37071 34.8145 7.56589 35.5044C7.55201 35.51 7.53191 35.5303 7.5208 35.5429C7.51178 35.5506 7.50276 35.5583 7.4986 35.568C7.48819 35.5722 7.47918 35.5799 7.46669 35.589C7.29601 35.7471 7.13018 35.9072 6.96574 36.0708C7.04344 36.2854 7.12946 36.5007 7.22866 36.7187ZM13.3682 45.3448C13.7248 45.7731 14.0856 46.1917 14.4366 46.6061L14.4435 46.6033C15.1124 46.0372 15.8083 45.549 16.4702 45.0059C16.8386 44.6869 17.0974 44.4568 16.8504 43.9799C16.5951 43.4823 16.1948 43.6205 15.7411 43.8168C15.0389 44.1179 14.0017 44.8214 13.3994 45.3119C13.3904 45.3196 13.3849 45.3259 13.3807 45.3357C13.3772 45.3371 13.3703 45.3399 13.3634 45.3427L13.3682 45.3448ZM24.2855 48.2505C24.2418 47.9898 24.1953 47.7221 24.1363 47.4434C24.0795 47.1799 24.0219 46.9047 23.9602 46.619L23.8589 46.648C23.8589 46.648 23.8415 46.655 23.8346 46.6578C23.8346 46.6578 23.8145 46.6579 23.811 46.6594C23.0686 46.8799 22.0161 47.3434 21.3667 47.7563C21.0074 47.9869 20.3344 48.4013 20.5966 48.9163C20.8519 49.414 21.5512 49.1463 21.9557 49.0185C22.7453 48.7545 23.4543 48.4708 24.2688 48.2492L24.2827 48.2435L24.2855 48.2505ZM21.3964 36.4286C21.2383 35.9117 21.0808 35.4066 20.9171 34.9162C20.1803 34.9287 19.44 34.9829 18.7511 35.1455C18.7407 35.1498 18.7268 35.1554 18.7164 35.1596C18.7011 35.1618 18.6893 35.1625 18.6775 35.1633C17.3642 35.4986 16.0529 36.1518 14.8686 36.7899C14.5536 36.9702 14.2317 37.1533 13.9209 37.344C13.567 37.5684 12.2002 38.3047 12.4604 38.8851C12.7767 39.4347 14.1685 38.7407 14.557 38.583C14.8956 38.4416 15.2217 38.2689 15.5568 38.1288C16.6918 37.5794 17.8345 37.0591 19.0681 36.7764C19.0785 36.7721 19.0889 36.7679 19.0993 36.7637C19.1111 36.7629 19.1229 36.7622 19.1347 36.7614C19.9256 36.5615 20.6492 36.5059 21.4013 36.4307L21.3964 36.4286ZM14.6773 33.1024C14.8591 33.0932 15.3947 32.8798 15.5681 32.7893C15.5716 32.7879 15.5737 32.783 15.5757 32.7781C15.5757 32.7781 15.5841 32.7787 15.5876 32.7773C15.7645 32.6854 16.2543 32.3574 16.375 32.2156C16.5929 31.9537 16.4805 31.7127 16.3452 31.4448C16.21 31.1769 16.0781 30.9479 15.7354 30.978C15.5495 30.997 15.0069 31.2132 14.8265 31.3065C14.8265 31.3065 14.821 31.3128 14.8224 31.3163C14.8224 31.3163 14.814 31.3157 14.8106 31.3171C14.6475 31.4034 14.1653 31.7202 14.0585 31.8564C13.867 32.1036 13.9912 32.3639 14.1049 32.6083C14.2256 32.87 14.3457 33.12 14.6808 33.101L14.6773 33.1024ZM19.3251 43.484C19.432 43.4891 19.7817 43.3956 19.8816 43.3429C19.8816 43.3429 19.885 43.3415 19.8837 43.338C19.8837 43.338 19.885 43.3415 19.8885 43.3401C19.9884 43.2874 20.2708 43.0558 20.327 42.9644C20.4803 42.7125 20.3659 42.4563 20.2445 42.2231C20.1217 41.9864 19.9857 41.747 19.6909 41.7254C19.5875 41.7189 19.2343 41.8138 19.133 41.863C19.133 41.863 19.133 41.863 19.131 41.8679C19.131 41.8679 19.131 41.8679 19.124 41.8707C19.0227 41.9199 18.7438 42.1501 18.689 42.245C18.5357 42.4969 18.6501 42.7531 18.7715 42.9863C18.8929 43.2196 19.0303 43.4624 19.3251 43.484Z" fill="#E36D1B"/>
    <path fill-rule="evenodd" clip-rule="evenodd" d="M34.1529 51.1776C34.1529 51.1776 35.1759 49.9642 37.0127 49.8155C41.2293 50.3092 44.1804 38.4392 45.3351 35.8295C51.1111 22.7684 67.2132 31.3233 55.5918 46.9083C49.5417 55.0218 38.3015 57.627 34.1529 51.1776Z" fill="#ADEA87"/>
    <path fill-rule="evenodd" clip-rule="evenodd" d="M43.7783 53.6731C43.3878 53.7139 42.9972 53.7383 42.6064 53.7462L41.0847 53.1483C40.3125 53.235 39.5131 53.2245 38.6825 53.1029C38.0892 52.8686 37.5345 52.5694 37.0348 52.205C37.4507 52.3399 37.8677 52.4519 38.2718 52.5287C38.3791 52.5491 38.4827 52.572 38.5849 52.5849L38.439 51.4103C38.4228 51.2725 38.5176 51.1525 38.6523 51.1321C38.7896 51.1155 38.9089 51.2104 38.9289 51.3457L39.0923 52.6516C39.775 52.7254 40.4394 52.7235 41.0755 52.6471L41.112 52.6442C41.5 52.5996 41.8814 52.5209 42.2563 52.4245L41.5617 50.3012C41.5178 50.1713 41.5872 50.0301 41.7193 49.9894C41.8488 49.945 41.9855 50.017 42.0295 50.1469L42.7279 52.284C43.1957 52.1297 43.6468 51.9426 44.0887 51.7177C44.321 51.5975 44.5444 51.4723 44.7702 51.3345C45.144 51.1065 45.5025 50.8558 45.8532 50.5774L44.4571 47.3121C44.3993 47.1861 44.4598 47.0399 44.5842 46.988C44.7086 46.936 44.8553 46.9901 44.9093 47.1187L46.2527 50.2491C47.1229 49.5107 47.9251 48.6312 48.6672 47.6549L48.6996 47.6052L46.5135 41.9785C46.4658 41.8511 46.5264 41.7049 46.6533 41.6567C46.7802 41.6085 46.9257 41.669 46.9772 41.7938L49.0512 47.1331C49.6445 46.3027 50.1868 45.4133 50.6873 44.4864L50.6986 44.4787C51.0189 43.8791 51.3177 43.2721 51.6026 42.6525C51.3716 41.8562 49.6837 36.0874 49.5382 35.4256C49.5081 35.2917 49.5915 35.163 49.7287 35.1299C49.8621 35.0994 49.9927 35.1866 50.0228 35.3204C50.1498 35.89 51.428 40.2896 51.9146 41.9593C53.1024 39.2275 53.9338 36.3918 54.4108 33.9916C54.4361 33.8584 54.564 33.771 54.7004 33.7936C54.8355 33.8226 54.9223 33.9508 54.8969 34.0839C54.5991 35.5784 54.1703 37.2451 53.5969 38.9501L56.8745 37.8178C57.0039 37.7734 57.1445 37.8428 57.1884 37.9727C57.2323 38.1027 57.1629 38.2439 57.0334 38.2883L53.3913 39.5485C53.0169 40.6209 52.5845 41.7053 52.0978 42.7663C51.8613 43.2866 51.6096 43.8007 51.3465 44.306L55.889 43.8313C56.0225 43.8173 56.1444 43.916 56.1581 44.05C56.1718 44.1841 56.0758 44.3104 55.9397 44.3207L51.0671 44.828C50.4647 45.9294 49.7963 46.9822 49.0667 47.9444C48.8659 48.2086 48.66 48.4652 48.4515 48.7181L51.7998 49.2751C51.9361 49.2977 52.0229 49.4259 51.9976 49.5591C51.9785 49.6935 51.8469 49.7835 51.7168 49.7621L48.0706 49.1551C47.5222 49.7673 46.9443 50.3279 46.3306 50.8192L46.308 50.8346C46.0488 51.045 45.7818 51.244 45.5073 51.4318L47.328 51.9024C47.4619 51.9377 47.5412 52.0711 47.5057 52.2056C47.4715 52.3339 47.3348 52.4163 47.2034 52.3848L44.9379 51.7935C44.7346 51.9159 44.53 52.0282 44.3229 52.1368C43.601 52.509 42.8443 52.7892 42.0515 52.9672L43.7895 53.6489L43.7783 53.6731Z" fill="#66B75F"/>
</svg>
