<svg width="20" height="20" viewBox="0 0 20 20" fill="none" xmlns="http://www.w3.org/2000/svg">
    <path fill-rule="evenodd" clip-rule="evenodd" d="M4.16667 1.95703C4.46582 1.95703 4.70833 2.19954 4.70833 2.4987V5.10426C5.53752 4.20765 6.58472 3.53253 7.75485 3.14894C9.21981 2.6687 10.8 2.67105 12.2636 3.15508C13.7271 3.63911 14.9973 4.57942 15.8871 5.83842C16.7768 7.09735 17.2395 8.60833 17.2073 10.1496C17.175 11.6909 16.6492 13.1813 15.7075 14.4018C14.7659 15.6224 13.4581 16.5087 11.9754 16.9311C10.4928 17.3534 8.91353 17.2893 7.47001 16.7482C6.02651 16.207 4.79452 15.2174 3.9549 13.9245C3.79197 13.6736 3.86328 13.3381 4.11417 13.1752C4.36506 13.0123 4.70053 13.0836 4.86346 13.3345C5.57689 14.4331 6.62373 15.274 7.85029 15.7338C9.07684 16.1936 10.4188 16.248 11.6786 15.8892C12.9384 15.5303 14.0497 14.7772 14.8498 13.7401C15.65 12.7029 16.0967 11.4365 16.1242 10.1269C16.1516 8.81731 15.7584 7.53341 15.0024 6.46366C14.2464 5.39399 13.1672 4.59495 11.9234 4.18362C10.6797 3.7723 9.337 3.77035 8.09232 4.17837C6.97808 4.54364 5.99505 5.21999 5.25687 6.1237H8.33333C8.63249 6.1237 8.875 6.36621 8.875 6.66536C8.875 6.96452 8.63249 7.20703 8.33333 7.20703H4.16667C3.86751 7.20703 3.625 6.96452 3.625 6.66536V2.4987C3.625 2.19954 3.86751 1.95703 4.16667 1.95703Z" fill="currentColor"/>
</svg>
