<svg width="18" height="18" viewBox="1 0 19 18" fill="none" xmlns="http://www.w3.org/2000/svg">
    <path d="M14.25 16.5C13.625 16.5 13.0938 16.2813 12.6562 15.8438C12.2187 15.4062 12 14.875 12 14.25C12 14.1625 12.0063 14.0719 12.0188 13.9781C12.0313 13.8844 12.05 13.8 12.075 13.725L6.7875 10.65C6.575 10.8375 6.3375 10.9844 6.075 11.0906C5.8125 11.1969 5.5375 11.25 5.25 11.25C4.625 11.25 4.09375 11.0313 3.65625 10.5938C3.21875 10.1562 3 9.625 3 9C3 8.375 3.21875 7.84375 3.65625 7.40625C4.09375 6.96875 4.625 6.75 5.25 6.75C5.5375 6.75 5.8125 6.80313 6.075 6.90938C6.3375 7.01563 6.575 7.1625 6.7875 7.35L12.075 4.275C12.05 4.2 12.0313 4.11562 12.0188 4.02187C12.0063 3.92812 12 3.8375 12 3.75C12 3.125 12.2187 2.59375 12.6562 2.15625C13.0938 1.71875 13.625 1.5 14.25 1.5C14.875 1.5 15.4062 1.71875 15.8438 2.15625C16.2813 2.59375 16.5 3.125 16.5 3.75C16.5 4.375 16.2813 4.90625 15.8438 5.34375C15.4062 5.78125 14.875 6 14.25 6C13.9625 6 13.6875 5.94687 13.425 5.84062C13.1625 5.73437 12.925 5.5875 12.7125 5.4L7.425 8.475C7.45 8.55 7.46875 8.63437 7.48125 8.72812C7.49375 8.82187 7.5 8.9125 7.5 9C7.5 9.0875 7.49375 9.17813 7.48125 9.27188C7.46875 9.36563 7.45 9.45 7.425 9.525L12.7125 12.6C12.925 12.4125 13.1625 12.2656 13.425 12.1594C13.6875 12.0531 13.9625 12 14.25 12C14.875 12 15.4062 12.2187 15.8438 12.6562C16.2813 13.0938 16.5 13.625 16.5 14.25C16.5 14.875 16.2813 15.4062 15.8438 15.8438C15.4062 16.2813 14.875 16.5 14.25 16.5ZM14.25 4.5C14.4625 4.5 14.6406 4.42813 14.7844 4.28438C14.9281 4.14063 15 3.9625 15 3.75C15 3.5375 14.9281 3.35938 14.7844 3.21563C14.6406 3.07188 14.4625 3 14.25 3C14.0375 3 13.8594 3.07188 13.7156 3.21563C13.5719 3.35938 13.5 3.5375 13.5 3.75C13.5 3.9625 13.5719 4.14063 13.7156 4.28438C13.8594 4.42813 14.0375 4.5 14.25 4.5ZM5.25 9.75C5.4625 9.75 5.64063 9.67813 5.78438 9.53438C5.92813 9.39063 6 9.2125 6 9C6 8.7875 5.92813 8.60938 5.78438 8.46563C5.64063 8.32188 5.4625 8.25 5.25 8.25C5.0375 8.25 4.85938 8.32188 4.71563 8.46563C4.57188 8.60938 4.5 8.7875 4.5 9C4.5 9.2125 4.57188 9.39063 4.71563 9.53438C4.85938 9.67813 5.0375 9.75 5.25 9.75ZM14.25 15C14.4625 15 14.6406 14.9281 14.7844 14.7844C14.9281 14.6406 15 14.4625 15 14.25C15 14.0375 14.9281 13.8594 14.7844 13.7156C14.6406 13.5719 14.4625 13.5 14.25 13.5C14.0375 13.5 13.8594 13.5719 13.7156 13.7156C13.5719 13.8594 13.5 14.0375 13.5 14.25C13.5 14.4625 13.5719 14.6406 13.7156 14.7844C13.8594 14.9281 14.0375 15 14.25 15Z" fill="currentColor"/>
</svg>
