<svg width="18" height="18" viewBox="0 0 18 18" fill="none" xmlns="http://www.w3.org/2000/svg">
    <path d="M9.90676 2.32612C9.53536 1.57358 8.46227 1.57359 8.09087 2.32612L6.32241 5.90941L2.36801 6.48402C1.53753 6.60469 1.20594 7.62527 1.80687 8.21103L4.6683 11.0002L3.99281 14.9387C3.85094 15.7658 4.7191 16.3965 5.46189 16.006L8.99881 14.1465L12.5357 16.006C13.2785 16.3965 14.1467 15.7658 14.0048 14.9387L13.3293 11.0002L16.1908 8.21103C16.7917 7.62526 16.4601 6.60469 15.6296 6.48402L11.6752 5.90941L9.90676 2.32612ZM7.30506 6.46034L8.99881 3.02842L10.6926 6.46034C10.84 6.75917 11.1251 6.9663 11.4549 7.01422L15.2423 7.56455L12.5017 10.2359C12.2631 10.4685 12.1542 10.8037 12.2105 11.1321L12.8575 14.9042L9.46997 13.1232C9.175 12.9682 8.82262 12.9682 8.52766 13.1232L5.14015 14.9042L5.78711 11.1321C5.84344 10.8037 5.73455 10.4685 5.49591 10.2359L2.75536 7.56455L6.54271 7.01422C6.87249 6.9663 7.15758 6.75917 7.30506 6.46034ZM0.873282 2.83528C0.679214 3.07786 0.718545 3.43184 0.96113 3.6259L2.83613 5.12591C3.07871 5.31997 3.43269 5.28064 3.62676 5.03806C3.82083 4.79547 3.7815 4.4415 3.53891 4.24743L1.66391 2.74743C1.42133 2.55336 1.06735 2.59269 0.873282 2.83528ZM17.1268 13.6631C17.3208 13.4205 17.2815 13.0665 17.0389 12.8724L15.1639 11.3724C14.9213 11.1784 14.5674 11.2177 14.3733 11.4603C14.1792 11.7029 14.2186 12.0568 14.4611 12.2509L16.3361 13.7509C16.5787 13.945 16.9327 13.9056 17.1268 13.6631ZM0.96113 12.8724C0.718545 13.0665 0.679214 13.4205 0.873282 13.6631C1.06735 13.9056 1.42133 13.945 1.66391 13.7509L3.53891 12.2509C3.7815 12.0568 3.82083 11.7029 3.62676 11.4603C3.43269 11.2177 3.07871 11.1784 2.83613 11.3724L0.96113 12.8724ZM17.1268 2.83528C17.3208 3.07786 17.2815 3.43184 17.0389 3.6259L15.1639 5.12591C14.9213 5.31997 14.5674 5.28064 14.3733 5.03806C14.1792 4.79547 14.2186 4.4415 14.4611 4.24743L16.3361 2.74743C16.5787 2.55336 16.9327 2.59269 17.1268 2.83528Z" fill="currentColor"/>
</svg>
