<svg width="20" height="20" viewBox="0 0 20 20" fill="none" xmlns="http://www.w3.org/2000/svg">
    <path d="M18.3346 9.99102C18.3346 5.39562 14.6013 1.66602 10.0013 1.66602C5.4013 1.66602 1.66797 5.39562 1.66797 9.99102C1.66797 12.5218 2.81797 14.8029 4.61797 16.3347C4.63464 16.3513 4.6513 16.3513 4.6513 16.368C4.8013 16.4845 4.9513 16.6011 5.11797 16.7176C5.2013 16.7676 5.26797 16.8342 5.3513 16.9008C6.68464 17.7999 8.28464 18.3327 10.018 18.3327C11.7513 18.3327 13.3513 17.7999 14.6846 16.9008C14.768 16.8508 14.8346 16.7842 14.918 16.7343C15.068 16.6177 15.2346 16.5012 15.3846 16.3846C15.4013 16.368 15.418 16.368 15.418 16.3513C17.1846 14.8029 18.3346 12.5218 18.3346 9.99102ZM10.0013 17.2837C8.43464 17.2837 7.0013 16.7842 5.81797 15.9517C5.83464 15.8185 5.86797 15.6853 5.9013 15.5521C6.0013 15.1858 6.1513 14.8362 6.33464 14.5198C6.51797 14.2035 6.73464 13.9204 7.0013 13.6707C7.2513 13.4209 7.5513 13.1878 7.8513 13.0047C8.16797 12.8215 8.5013 12.6883 8.86797 12.5884C9.23464 12.4885 9.61797 12.4386 10.0013 12.4386C10.618 12.4386 11.1846 12.5551 11.7013 12.7716C12.218 12.988 12.668 13.2877 13.0513 13.654C13.4346 14.037 13.7346 14.4865 13.9513 15.0027C14.068 15.3024 14.1513 15.6187 14.2013 15.9517C13.0013 16.7842 11.568 17.2837 10.0013 17.2837ZM7.4513 9.57477C7.3013 9.24177 7.23464 8.87547 7.23464 8.50917C7.23464 8.14287 7.3013 7.77657 7.4513 7.44357C7.6013 7.11057 7.8013 6.81087 8.0513 6.56112C8.3013 6.31137 8.6013 6.11157 8.93464 5.96172C9.26797 5.81187 9.63464 5.74527 10.0013 5.74527C10.3846 5.74527 10.7346 5.81187 11.068 5.96172C11.4013 6.11157 11.7013 6.31137 11.9513 6.56112C12.2013 6.81087 12.4013 7.11057 12.5513 7.44357C12.7013 7.77657 12.768 8.14287 12.768 8.50917C12.768 8.89212 12.7013 9.24177 12.5513 9.57477C12.4013 9.90777 12.2013 10.2075 11.9513 10.4572C11.7013 10.707 11.4013 10.9068 11.068 11.0566C10.4013 11.3397 9.58464 11.3397 8.91797 11.0566C8.58464 10.9068 8.28464 10.707 8.03464 10.4572C7.78464 10.2075 7.58464 9.90777 7.4513 9.57477ZM15.1846 15.1026C15.1846 15.0693 15.168 15.0526 15.168 15.0193C15.0013 14.5032 14.768 14.0037 14.4513 13.5541C14.1346 13.1046 13.768 12.705 13.318 12.372C12.9846 12.1222 12.618 11.9058 12.2346 11.7393C12.418 11.6227 12.5846 11.4729 12.718 11.3397C12.968 11.0899 13.1846 10.8235 13.368 10.5238C13.5513 10.2241 13.6846 9.90777 13.7846 9.55812C13.8846 9.20847 13.918 8.85882 13.918 8.50917C13.918 7.95972 13.818 7.44357 13.618 6.97737C13.418 6.51117 13.1346 6.09492 12.768 5.72862C12.418 5.37897 11.9846 5.09592 11.518 4.89612C11.0513 4.69632 10.5346 4.59642 9.98464 4.59642C9.43464 4.59642 8.91797 4.69632 8.4513 4.89612C7.98464 5.09592 7.5513 5.37897 7.2013 5.74527C6.8513 6.09492 6.56797 6.52782 6.36797 6.99402C6.16797 7.46022 6.06797 7.97637 6.06797 8.52582C6.06797 8.89212 6.11797 9.24177 6.21797 9.57477C6.31797 9.92442 6.4513 10.2408 6.63464 10.5405C6.8013 10.8402 7.03464 11.1066 7.28464 11.3563C7.43464 11.5062 7.6013 11.6394 7.78464 11.7559C7.38464 11.9391 7.01797 12.1555 6.7013 12.4053C6.26797 12.7383 5.88464 13.1379 5.56797 13.5708C5.2513 14.0203 5.01797 14.5032 4.8513 15.036C4.83464 15.0693 4.83464 15.1026 4.83464 15.1192C3.51797 13.7872 2.7013 11.989 2.7013 9.99102C2.7013 5.97837 5.98464 2.69832 10.0013 2.69832C14.018 2.69832 17.3013 5.97837 17.3013 9.99102C17.3013 11.989 16.4846 13.7872 15.1846 15.1026Z" fill="currentColor"/>
</svg>
