<svg width="24" height="24" viewBox="0 0 24 24" fill="none" xmlns="http://www.w3.org/2000/svg">
    <path fill-rule="evenodd" clip-rule="evenodd" d="M12.8378 3.64961C10.7313 3.64961 9.02174 5.36048 9.02174 7.47329C9.02174 9.58611 10.7313 11.297 12.8378 11.297C14.9442 11.297 16.6538 9.58611 16.6538 7.47329C16.6538 5.36048 14.9442 3.64961 12.8378 3.64961ZM7.72174 7.47329C7.72174 4.64461 10.0112 2.34961 12.8378 2.34961C15.6643 2.34961 17.9538 4.64461 17.9538 7.47329C17.9538 10.302 15.6643 12.597 12.8378 12.597C10.0112 12.597 7.72174 10.302 7.72174 7.47329ZM4.75514 16.4968C5.58247 14.1113 8.03034 13.0865 10.3166 13.0865H15.359C17.6452 13.0865 20.093 14.1113 20.9204 16.4968C21.1792 17.2431 21.3918 18.1014 21.4812 19.0442C21.5677 19.9568 20.8194 20.6496 19.9834 20.6496H5.69214C4.85608 20.6496 4.10784 19.9568 4.19433 19.0442C4.28368 18.1014 4.49631 17.2431 4.75514 16.4968ZM10.3166 14.3865C8.33035 14.3865 6.55812 15.2656 5.98337 16.9228C5.75313 17.5867 5.56663 18.3428 5.48853 19.1669C5.48429 19.2116 5.49809 19.2506 5.53134 19.285C5.56702 19.3218 5.62339 19.3496 5.69214 19.3496H19.9834C20.0521 19.3496 20.1085 19.3218 20.1442 19.285C20.1774 19.2506 20.1912 19.2116 20.187 19.1669C20.1089 18.3428 19.9224 17.5867 19.6922 16.9228C19.1174 15.2656 17.3452 14.3865 15.359 14.3865H10.3166Z" fill="currentColor"/>
</svg>
