<svg width="24" height="24" viewBox="0 0 25 24" fill="none" xmlns="http://www.w3.org/2000/svg">
    <path d="M17.302 7.47368C17.302 9.94443 15.3025 11.9474 12.8359 11.9474C10.3694 11.9474 8.36992 9.94443 8.36992 7.47368C8.36992 5.00294 10.3694 3 12.8359 3C15.3025 3 17.302 5.00294 17.302 7.47368Z" fill="currentColor"/>
    <path d="M5.36743 16.7102C6.06848 14.6888 8.17853 14 10.3147 14H15.3571C17.4934 14 19.6034 14.6888 20.3044 16.7102C20.549 17.4153 20.7485 18.2225 20.8323 19.1059C20.8789 19.5979 20.4749 20 19.9816 20H5.69031C5.19701 20 4.79298 19.5979 4.83961 19.1059C4.92333 18.2225 5.1229 17.4153 5.36743 16.7102Z" fill="currentColor"/>
    <path fill-rule="evenodd" clip-rule="evenodd" d="M12.836 3.25C10.508 3.25 8.62002 5.1406 8.62002 7.47368C8.62002 9.80677 10.508 11.6974 12.836 11.6974C15.1641 11.6974 17.0521 9.80677 17.0521 7.47368C17.0521 5.1406 15.1641 3.25 12.836 3.25ZM8.12002 7.47368C8.12002 4.86527 10.2311 2.75 12.836 2.75C15.441 2.75 17.5521 4.86527 17.5521 7.47368C17.5521 10.0821 15.441 12.1974 12.836 12.1974C10.2311 12.1974 8.12002 10.0821 8.12002 7.47368ZM10.3148 14.25C8.2078 14.25 6.24995 14.9288 5.60373 16.7921C5.3647 17.4813 5.17015 18.2689 5.08859 19.1295C5.0573 19.4597 5.32894 19.75 5.69041 19.75H19.9817C20.3431 19.75 20.6148 19.4597 20.5835 19.1295C20.5019 18.2689 20.3074 17.4813 20.0683 16.7921C19.4221 14.9288 17.4643 14.25 15.3572 14.25H10.3148ZM5.13133 16.6283C5.8872 14.4488 8.14945 13.75 10.3148 13.75H15.3572C17.5226 13.75 19.7849 14.4488 20.5407 16.6283C20.7908 17.3492 20.9954 18.1761 21.0813 19.0823C21.1432 19.7361 20.6068 20.25 19.9817 20.25H5.69041C5.06528 20.25 4.52887 19.7361 4.59082 19.0823C4.67671 18.1761 4.8813 17.3492 5.13133 16.6283Z" fill="currentColor"/>
</svg>
