<svg width="500" height="500" viewBox="0 0 500 500" fill="none" xmlns="http://www.w3.org/2000/svg">
    <g clip-path="url(#clip0_456_2881)">
        <mask id="path-1-inside-1_456_2881" fill="white">
            <path fill-rule="evenodd" clip-rule="evenodd" d="M295.934 327H496V496H3V327H204.066C208.65 305.847 227.474 290 250 290C272.526 290 291.35 305.847 295.934 327Z"/>
        </mask>
        <path fill-rule="evenodd" clip-rule="evenodd" d="M295.934 327H496V496H3V327H204.066C208.65 305.847 227.474 290 250 290C272.526 290 291.35 305.847 295.934 327Z" fill="currentColor"/>
        <path d="M295.934 327L294.957 327.212L295.127 328H295.934V327ZM496 327H497V326H496V327ZM496 496V497H497V496H496ZM3 496H2V497H3V496ZM3 327V326H2V327H3ZM204.066 327V328H204.873L205.043 327.212L204.066 327ZM295.934 328H496V326H295.934V328ZM495 327V496H497V327H495ZM496 495H3V497H496V495ZM4 496V327H2V496H4ZM3 328H204.066V326H3V328ZM205.043 327.212C209.529 306.509 227.955 291 250 291V289C226.994 289 207.77 305.184 203.089 326.788L205.043 327.212ZM250 291C272.045 291 290.471 306.509 294.957 327.212L296.911 326.788C292.23 305.184 273.006 289 250 289V291Z" fill="#F3E8D0" mask="url(#path-1-inside-1_456_2881)"/>
        <rect x="5" y="5" width="490" height="490" stroke="#F4E8D0" stroke-width="10"/>
        <g clip-path="url(#clip1_456_2881)">
            <path d="M269 326.609V322.234C269 321.4 268.525 320.682 267.837 320.313C267.878 320.043 267.906 319.771 267.906 319.5C267.906 317.716 267.044 316.134 265.719 315.135C265.719 315.132 265.719 315.128 265.719 315.125C265.719 312.11 263.265 309.656 260.25 309.656C259.59 309.656 258.938 309.783 258.325 310.014C258.229 309.417 258.012 308.839 257.673 308.323C256.352 306.306 253.635 305.74 251.619 307.059C251.618 307.059 251.618 307.059 251.618 307.059C251.618 307.059 251.617 307.059 251.617 307.058C250.93 306.016 249.843 305.326 248.616 305.135C247.752 304.463 246.267 304.683 244.757 305.675C244.365 303.795 243.38 302.547 242.203 302.547C241.026 302.547 240.039 303.796 239.649 305.675C238.041 304.619 236.461 304.435 235.633 305.271C235.287 305.614 235.104 306.098 235.103 306.671C235.101 307.866 235.894 309.404 237.173 310.683C237.434 310.943 237.706 311.176 237.982 311.392C236.876 312.484 236.188 313.998 236.188 315.672C236.188 316.595 236.396 318.233 236.738 320.047H236.188C234.981 320.047 234 321.028 234 322.234V326.609C234 327.266 234.297 327.849 234.756 328.25C234.297 328.651 234 329.234 234 329.891V334.266C234 335.472 234.981 336.453 236.188 336.453H266.812C268.019 336.453 269 335.472 269 334.266V329.891C269 329.234 268.703 328.651 268.244 328.25C268.703 327.849 269 327.266 269 326.609ZM266.812 319.5C266.812 319.682 266.799 319.864 266.775 320.047H263.502C263.479 319.764 263.443 319.482 263.382 319.197C263.145 318.117 262.652 317.159 261.982 316.368C261.997 315.963 261.957 315.558 261.86 315.165C262.051 315.14 262.243 315.125 262.438 315.125C264.85 315.125 266.812 317.088 266.812 319.5ZM255.275 315.397L255.386 315.902C255.441 316.157 255.668 316.332 255.919 316.332C255.958 316.332 255.997 316.328 256.037 316.319C256.332 316.255 256.519 315.963 256.454 315.668L256.343 315.16C259.096 314.841 261.708 316.665 262.313 319.429C262.358 319.636 262.388 319.841 262.409 320.047H251.53C251.745 317.911 253.228 316.07 255.275 315.397ZM264.57 314.464C263.914 314.186 263.193 314.031 262.438 314.031C262.108 314.031 261.783 314.072 261.462 314.13C261.403 314.02 261.339 313.912 261.271 313.807C260.58 312.757 259.457 312.06 258.226 311.881C258.288 311.655 258.326 311.425 258.351 311.193C258.941 310.908 259.59 310.75 260.25 310.75C262.437 310.75 264.249 312.365 264.57 314.464ZM250.701 307.656C250.783 307.782 250.862 307.929 250.95 308.117C251.023 308.273 251.166 308.385 251.334 308.42C251.503 308.455 251.678 308.409 251.807 308.294C251.916 308.198 252.061 308.075 252.215 307.976C252.951 307.494 253.827 307.327 254.684 307.507C255.54 307.685 256.277 308.188 256.758 308.923C257.385 309.877 257.463 311.113 256.963 312.147C256.88 312.32 256.892 312.524 256.998 312.684C257.103 312.845 257.287 312.951 257.476 312.932C258.626 312.888 259.719 313.439 260.355 314.406C260.363 314.419 260.368 314.432 260.376 314.445C260.193 314.52 260.017 314.608 259.842 314.703C258.681 314.135 257.349 313.906 255.995 314.111C255.656 313.398 255.128 312.789 254.447 312.352C254.193 312.188 253.855 312.263 253.691 312.517C253.528 312.771 253.602 313.11 253.856 313.273C254.294 313.554 254.636 313.936 254.888 314.375C254.059 314.655 253.308 315.092 252.669 315.651L249.611 310.987C249.446 310.734 249.106 310.663 248.854 310.829C248.601 310.995 248.531 311.333 248.696 311.586L251.89 316.456C251.068 317.464 250.541 318.709 250.429 320.047H247.668C248.01 318.233 248.219 316.595 248.219 315.672C248.219 313.998 247.531 312.484 246.424 311.392C246.7 311.176 246.972 310.943 247.233 310.683C248.512 309.404 249.306 307.866 249.303 306.671C249.303 306.598 249.292 306.53 249.286 306.459C249.857 306.713 250.35 307.123 250.701 307.656ZM248.003 306.047C248.14 306.183 248.209 306.394 248.21 306.673C248.211 307.574 247.524 308.844 246.46 309.909C246.167 310.202 245.862 310.451 245.552 310.677C245.227 310.459 244.88 310.272 244.514 310.119C244.785 309.332 244.938 308.417 244.938 307.469C244.938 307.269 244.93 307.086 244.92 306.91C246.301 305.846 247.577 305.618 248.003 306.047ZM242.203 303.641C242.836 303.641 243.629 304.812 243.809 306.71C243.832 306.939 243.844 307.187 243.844 307.469C243.844 308.312 243.708 309.115 243.47 309.793C243.061 309.705 242.638 309.656 242.203 309.656C241.768 309.656 241.345 309.705 240.936 309.793C240.698 309.115 240.562 308.312 240.562 307.469C240.562 307.187 240.574 306.939 240.598 306.705C240.777 304.812 241.57 303.641 242.203 303.641ZM237.947 309.909C236.882 308.844 236.195 307.574 236.197 306.673C236.197 306.394 236.267 306.183 236.406 306.044C236.83 305.617 238.105 305.846 239.487 306.91C239.476 307.086 239.469 307.269 239.469 307.469C239.469 308.417 239.621 309.332 239.892 310.119C239.527 310.272 239.179 310.459 238.855 310.677C238.545 310.451 238.239 310.202 237.947 309.909ZM237.281 315.672H240.016C240.318 315.672 240.562 315.427 240.562 315.125C240.562 314.823 240.318 314.578 240.016 314.578H237.408C237.907 312.389 239.866 310.75 242.203 310.75C244.917 310.75 247.125 312.958 247.125 315.672C247.125 316.177 247.05 316.952 246.922 317.859H242.203C241.901 317.859 241.656 318.104 241.656 318.406C241.656 318.709 241.901 318.953 242.203 318.953H246.753C246.693 319.309 246.625 319.675 246.554 320.047H237.852C237.504 318.237 237.281 316.552 237.281 315.672ZM267.906 329.891V334.266C267.906 334.869 267.415 335.359 266.812 335.359H236.188C235.584 335.359 235.094 334.869 235.094 334.266V329.891C235.094 329.288 235.584 328.797 236.188 328.797H266.812C267.415 328.797 267.906 329.288 267.906 329.891ZM236.188 327.703C235.584 327.703 235.094 327.212 235.094 326.609V322.234C235.094 321.631 235.584 321.141 236.188 321.141H266.812C267.415 321.141 267.906 321.631 267.906 322.234V326.609C267.906 327.212 267.415 327.703 266.812 327.703H236.188Z" fill="#F3E8D0"/>
            <path d="M237.828 323.328C238.13 323.328 238.375 323.083 238.375 322.781C238.375 322.479 238.13 322.234 237.828 322.234C237.526 322.234 237.281 322.479 237.281 322.781C237.281 323.083 237.526 323.328 237.828 323.328Z" fill="#F3E8D0"/>
            <path d="M237.828 326.609C238.13 326.609 238.375 326.365 238.375 326.062C238.375 325.76 238.13 325.516 237.828 325.516C237.526 325.516 237.281 325.76 237.281 326.062C237.281 326.365 237.526 326.609 237.828 326.609Z" fill="#F3E8D0"/>
            <path d="M237.828 330.984C238.13 330.984 238.375 330.74 238.375 330.438C238.375 330.135 238.13 329.891 237.828 329.891C237.526 329.891 237.281 330.135 237.281 330.438C237.281 330.74 237.526 330.984 237.828 330.984Z" fill="#F3E8D0"/>
            <path d="M237.828 334.266C238.13 334.266 238.375 334.021 238.375 333.719C238.375 333.417 238.13 333.172 237.828 333.172C237.526 333.172 237.281 333.417 237.281 333.719C237.281 334.021 237.526 334.266 237.828 334.266Z" fill="#F3E8D0"/>
            <path d="M265.719 323.328C266.021 323.328 266.266 323.083 266.266 322.781C266.266 322.479 266.021 322.234 265.719 322.234C265.417 322.234 265.172 322.479 265.172 322.781C265.172 323.083 265.417 323.328 265.719 323.328Z" fill="#F3E8D0"/>
            <path d="M265.719 326.609C266.021 326.609 266.266 326.365 266.266 326.062C266.266 325.76 266.021 325.516 265.719 325.516C265.417 325.516 265.172 325.76 265.172 326.062C265.172 326.365 265.417 326.609 265.719 326.609Z" fill="#F3E8D0"/>
            <path d="M265.719 330.984C266.021 330.984 266.266 330.74 266.266 330.438C266.266 330.135 266.021 329.891 265.719 329.891C265.417 329.891 265.172 330.135 265.172 330.438C265.172 330.74 265.417 330.984 265.719 330.984Z" fill="#F3E8D0"/>
            <path d="M265.719 334.266C266.021 334.266 266.266 334.021 266.266 333.719C266.266 333.417 266.021 333.172 265.719 333.172C265.417 333.172 265.172 333.417 265.172 333.719C265.172 334.021 265.417 334.266 265.719 334.266Z" fill="#F3E8D0"/>
            <path d="M242.203 315.672H242.75C243.052 315.672 243.297 315.427 243.297 315.125C243.297 314.823 243.052 314.578 242.75 314.578H242.203C241.901 314.578 241.656 314.823 241.656 315.125C241.656 315.427 241.901 315.672 242.203 315.672Z" fill="#F3E8D0"/>
        </g>
        <path d="M18 333V481H480V333" stroke="#F3E8D0"/>
        <circle cx="18" cy="335" r="3" fill="#F3E8D0"/>
        <circle cx="480" cy="335" r="3" fill="#F3E8D0"/>
    </g>
    <defs>
        <clipPath id="clip0_456_2881">
            <rect width="500" height="500" fill="white"/>
        </clipPath>
        <clipPath id="clip1_456_2881">
            <rect width="35" height="35" fill="white" transform="translate(234 302)"/>
        </clipPath>
    </defs>
</svg>
