<svg width="500" height="500" viewBox="0 0 500 500" fill="none" xmlns="http://www.w3.org/2000/svg">
    <path d="M448.708 192.167C448.857 191.674 448.956 191.274 449.164 190.558C449.927 191.073 450.324 191.337 450.839 191.68C451.315 191.377 451.651 191.159 452.028 190.913C451.542 190.65 451.176 190.449 450.324 189.98C453.386 189.854 451.156 188.652 451.949 187.891C452.573 187.868 453.148 187.839 454 187.805C453.703 187.078 453.415 186.396 453.128 185.721C452.92 185.721 452.722 185.721 452.514 185.721C452.107 186.276 451.691 186.832 451.265 187.41C450.492 187.501 449.729 187.593 448.837 187.702C449.164 186.866 449.442 186.202 449.729 185.475C450.69 185.171 451.701 184.851 452.86 184.479C452.484 184.118 452.117 183.769 451.671 183.345V180.678C451.433 180.666 451.206 180.649 450.978 180.638C450.651 181.245 450.324 181.857 449.977 182.51C449.551 182.401 449.025 182.321 449.025 182.263C449.224 180.809 450.106 179.384 449.471 177.896C449.442 177.81 449.65 177.69 449.729 177.592C450.294 177.61 450.879 177.621 451.572 177.644C451.186 176.282 450.839 175.074 450.452 173.757C449.818 173.786 449.045 173.814 448.421 173.843C447.926 172.967 447.48 172.2 447.083 171.502C447.618 171.044 448.124 170.614 448.758 170.065C449.154 170.517 449.442 170.849 449.719 171.175C449.739 170.271 448.728 169.47 448.916 168.8C449.412 167.048 448.371 165.422 447.995 163.78C447.222 160.471 445.924 157.179 444.388 153.962C442.158 149.308 439.602 144.717 436.976 140.138C436.223 138.804 434.736 137.625 433.587 136.388C433.131 135.398 432.655 134.373 432.199 133.383C431.238 133.561 430.703 133.658 429.97 133.795C430.455 132.421 430.842 131.237 429.088 130.269C428.295 130.229 427.482 130.183 427.007 130.16C426.769 129.033 426.561 128.077 426.353 127.167C425.213 127.333 424.351 127.458 423.489 127.579C423.261 127.373 423.023 127.161 422.795 126.955C423.588 126.772 424.391 126.588 424.956 126.457C421.022 121.007 415.532 116.462 410.21 111.997C408.992 111.888 408.09 111.808 407.188 111.728C407.168 111.636 407.148 111.539 407.129 111.447C407.713 111.287 408.288 111.121 408.863 110.967C406.276 108.711 401.877 106.25 399.815 105.752C399.459 105.013 399.469 104.292 398.864 103.994C397.962 103.548 396.793 103.525 395.842 104.286C395.485 104.567 394.345 104.51 393.582 104.607C393.127 104.04 392.819 103.651 392.542 103.302C393.117 102.666 393.622 102.117 394.098 101.596C391.442 98.8825 376.33 91.1431 374.041 90.9199C370.93 89.4545 368.631 88.1894 366.015 87.1933C359.692 84.8006 353.291 82.4536 346.771 80.2497C342.678 78.8587 338.367 77.6795 334.047 76.5632C330.559 75.6588 326.882 75.0291 323.315 74.2162C320.957 73.6724 318.697 72.9683 316.329 72.4302C315.199 72.1726 313.941 72.1154 312.613 71.9494C307.311 70.2034 301.039 69.8085 295.143 68.8239C288.394 67.6962 281.537 66.6658 273.738 66.7059C273.659 66.6772 273.223 66.4941 272.787 66.3109C270.815 66.3681 268.992 65.9102 267.188 65.9331C265.256 65.956 263.403 66.1792 261.758 65.4293C261.015 65.7098 260.41 65.9331 259.974 66.0991C258.825 65.6984 257.864 65.3664 256.803 65C256.496 65.5209 256.318 65.8071 256.08 66.2078C251.789 64.4104 247.29 65.229 242.068 65.5324C240.938 65.2232 231.534 65.498 229.156 66.1449C227.63 65.5667 226.322 65.7842 225.321 66.5799C221.843 65.2004 218.652 67.4271 215.233 66.62C214.936 67.0035 214.629 67.3871 214.203 67.9366C212.647 67.6332 211.19 67.347 209.664 67.0436C209.526 67.8507 209.417 68.5319 209.278 69.3391C206.672 68.5892 204.194 68.0225 201.39 68.1369C200.865 68.5033 200.33 68.8697 199.795 69.236C200.131 69.631 200.449 69.9916 200.865 70.4725C199.676 70.3923 198.794 70.3294 198.021 70.2779C197.733 69.8428 197.505 69.5222 197.317 69.2303C195.91 69.3677 194.701 69.4822 194.126 69.5337C193.056 70.1405 192.372 70.5297 191.679 70.919C190.777 70.5526 190.123 70.2893 189.429 70.0031C189.182 70.4038 189.013 70.6614 188.894 70.856C184.812 70.4897 181.621 71.6803 178.499 72.3215C178.232 73.0255 178.053 73.4778 177.766 74.2277C176.993 73.598 176.527 73.2202 175.962 72.7565C174.991 73.037 174.159 73.2774 173.396 73.5007V74.7142C172.346 74.4853 171.473 74.2964 170.562 74.096C170.106 74.4566 169.729 74.7486 169.274 75.1035C167.094 74.2964 165.716 75.3096 164.101 75.8591C163.923 76.5346 163.784 77.1528 163.605 77.8455C162.932 77.771 162.357 77.7882 161.96 77.6394C161.534 77.4734 161.287 77.1528 160.841 76.8094C160.127 77.3646 159.622 77.7539 159.176 78.0916C155.182 77.8226 152.497 79.1449 150.109 80.1066C148.672 80.3985 147.691 80.5932 146.641 80.805C146.977 81.3144 147.166 81.5949 147.394 81.9384C146.829 82.0872 146.284 82.2303 145.759 82.3734C145.461 82.1101 145.224 81.9098 144.827 81.5548C143.757 82.0357 142.756 82.4879 141.626 83.0031C141.488 82.9688 141.012 82.8428 140.566 82.7226C139.684 83.0031 138.842 83.2722 137.98 83.5526C138.178 83.9018 138.366 84.2338 138.594 84.6174C137.722 85.081 136.919 85.5104 136.117 85.934C135.958 85.8538 135.81 85.7737 135.661 85.6936C135.8 85.3157 135.938 84.9322 136.077 84.5544C135.919 84.4685 135.77 84.3884 135.602 84.3025C134.69 84.6861 133.768 85.0753 132.658 85.5333C133.501 85.7508 133.957 85.8653 134.888 86.1057C133.848 86.3232 133.243 86.4549 132.649 86.5808C132.54 87.0044 132.44 87.4051 132.331 87.8917C131.648 87.6284 131.212 87.4567 130.627 87.2277C129.151 88.3268 127.743 89.546 124.364 89.2598C125.256 90.2101 125.9 90.8913 126.515 91.5381C125.692 91.9503 124.919 92.3338 124.077 92.7574C123.393 92.4998 122.69 92.2365 121.857 91.9217C121.639 92.3395 121.451 92.7288 121.173 93.2497C120.192 92.8719 119.37 92.5513 118.538 92.2308C117.18 92.9177 120.242 94.4118 117.021 94.7781C117.061 94.4747 117.091 94.2572 117.18 93.6103C115.624 94.7495 114.455 95.6139 113.256 96.4954C113.603 96.6271 113.989 96.7816 114.584 97.0106C113.821 97.3884 113.186 97.6975 112.572 97.9952C112.741 99.5522 111.383 100.577 108.192 101.292C107.746 100.812 107.3 100.331 106.567 99.5351C106.141 100.468 105.873 101.046 105.665 101.481C106.349 102.168 106.864 102.706 107.37 103.216C105.606 103.118 104.228 103.044 102.683 102.958C102.95 103.697 103.148 104.235 103.267 104.572C102.752 105.185 102.256 105.591 102.078 106.038C101.85 106.553 101.9 107.103 101.83 107.738C101.206 107.423 100.849 107.246 100.433 107.034C99.2638 109.301 97.9525 110.49 96.4991 110.6C95.5676 110.377 98.1143 109.358 95.6171 109.473C95.0523 110.016 94.4478 110.595 93.5956 111.407C93.011 111.03 92.5353 110.715 92.0498 110.394C92.6047 110.64 93.1497 110.892 93.6947 111.138C94.1605 110.051 94.6163 108.969 94.9532 108.15C94.9829 108.15 95.0127 108.139 95.0325 108.139C94.9631 108.139 94.7649 108.173 94.5568 108.219C94.0118 108.345 93.4866 108.488 92.8623 108.643C92.6939 108.167 92.5948 107.847 92.5155 107.624C89.6021 109.232 86.7185 110.829 83.9439 112.363C83.8547 113.067 83.7853 113.634 83.716 114.212C81.6945 114.527 80.2477 115.019 80.3369 116.405C80.3567 116.737 79.6135 117.109 79.1477 117.429C77.9487 118.271 76.6902 119.089 75.7686 119.696C76.8983 120.99 77.7406 121.969 78.6622 123.022C76.9974 123.595 77.7208 125.197 75.0155 125.249C75.5903 124.367 76.1056 123.577 76.6506 122.742C75.8876 122.507 75.2335 122.312 74.4804 122.083C73.7174 122.392 72.9346 122.707 72.0031 123.085C72.4094 123.497 72.7364 123.841 72.9841 124.093C72.449 124.591 72.0427 125.386 71.4878 125.421C69.0699 125.575 69.8825 126.594 69.7933 127.058C68.7726 127.773 68.0492 128.289 67.6033 128.598C67.851 129.765 68.0393 130.613 68.2474 131.517C67.2763 131.437 66.6421 131.385 65.8394 131.317C65.453 131.763 65.0764 132.193 64.69 132.645C65.4332 133.189 66.0773 133.658 66.7214 134.127C66.6322 134.202 66.543 134.276 66.4637 134.351C65.7403 134.202 65.017 134.053 64.0657 133.853C62.3117 135.547 61.1127 137.276 61.1226 139.342C58.9524 141.014 56.7724 142.794 57.6939 145.118C56.9904 145.942 56.3462 146.681 55.7021 147.414C55.8904 147.54 56.0688 147.671 56.2571 147.797C57.5552 147.602 58.8632 147.408 60.1614 147.208C59.983 147.099 59.8145 146.984 59.6263 146.87C59.9929 146.074 60.3595 145.284 60.855 144.225C60.7163 143.996 60.419 143.475 60.1118 142.937C60.6172 142.685 61.0136 142.491 61.3009 142.342C64.1251 142.582 64.244 144.105 65.3043 145.072C65.6611 145.404 64.8287 146.412 64.1053 146.853C63.5702 147.179 62.3117 147.082 61.0631 147.208C60.9937 147.299 60.6766 147.688 60.2902 148.163C60.9046 148.713 61.7667 149.285 62.1829 149.949C62.4009 150.287 61.7865 150.802 61.3901 151.518C60.3496 150.768 59.765 150.35 59.2794 149.995C58.5957 150.018 57.8822 150.047 56.9408 150.075C57.3768 149.6 57.6642 149.28 57.9516 148.965C57.0201 148.73 56.1679 148.507 55.4742 148.329C55.1076 149.228 54.7707 150.041 54.3049 151.169C55.385 150.739 55.8904 150.545 56.4255 150.327C57.1093 150.568 57.7038 150.78 58.0308 150.888V152.52C59.0911 152.806 60.9838 151.861 60.9244 153.384C58.8335 154.466 56.4255 152.617 54.0374 153.682C54.1464 154.283 54.2653 154.993 54.404 155.731C53.6806 155.851 53.096 155.943 52.5311 156.034C52.3924 156.401 52.2735 156.739 52.0555 157.334C52.7491 156.985 53.1158 156.807 53.5815 156.578C54.0473 156.985 54.513 157.385 54.8103 157.654C55.9598 157.855 56.8318 158.009 57.7038 158.164C57.4957 158.53 57.3768 158.771 57.248 159C58.1002 159.303 58.893 159.589 59.6857 159.876C59.6857 160.11 59.6857 160.339 59.6659 160.568C59.0119 160.728 58.3678 160.889 57.8525 161.015C58.0011 161.65 58.1002 162.148 58.2588 162.783C57.0498 162.245 56.158 161.85 54.7806 161.238C54.7112 162.051 54.6716 162.509 54.6319 162.967C54.8202 162.909 55.0085 162.846 55.385 162.726C55.6526 163.081 55.9301 163.43 56.3462 163.991C56.8417 163.614 57.1489 163.373 57.5354 163.07C58.1993 163.127 58.9821 163.196 60.0722 163.287C59.2992 164.008 62.2621 164.398 60.1614 165.325C57.9516 163.499 55.8706 166.688 53.4527 165.125C53.641 164.655 53.9184 163.94 54.186 163.23C53.6311 163.196 53.0861 163.161 52.541 163.127C52.541 163.03 52.541 162.938 52.541 162.841C51.7384 163.047 50.9357 163.247 49.6376 163.573C50.9754 163.774 51.7384 163.888 52.4915 164.003C51.9762 165.644 50.1925 166.613 47.1404 166.911C49.4989 168.874 46.5657 170.614 46.8035 172.566C47.0314 174.553 47.3287 176.562 45.9117 178.417C47.1107 178.703 47.9233 178.898 48.7259 179.086V179.527C47.844 179.665 46.972 179.796 45.8225 179.974V182.492C46.5459 182.773 47.3287 183.071 48.062 183.351C48.0125 183.62 47.9827 183.809 47.9332 184.061C47.2395 184.038 46.5558 184.015 45.6639 183.987C45.436 185.784 45.218 187.49 45 189.201C45.5351 189.488 46.09 189.78 46.7242 190.117C46.1693 190.558 45.6738 190.959 45.5054 191.102C45.5054 192.888 45.3865 194.405 45.5648 195.905C45.6738 196.838 46.8531 197.857 46.4567 198.647C45.2775 200.988 47.0909 203.169 46.9621 205.43C46.9224 206.105 47.4674 206.787 47.7449 207.456C48.2701 208.71 48.7953 209.964 49.3205 211.223C50.7772 214.738 52.1645 218.27 55.058 221.424C55.7021 221.309 56.049 221.246 56.6832 221.126C56.5444 222.042 56.4354 222.775 56.3066 223.622C56.9804 223.805 57.8128 224.028 58.6353 224.252C59.002 223.782 59.2695 223.445 59.5371 223.112C58.8038 223.084 58.0606 223.055 57.4165 223.032C56.0589 221.613 58.8533 221.212 59.0713 220.21C58.7047 220.079 58.2786 219.93 57.2579 219.575C58.8137 219.374 59.8244 219.237 60.7163 219.123C61.8757 219.798 62.4901 220.273 60.8649 220.857C60.4686 221 60.637 221.681 60.5379 222.116C61.2514 222.643 61.9847 223.175 62.7081 223.702C62.8369 223.525 62.9657 223.353 63.1936 223.055C63.8675 223.284 64.5116 223.507 65.3341 223.788C64.69 224.366 64.1945 224.807 63.6693 225.282C64.2044 225.935 64.6899 226.541 64.9773 226.896C64.3332 228.03 63.8377 228.888 63.2729 229.884C62.7576 228.997 62.3216 228.247 61.7766 227.326C61.1523 227.303 60.2902 227.274 59.9533 227.263C59.6362 228.293 59.3686 229.146 59.1308 229.902C61.1325 232.649 62.9063 235.42 65.126 238.065C67.2763 240.635 69.8924 243.079 72.3004 245.592C72.6274 245.644 73.0337 245.712 73.4003 245.77C73.5093 246.663 73.6084 247.487 73.7372 248.649C74.7975 247.762 75.4119 247.241 76.2542 246.542C76.8884 247.842 75.075 248.987 76.8686 250.023C78.137 249.588 79.3063 249.187 80.6242 248.735C81.1098 249.473 82.5665 249.817 81.7737 250.818C81.5161 251.15 82.1998 252.135 82.725 252.215C84.3898 252.478 84.5186 253.32 85.351 253.858C83.7655 254.31 82.3683 254.711 80.8026 255.157C81.6746 255.93 82.3683 256.537 83.0818 257.167C83.5574 256.869 83.8943 256.663 84.2511 256.44C85.0636 256.783 85.8465 257.104 86.7086 257.464C86.4708 258.237 86.223 258.998 85.9159 259.983C86.114 260.08 86.7185 260.39 87.432 260.75C87.4617 260.39 87.4815 260.161 87.5014 259.926C88.413 261.013 91.5444 261.552 89.4733 263.177C90.1075 263.137 90.5534 263.103 90.6426 263.097C91.5642 263.675 92.0795 264.208 92.8524 264.448C94.9334 265.095 96.0631 265.919 95.191 267.356C95.1316 267.453 95.31 267.596 95.3793 267.717C96.291 267.677 97.2324 267.642 98.5008 267.591C98.0449 268.341 97.7774 268.799 97.5396 269.194C98.808 269.892 99.9475 270.522 101.325 271.289H102.643C104 272.222 105.586 272.954 105.636 274.231C105.655 274.449 106.012 274.689 106.309 274.866C107.796 275.754 109.302 276.624 110.828 277.511C111.978 277.46 113.305 277.397 114.732 277.328C114.405 279.194 117.012 279.704 118.983 280.814C119.182 280.076 119.301 279.606 119.39 279.274C121.213 279.904 122.898 280.488 124.671 281.095C124.998 280.682 125.177 280.471 125.464 280.11C127.694 280.425 129.279 281.329 130.885 282.234C130.706 282.468 130.548 282.674 130.369 282.886C132.807 282.869 133.689 283.968 134.63 285.05C136.949 285.147 138.852 285.6 139.456 287.042C139.218 287.5 138.991 287.924 138.832 288.221C140.081 288.639 141.091 289.275 141.953 289.212C145.699 288.931 147.215 290.402 148.464 291.713C149.584 291.868 150.367 291.868 150.931 292.074C152.983 292.824 154.895 293.694 156.976 294.415C158.334 294.884 158.68 295.566 158.789 296.751C159.384 296.047 159.721 295.64 160.117 295.165C160.93 295.594 161.653 295.978 162.377 296.367C161.564 296.802 160.97 297.123 160.345 297.455C161.128 297.941 161.782 298.348 162.615 298.863C162.456 298.353 162.357 297.97 162.248 297.621C164.319 297.363 165.24 297.867 165.161 298.794C166.509 299.086 167.589 299.321 169.303 299.693C168.134 299.115 167.51 298.806 166.727 298.416C169.412 298.302 172.009 299.023 174.05 300.34C174.803 300.254 175.517 300.168 176.289 300.076C177.092 300.941 177.845 301.754 179.877 301.53C180.095 301.508 182.423 301.662 181.71 302.75H180.63C182.205 303.797 182.849 302.486 183.553 302.441C185.238 302.944 186.615 303.357 188.042 303.78C189.32 304.805 190.678 305.812 192.67 305.268C201.519 307.392 209.942 309.018 218.91 310.031C219.494 309.722 220.158 309.373 221.338 308.76C221.248 309.539 221.199 309.911 221.149 310.329C222.864 310.512 224.627 310.695 226.352 310.878C226.976 310.438 227.432 310.111 227.808 309.848C229.701 310.111 231.465 310.363 233.259 310.615C234.745 311.726 235.121 311.851 237.163 311.846C238.312 311.846 239.492 311.748 240.631 311.817C244.129 312.04 247.617 312.378 251.125 312.561C255.208 312.773 259.3 312.956 263.403 312.996C266.366 313.031 269.329 312.813 272.292 312.71C274.491 312.63 276.681 312.55 278.881 312.47C281.418 312.584 283.935 312.727 286.353 311.829C286.769 311.668 287.354 311.623 287.879 311.588C290.436 311.422 293.062 311.405 295.569 311.09C298.948 310.667 302.238 310.025 305.3 309.522V308.148C305.468 308.119 305.637 308.085 305.805 308.056C306.192 308.434 306.578 308.818 307.074 309.31C308.867 309.047 310.72 308.778 312.306 308.543C312.92 307.535 313.386 306.751 313.861 305.967C313.663 305.91 313.307 305.812 312.92 305.698C313.267 305.28 313.544 304.948 313.842 304.593C316.19 304.662 318.459 304.725 320.6 304.782C322.047 306.299 322.968 306.471 324.901 305.721C325.594 305.452 326.288 305.183 327.031 304.977C328.527 304.564 330.034 304.192 331.55 303.809C331.877 303.568 332.481 303.671 332.887 303.551C338.278 301.96 343.768 300.466 348.98 298.685C353.132 297.266 356.997 295.543 360.882 293.871C362.883 293.018 364.568 291.914 366.579 291.066C368.601 290.225 369.849 289.257 369.651 287.746C369.631 287.603 369.899 287.443 370.117 287.208C370.91 287.512 371.603 287.775 372.456 288.101C373.466 287.58 374.418 287.088 375.359 286.601C375.23 286.012 375.131 285.537 374.983 284.855C375.755 285.147 376.241 285.325 376.846 285.548C378.094 284.89 379.472 284.266 380.661 283.539C385.972 280.247 391.392 277.002 396.466 273.59C400.311 271.002 404.037 268.318 407.208 265.438C411.241 261.769 416.126 258.403 419.159 254.35C419.377 254.07 419.852 253.858 420.12 253.583C421.824 251.82 423.737 250.097 425.154 248.254C427.938 244.619 430.208 240.847 433.141 237.257C436.123 233.594 439.195 229.953 441.148 226.055C442.129 224.103 443.942 222.237 443.536 220.142C443.883 219.964 444.19 219.81 444.556 219.621C443.407 219.317 442.505 219.025 443.367 218.27C443.922 218.293 444.368 218.315 444.834 218.338C444.646 217.48 444.507 216.77 444.348 216.02C445.22 215.843 445.993 215.688 446.35 215.614C447.41 213.587 448.461 211.795 449.263 209.969C449.897 208.51 451.384 206.93 448.421 205.659C448.193 205.562 448.381 205.121 448.381 204.777C449.253 204.989 449.858 205.138 450.898 205.396C450.621 204.709 450.443 204.308 450.343 204.073C450.779 203.444 451.146 202.951 451.483 202.448C452.94 200.169 451.969 197.799 452.028 195.481C452.058 194.153 451.453 192.733 448.778 192.155L448.708 192.167ZM61.628 160.763C60.6866 160.379 60.0226 160.259 59.8938 160.036C59.2398 158.891 59.3389 157.729 59.8938 156.441C60.7559 156.613 61.4298 156.75 62.2423 156.91C62.0441 158.164 61.8658 159.315 61.6379 160.763H61.628ZM68.9213 132.29C69.169 131.717 69.4266 131.145 69.7239 130.469C70.2293 130.275 70.9527 130.006 71.5572 129.777C72.1022 130.498 72.5085 131.042 73.0138 131.706C71.9436 132.507 70.5794 132.702 68.9213 132.29ZM170.056 251.62L169.997 251.591C169.997 251.591 170.047 251.591 170.076 251.591C170.076 251.603 170.076 251.614 170.056 251.62ZM315.397 304.347C313.941 303.528 312.117 304.582 310.651 304.003C310.423 303.912 310.344 303.7 310.235 303.586C311.206 302.939 312.117 302.332 313.247 301.582C314.317 302.383 315.358 303.156 316.478 303.986C315.893 304.187 315.457 304.381 315.387 304.347H315.397Z" fill="currentColor"/>
    <path d="M91.2057 121.275C90.2428 122.216 89.0153 122.444 87.5234 121.961C87.7463 121.289 87.9781 120.617 88.2456 119.824C88.7003 119.596 89.3512 119.28 89.895 119.012C90.3854 119.858 90.751 120.496 91.2057 121.275Z" fill="currentColor"/>
    <path d="M81.4951 150.85C81.3168 152.321 81.1563 153.671 80.9513 155.37C80.1043 154.92 79.5069 154.779 79.391 154.517C78.8026 153.174 78.8917 151.81 79.391 150.299C80.1667 150.5 80.773 150.662 81.504 150.85H81.4951Z" fill="currentColor"/>
    <path d="M142.775 298.728C142.775 298.728 142.793 298.694 142.811 298.674C142.775 298.674 142.739 298.674 142.703 298.674L142.784 298.735L142.775 298.728Z" fill="currentColor"/>
    <path d="M135.514 264.07C132.971 262.824 130.945 263.727 129.316 264.456C127.807 265.13 126.966 265.456 125.809 264.889C124.652 264.322 124.4 263.46 124.008 261.854C123.586 260.121 123.058 257.966 120.516 256.72C117.973 255.474 115.944 256.383 114.318 257.106C112.809 257.78 111.967 258.106 110.816 257.542C109.665 256.978 109.407 256.113 109.015 254.507C108.593 252.774 108.066 250.619 105.523 249.373C102.98 248.127 100.951 249.036 99.3254 249.759C97.8163 250.432 96.9746 250.759 95.8236 250.195C95.0333 249.807 94.0833 250.137 93.6988 250.922C93.3143 251.706 93.6414 252.662 94.426 253.046C96.9686 254.293 98.9978 253.384 100.623 252.66C102.133 251.987 102.974 251.661 104.125 252.225C105.276 252.789 105.534 253.654 105.926 255.259C106.348 256.993 106.876 259.148 109.419 260.394C111.961 261.64 113.99 260.731 115.61 260.005C117.12 259.331 117.961 259.005 119.112 259.569C120.263 260.133 120.521 260.998 120.913 262.604C121.335 264.337 121.863 266.492 124.405 267.738C126.948 268.984 128.975 268.081 130.603 267.352C132.112 266.678 132.954 266.352 134.111 266.919C135.267 267.486 135.525 268.351 135.917 269.957C136.339 271.69 136.867 273.845 139.41 275.091C140.2 275.478 141.15 275.148 141.534 274.364C141.919 273.579 141.592 272.624 140.807 272.239C139.65 271.672 139.392 270.807 139 269.202C138.579 267.468 138.051 265.313 135.508 264.067L135.514 264.07Z" fill="#EFDEB9"/>
    <path d="M130.802 104.857C128.332 106.242 127.924 108.422 127.598 110.177C127.295 111.801 127.085 112.679 125.962 113.309C124.838 113.939 123.985 113.656 122.441 113.067C120.775 112.429 118.702 111.639 116.232 113.023C113.762 114.408 113.357 116.594 113.028 118.343C112.725 119.967 112.515 120.845 111.397 121.472C110.279 122.099 109.421 121.819 107.877 121.23C106.21 120.592 104.137 119.802 101.667 121.186C99.1971 122.571 98.7921 124.757 98.4635 126.505C98.1605 128.13 97.9507 129.008 96.8325 129.635C96.0648 130.065 95.7965 131.034 96.2236 131.796C96.6508 132.559 97.6231 132.832 98.3853 132.405C100.855 131.021 101.26 128.835 101.589 127.086C101.892 125.461 102.102 124.583 103.22 123.957C104.338 123.33 105.196 123.609 106.74 124.199C108.407 124.837 110.48 125.627 112.95 124.242C115.42 122.858 115.825 120.672 116.148 118.926C116.451 117.301 116.661 116.424 117.779 115.797C118.897 115.17 119.756 115.449 121.3 116.039C122.966 116.677 125.039 117.467 127.509 116.083C129.979 114.698 130.387 112.517 130.713 110.763C131.016 109.139 131.225 108.261 132.349 107.631C133.473 107.001 134.331 107.28 135.875 107.87C137.541 108.508 139.615 109.298 142.085 107.913C142.852 107.483 143.121 106.514 142.694 105.752C142.266 104.99 141.294 104.716 140.532 105.143C139.408 105.773 138.55 105.493 137.006 104.904C135.34 104.266 133.266 103.476 130.796 104.86L130.802 104.857Z" fill="#EFDEB9"/>
    <path d="M178.536 261.951C178.536 261.951 178.536 261.978 178.518 261.985L178.465 261.951C178.465 261.951 178.509 261.951 178.536 261.951Z" fill="currentColor"/>
    <path d="M182.158 115.626C194.221 111.052 200.348 97.418 195.842 85.1726C191.337 72.9273 177.905 66.708 165.842 71.2815C153.779 75.855 147.652 89.4893 152.158 101.735C156.663 113.98 170.095 120.199 182.158 115.626Z" fill="#68A684"/>
    <path d="M186.274 96.2511C179.198 107.174 164.737 110.203 153.977 103.021C153.332 102.588 152.714 102.127 152.123 101.643C153.785 106.233 156.856 110.342 161.19 113.237C171.95 120.42 186.407 117.39 193.486 106.467C200.136 96.2035 197.898 82.6204 188.675 75.0605C191.139 81.866 190.506 89.7276 186.277 96.2511H186.274Z" fill="#5A9373"/>
    <path d="M194.64 86.4164C194.679 86.4164 193.901 86.4164 193.756 86.5037C193.834 86.2814 194.12 85.2094 194.108 85.0108C194.073 84.5145 193.65 84.1611 193.216 84.2723C193.29 84.0897 193.369 83.907 193.455 83.7165C193.709 83.1646 193.091 82.7357 192.625 82.7754L191.957 82.839L192.113 82.5054C192.32 82.0608 191.878 81.5843 191.468 81.5525C190.947 81.5089 190.431 81.4533 189.942 81.6756C190.654 81.35 190.318 80.3931 189.661 80.2939C189.23 80.2264 188.804 80.1629 188.374 80.0954C188.397 80.0358 188.421 79.9802 188.444 79.9207C188.601 79.5395 188.319 79.1345 187.983 79.0035C187.31 78.7335 185.511 79.2218 185.996 78.1498C186.258 77.5661 185.503 76.9984 184.994 77.2723C184.795 77.3637 184.595 77.451 184.392 77.5423C184.603 77.0619 184.052 76.4465 183.563 76.6013C183.406 76.6529 183.254 76.6966 183.101 76.7363C183.289 76.2916 183.015 75.7159 182.495 75.708C181.924 75.696 181.357 75.6881 180.786 75.6762C180.825 75.2871 180.586 74.8781 180.132 74.8622C179.808 74.8503 177.484 74.9933 177.672 74.5922C177.868 74.1753 177.445 73.6354 177.027 73.6393C176.522 73.6433 176.327 73.6711 175.881 73.818C175.806 73.8418 174.023 74.7114 174.148 74.4175C174.332 73.9967 173.933 73.4607 173.503 73.4646C173.088 73.4646 171.187 73.6909 171.175 74.2309C171.187 73.5758 170.475 73.2661 169.982 73.6433C169.673 73.8815 169.364 74.1158 169.055 74.354C169.024 74.2349 168.993 74.1118 168.958 73.9927C168.825 73.4924 168.191 73.1867 167.78 73.5917C167.358 74.0086 166.231 74.8146 166.427 75.565C166.294 75.0449 165.668 74.7828 165.25 75.164C164.901 75.4816 164.553 75.7993 164.201 76.1169C164.103 75.6365 163.372 75.4022 163.04 75.7715C162.75 76.0971 162.457 76.4226 162.167 76.7443C162.136 76.5696 162.105 76.3949 162.073 76.2201C161.964 75.6325 161.072 75.4022 160.771 75.966L160.286 76.8753C160.286 76.8515 160.278 76.8276 160.274 76.8078C160.184 76.1765 159.292 76.0375 158.972 76.5537C158.897 76.6768 158.819 76.7959 158.745 76.919C158.44 76.7443 158.009 76.776 157.779 77.1254C157.611 77.3795 157.442 77.6376 157.274 77.8917C157.145 77.7011 156.914 77.6138 156.676 77.6217C155.995 78.392 155.361 79.2218 154.771 80.0954C154.771 80.1073 154.771 80.1192 154.775 80.1351C154.786 80.2383 154.83 80.3217 154.88 80.4011C154.88 80.4011 154.88 80.4011 154.88 80.4051C154.681 81.1436 153.058 85.2491 154.219 86.059C153.992 87.2303 153.809 88.4016 153.672 89.5888C153.625 90.0137 154.024 90.367 154.423 90.3512C154.266 91.3914 154.208 92.4238 154.266 93.5117C154.298 94.0675 154.798 94.3852 155.236 94.2184C155.264 94.7663 155.287 95.3103 155.315 95.8582C155.342 96.4379 155.862 96.7357 156.304 96.5491C156.402 97.4028 156.5 98.2564 156.594 99.114C156.652 99.6262 157.423 99.9161 157.771 99.5151L157.9 99.3682C158.009 100.166 158.166 100.956 158.385 101.75C158.506 102.191 158.987 102.465 159.39 102.271C159.648 103.12 159.91 103.97 160.169 104.824C160.337 105.368 161.139 105.681 161.471 105.078C161.565 104.907 161.659 104.736 161.757 104.566C162.167 105.415 162.574 106.265 162.985 107.111C163.216 107.587 163.955 107.674 164.229 107.186C164.244 107.162 164.252 107.142 164.268 107.119C164.729 107.853 165.191 108.584 165.652 109.318C165.95 109.791 166.83 109.91 166.982 109.219C167.002 109.132 167.021 109.04 167.041 108.953C167.499 109.529 167.925 110.128 168.324 110.775C168.641 111.292 169.446 111.327 169.654 110.676C169.685 110.589 169.709 110.501 169.736 110.414C170.237 110.93 170.733 111.45 171.234 111.967C171.574 112.32 172.29 112.288 172.443 111.748C172.869 112.181 173.323 112.586 173.819 112.967C174.211 113.269 174.668 113.019 174.852 112.638C175.192 112.923 175.572 113.162 176.025 113.384C176.444 113.59 177.058 113.444 177.125 112.915C177.574 113.197 178.059 113.416 178.642 113.587C179.092 113.718 179.503 113.416 179.565 112.987C180.129 113.241 180.707 113.452 181.333 113.618C181.744 113.729 182.292 113.459 182.272 112.963C182.272 112.915 182.272 112.868 182.268 112.82C182.569 112.935 182.882 113.035 183.238 113.114C183.567 113.189 183.907 113.07 184.075 112.8C184.365 112.884 184.662 112.947 184.99 112.991C185.382 113.043 185.722 112.669 185.745 112.3C185.73 112.518 187.118 112.749 187.486 112.78C187.775 112.574 188.057 112.36 188.335 112.141C188.346 112.109 188.362 112.074 188.374 112.046L188.44 112.058C188.839 111.74 189.23 111.411 189.614 111.061C189.614 110.994 189.618 110.926 189.621 110.859C189.692 110.863 189.758 110.859 189.829 110.859C191.006 109.755 192.09 108.504 193.048 107.127C192.848 107.182 192.633 107.23 192.512 107.309C191.706 107.825 192.344 108.671 190.732 108.437C190.279 108.369 189.887 108.885 189.989 109.314C189.711 109.306 189.43 109.298 189.152 109.29C188.718 109.14 188.229 109.481 188.213 109.946L188.194 110.541C188.045 110.513 187.897 110.486 187.744 110.462C187.298 110.382 186.989 110.847 186.997 111.244C186.062 111.041 184.998 110.609 184.537 111.379C184.267 111.299 183.993 111.22 183.723 111.141C183.316 110.938 182.851 111.109 182.679 111.454C182.409 111.343 182.151 111.204 181.904 111.033C181.474 110.775 180.77 111.018 180.79 111.605C180.79 111.712 180.797 111.824 180.801 111.931C180.218 111.72 179.683 111.466 179.065 111.101C178.548 110.791 177.93 111.184 177.966 111.772C177.668 111.597 177.391 111.387 177.132 111.125C176.741 110.763 176.088 110.807 175.908 111.383C175.889 111.45 175.869 111.51 175.849 111.566C175.513 111.296 175.216 110.986 174.934 110.597C174.543 110.061 173.827 110.438 173.698 110.97C173.311 110.597 172.959 110.208 172.591 109.739C172.267 109.33 171.484 109.453 171.367 109.997V110.021C170.87 109.509 170.377 109.001 169.885 108.488C169.548 108.139 168.797 108.159 168.668 108.723C168.214 108.091 167.729 107.488 167.193 106.904C166.853 106.535 166.114 106.59 165.977 107.142C165.562 106.483 165.148 105.82 164.729 105.161C164.432 104.685 163.877 104.669 163.568 105.006C163.192 104.232 162.821 103.454 162.445 102.68C162.218 102.207 161.471 102.112 161.201 102.604C161.154 102.687 161.107 102.771 161.06 102.854C160.83 102.104 160.603 101.353 160.372 100.603C160.235 100.158 159.82 99.9677 159.465 100.067C159.312 99.2927 159.206 98.5185 159.159 97.7005C159.128 97.1645 158.428 96.5888 157.966 97.1129C157.92 97.1685 157.869 97.2241 157.822 97.2797C157.724 96.43 157.63 95.5763 157.532 94.7266C157.478 94.2502 157.043 94.1033 156.664 94.2025C156.637 93.607 156.609 93.0154 156.582 92.4198C156.558 91.9036 156.12 91.5979 155.71 91.6852C155.757 91.0142 155.85 90.3472 156.003 89.6523C156.112 89.16 155.768 88.6359 155.24 88.7074C155.381 87.679 155.545 86.6586 155.764 85.6382C155.905 84.991 155.361 84.5463 154.763 84.7607C155.459 84.5106 155.369 84.1095 155.612 83.2122C155.69 82.9224 155.768 82.6325 155.846 82.3427C155.921 82.3546 155.991 82.3546 156.066 82.3427C156.093 82.704 156.116 83.0653 156.144 83.4266C156.191 84.0857 156.801 84.3358 157.239 84.05C157.435 84.7448 157.634 85.4436 157.83 86.1385C157.963 86.6109 158.596 86.8571 158.968 86.6149C159.238 87.2621 159.511 87.9093 159.781 88.5565C159.973 89.0171 160.654 89.0647 160.967 88.7232C161.107 89.1084 161.252 89.4896 161.393 89.8747C161.569 90.3512 162.085 90.367 162.429 90.1288C162.676 90.6648 162.926 91.2008 163.173 91.7369C163.454 92.3404 164.358 92.2014 164.502 91.5979C164.749 92.1101 164.995 92.6223 165.242 93.1345C165.512 93.6943 166.329 93.6228 166.548 93.1106C166.814 93.5593 167.084 94.004 167.35 94.4527C167.675 94.9966 168.664 94.9649 168.707 94.2383C169.047 94.7386 169.388 95.2388 169.728 95.7351C170.021 96.164 170.6 96.0051 170.858 95.6359C171.379 96.4975 171.856 97.3789 172.286 98.3001C172.63 99.0386 173.839 98.6416 173.636 97.8276C173.616 97.7442 173.6 97.6648 173.581 97.5854C174.011 98.1611 174.441 98.7368 174.872 99.3165C175.208 99.7692 175.939 99.5627 176.096 99.0585C176.155 98.8718 176.213 98.6852 176.272 98.5026C177.031 99.2173 177.735 99.9677 178.411 100.778C178.701 101.123 179.135 101.071 179.409 100.829C179.784 101.306 180.152 101.786 180.508 102.282C180.868 102.779 181.787 102.461 181.767 101.842C181.767 101.822 181.767 101.802 181.767 101.782C181.963 102.04 182.155 102.31 182.346 102.612C182.647 103.092 183.301 103.108 183.578 102.691C183.778 102.93 183.977 103.164 184.177 103.402C184.533 103.823 185.053 103.668 185.295 103.295C185.526 103.577 185.753 103.855 185.984 104.137C186.348 104.581 187.193 104.355 187.232 103.76C187.552 104.069 187.869 104.383 188.19 104.693C188.55 105.042 189.023 105.002 189.332 104.613C189.359 104.581 189.379 104.55 189.402 104.518C189.766 104.8 190.099 105.125 190.388 105.503C190.818 105.991 191.538 105.689 191.636 105.094C192.05 105.455 192.465 105.82 192.88 106.182C193.095 106.368 193.369 106.348 193.592 106.221C193.592 106.257 193.592 106.289 193.588 106.324C194.014 105.657 194.405 104.974 194.757 104.284C194.378 104.065 194.014 103.807 193.65 103.493C193.189 103.096 192.688 103.537 192.575 104.01C192.211 103.692 191.847 103.374 191.483 103.057C191.073 102.695 190.533 103.073 190.4 103.509C190.11 103.267 189.801 103.041 189.457 102.819C189.105 102.592 188.726 102.711 188.511 102.993C188.088 102.58 187.662 102.167 187.239 101.754C186.88 101.405 186.258 101.441 186.05 101.933C185.796 101.623 185.542 101.31 185.288 101C184.936 100.567 184.4 100.742 184.153 101.131C183.981 100.929 183.809 100.722 183.637 100.52C183.34 100.17 182.866 100.23 182.593 100.508C182.264 100.107 181.916 99.7215 181.525 99.3443C181.157 98.991 180.406 99.0743 180.289 99.6143C179.945 99.1855 179.6 98.7607 179.241 98.3438C178.924 97.9785 178.439 98.0619 178.173 98.3596C177.582 97.7522 176.964 97.1685 176.315 96.6087C175.951 96.295 175.364 96.5888 175.235 96.9938C175.204 97.0891 175.177 97.1804 175.145 97.2757C174.48 96.3863 173.819 95.4969 173.154 94.6075C172.842 94.1906 172.227 94.3455 171.993 94.7425C171.649 94.1787 171.289 93.6268 170.901 93.0789C170.592 92.6421 169.99 92.8208 169.748 93.2139C169.388 92.6858 169.028 92.1577 168.672 91.6297C168.324 91.1175 167.698 91.4192 167.483 91.8639C167.178 91.3557 166.873 90.8435 166.568 90.3353C166.313 89.9104 165.711 89.839 165.402 90.1407C165.109 89.5293 164.811 88.9178 164.518 88.3063C164.24 87.7346 163.396 87.8259 163.2 88.3699C163.071 88.088 162.938 87.8061 162.809 87.5242C162.633 87.143 162.242 87.0636 161.921 87.1906C161.776 86.7976 161.628 86.4045 161.483 86.0074C161.291 85.4952 160.505 85.4952 160.235 85.9201C159.985 85.3205 159.734 84.721 159.484 84.1254C159.351 83.8038 158.968 83.6847 158.647 83.7601C158.483 83.1844 158.322 82.6087 158.158 82.033C158.045 81.6319 157.74 81.4572 157.435 81.4811C157.411 81.1674 157.391 80.8537 157.368 80.5401C157.368 80.4884 157.348 80.4448 157.337 80.3971C157.356 80.3733 157.376 80.3574 157.395 80.3296C157.556 80.0834 157.72 79.8373 157.88 79.5911C158.189 79.8015 158.655 79.7857 158.89 79.4085C158.976 79.2695 159.062 79.1345 159.148 78.9955C159.163 79.0908 159.175 79.1901 159.191 79.2854C159.277 79.8849 160.2 80.0914 160.493 79.5395C160.677 79.1941 160.861 78.8486 161.045 78.5032C161.174 78.9717 161.847 79.2576 162.206 78.8566C162.543 78.4833 162.879 78.1061 163.216 77.7329C163.439 78.1379 163.974 78.2808 164.334 77.9553C164.78 77.5503 165.222 77.1453 165.668 76.7443C166.302 76.9587 167.201 76.2241 167.898 75.5412C167.913 75.6008 167.929 75.6643 167.944 75.7238C168.089 76.2757 168.68 76.4624 169.122 76.1249L170.104 75.3705C170.663 75.8787 171.785 75.3466 172.685 75.0647C172.799 75.5015 173.111 75.8707 173.647 76.0613C174.602 76.3988 175.314 75.696 176.108 75.3109C176.346 76.2082 177.762 76.3154 178.908 76.3154C178.889 76.7046 179.17 77.0937 179.585 77.0976C180.172 77.1095 180.754 77.1175 181.341 77.1294C181.318 77.2167 181.294 77.312 181.263 77.4312C181.122 78.0029 181.544 78.4198 182.092 78.3722C182.397 78.3444 182.679 78.3047 182.956 78.253C183.172 78.6858 183.707 78.8764 184.298 78.8804C184.267 79.3132 184.361 79.734 184.705 80.0834C185.339 80.7306 186.039 80.3971 186.743 80.3058C186.723 80.3495 186.708 80.3931 186.688 80.4368C186.492 80.9093 186.915 81.3262 187.333 81.3897C187.717 81.4493 188.1 81.5089 188.483 81.5684C188.487 81.7391 188.526 81.9218 188.608 82.1044C188.925 82.8072 189.622 82.9422 190.322 82.97C190.247 83.1248 190.177 83.2837 190.103 83.4385C189.844 83.9904 190.466 84.4192 190.932 84.3795C191.178 84.3557 191.425 84.3319 191.671 84.312C191.569 84.6058 191.479 84.9076 191.397 85.2292C191.292 85.6501 191.55 86.194 192.043 86.1821C192.176 86.1821 192.297 86.1702 192.414 86.1543C192.242 86.6864 192.121 87.2184 192.543 87.7306C192.848 88.0999 193.114 88.1713 193.38 88.1316C193.009 89.029 192.727 90.0732 193.306 90.7085C193.615 91.05 193.924 91.1095 194.241 91.05C194.12 91.5542 194.073 92.0783 194.1 92.6977C194.112 92.9479 194.221 93.1623 194.386 93.2973C193.994 94.2343 193.697 95.3302 194.303 96.0131C194.499 96.2354 194.71 96.3506 194.929 96.3982C194.695 97.2281 194.049 97.9745 194.503 98.9115C194.632 99.1815 194.792 99.3721 194.972 99.5111C194.718 100.067 194.589 100.651 194.558 101.33C194.538 101.723 194.847 102.08 195.238 102.096H195.297C195.164 102.525 195.121 102.95 195.203 103.327C195.598 102.461 195.931 101.576 196.212 100.682C196.161 100.682 196.111 100.678 196.06 100.674C196.138 100.305 196.287 99.9637 196.513 99.654C196.596 99.3483 196.674 99.0386 196.744 98.7289C196.599 98.451 196.283 98.2524 195.95 98.3041C196.247 98.2564 196.47 95.8066 196.4 95.346C196.31 94.7465 195.633 94.6552 195.223 94.945C195.649 94.6472 196.071 93.063 196.283 92.6064C196.517 92.0982 196.013 91.6694 195.543 91.6773C195.626 91.185 195.809 90.7085 196.107 90.2479C196.42 89.696 195.993 89.025 195.36 89.1322C195.426 89.1203 194.663 89.2593 194.409 89.3943C194.616 88.9654 195.266 87.4249 195.297 87.3534C195.481 86.9127 195.078 86.4243 194.652 86.4005L194.64 86.4164Z" fill="#39765C"/>
    <path d="M195.283 87.3706C195.252 87.442 194.603 88.9826 194.395 89.4114C194.65 89.2764 195.412 89.1374 195.346 89.1494C195.979 89.0421 196.402 89.7132 196.093 90.2651C195.796 90.7256 195.608 91.2021 195.53 91.6944C195.999 91.6865 196.507 92.1153 196.269 92.6235C196.058 93.0801 195.635 94.6644 195.209 94.9622C195.62 94.6723 196.296 94.7636 196.386 95.3632C196.457 95.8238 196.234 98.2775 195.936 98.3212C196.265 98.2696 196.582 98.4681 196.727 98.7421C196.715 98.7977 196.703 98.8532 196.687 98.9088C196.629 99.1629 196.566 99.4171 196.496 99.6712C196.269 99.9848 196.12 100.326 196.042 100.692C196.093 100.692 196.144 100.696 196.195 100.7C196.062 101.116 195.917 101.533 195.76 101.946C195.741 101.998 195.721 102.053 195.698 102.105C195.557 102.47 195.404 102.836 195.244 103.197C195.225 103.245 195.205 103.292 195.182 103.336C195.099 102.963 195.142 102.538 195.275 102.113H195.217C194.826 102.093 194.517 101.736 194.536 101.343C194.571 100.66 194.7 100.08 194.951 99.5243C194.767 99.3893 194.61 99.1947 194.481 98.9247C194.028 97.9877 194.673 97.2452 194.908 96.4114C194.689 96.3637 194.477 96.2446 194.282 96.0263C193.676 95.3433 193.973 94.2475 194.364 93.3104C194.2 93.1715 194.09 92.961 194.079 92.7109C194.051 92.0915 194.094 91.5674 194.219 91.0631C193.903 91.1187 193.593 91.0631 193.284 90.7217C192.706 90.0864 192.987 89.0461 193.359 88.1448C193.093 88.1805 192.823 88.1131 192.522 87.7438C192.099 87.2316 192.221 86.6996 192.393 86.1675C192.275 86.1794 192.154 86.1913 192.021 86.1953C191.528 86.2072 191.27 85.6633 191.376 85.2424C191.458 84.9168 191.548 84.619 191.65 84.3252C191.403 84.349 191.157 84.3728 190.91 84.3927C190.597 84.4205 190.222 84.2378 190.081 83.944C190.085 83.7733 190.089 83.6026 190.089 83.4318C190.159 83.281 190.23 83.134 190.296 82.9832C190.23 82.9832 190.159 82.9752 190.093 82.9713C190.089 82.5266 190.069 82.0858 190.042 81.6411C190.496 81.4704 190.973 81.5141 191.45 81.5538C191.861 81.5856 192.303 82.062 192.095 82.5067L191.939 82.8402L192.608 82.7767C193.073 82.733 193.691 83.1618 193.437 83.7177C193.351 83.9043 193.273 84.0909 193.198 84.2736C193.633 84.1624 194.055 84.5158 194.09 85.0121C194.106 85.2106 193.82 86.2827 193.738 86.505C193.883 86.4216 194.661 86.4216 194.622 86.4176C195.052 86.4415 195.455 86.9298 195.268 87.3706H195.283ZM193.633 103.491C193.171 103.094 192.67 103.534 192.557 104.007C192.193 103.689 191.829 103.372 191.466 103.054C191.055 102.693 190.515 103.07 190.382 103.507C190.093 103.264 189.784 103.038 189.44 102.816C189.088 102.589 188.708 102.709 188.493 102.991C188.071 102.578 187.644 102.165 187.222 101.752C186.862 101.402 186.24 101.438 186.033 101.93C185.778 101.621 185.524 101.307 185.27 100.997C184.918 100.565 184.382 100.739 184.136 101.128C183.964 100.926 183.792 100.719 183.619 100.517C183.436 100.302 183.189 100.243 182.958 100.295C182.2 101.037 181.402 101.724 180.561 102.347C180.956 102.732 181.769 102.427 181.75 101.839C181.75 101.819 181.75 101.799 181.75 101.78C181.945 102.038 182.137 102.308 182.329 102.609C182.63 103.09 183.283 103.106 183.561 102.689C183.76 102.927 183.96 103.161 184.159 103.399C184.515 103.82 185.035 103.665 185.278 103.292C185.509 103.574 185.735 103.852 185.966 104.134C186.33 104.579 187.175 104.352 187.214 103.757C187.535 104.067 187.852 104.38 188.172 104.69C188.532 105.039 189.005 105 189.314 104.61C189.342 104.579 189.361 104.547 189.385 104.515C189.749 104.797 190.081 105.123 190.37 105.5C190.801 105.988 191.52 105.686 191.618 105.091C192.033 105.452 192.447 105.817 192.862 106.179C193.077 106.365 193.351 106.346 193.574 106.219C193.574 106.254 193.574 106.286 193.57 106.322C193.777 105.996 193.977 105.663 194.168 105.333C194.192 105.293 194.212 105.254 194.231 105.218C194.395 104.924 194.556 104.63 194.708 104.333C194.716 104.317 194.724 104.297 194.732 104.281C194.352 104.063 193.989 103.804 193.629 103.491H193.633ZM192.49 107.314C191.685 107.831 192.322 108.676 190.711 108.442C190.257 108.374 189.866 108.891 189.968 109.319C189.69 109.312 189.408 109.304 189.131 109.296C188.696 109.145 188.207 109.486 188.192 109.951L188.172 110.546C188.024 110.519 187.875 110.491 187.722 110.467C187.277 110.388 186.968 110.852 186.975 111.249C186.041 111.047 184.977 110.614 184.515 111.384C184.245 111.305 183.971 111.225 183.702 111.146C183.295 110.943 182.829 111.114 182.657 111.46C182.387 111.348 182.129 111.209 181.883 111.039C181.452 110.781 180.748 111.023 180.768 111.61C180.768 111.718 180.776 111.829 180.78 111.936C180.197 111.726 179.661 111.471 179.043 111.106C178.527 110.797 177.909 111.19 177.944 111.777C177.647 111.603 177.369 111.392 177.111 111.13C176.72 110.769 176.066 110.812 175.887 111.388C175.867 111.456 175.847 111.515 175.828 111.571C175.491 111.301 175.194 110.991 174.913 110.602C174.521 110.066 173.806 110.443 173.677 110.975C173.289 110.602 172.937 110.213 172.57 109.744C172.245 109.335 171.463 109.458 171.345 110.002V110.026C170.849 109.514 170.356 109.006 169.863 108.494C169.527 108.144 168.776 108.164 168.647 108.728C168.193 108.101 167.712 107.497 167.18 106.917C166.812 106.925 166.444 106.921 166.081 106.909C166.026 106.977 165.979 107.052 165.955 107.148C165.905 107.064 165.854 106.985 165.799 106.901C164.762 106.858 163.722 106.743 162.693 106.556C162.783 106.743 162.873 106.933 162.967 107.12C163.198 107.596 163.937 107.684 164.211 107.195C164.227 107.171 164.234 107.152 164.25 107.128C164.712 107.862 165.173 108.593 165.635 109.327C165.932 109.8 166.812 109.919 166.965 109.228C166.984 109.141 167.004 109.049 167.023 108.962C167.481 109.538 167.907 110.137 168.306 110.785C168.623 111.301 169.429 111.336 169.636 110.685C169.667 110.598 169.691 110.511 169.718 110.423C170.219 110.939 170.716 111.46 171.216 111.976C171.557 112.329 172.272 112.297 172.425 111.757C172.851 112.19 173.305 112.595 173.802 112.976C174.193 113.278 174.651 113.028 174.834 112.647C175.175 112.933 175.554 113.171 176.008 113.393C176.426 113.6 177.04 113.453 177.107 112.925C177.557 113.207 178.042 113.425 178.625 113.596C179.074 113.727 179.485 113.425 179.548 112.996C180.111 113.25 180.69 113.461 181.316 113.627C181.726 113.739 182.274 113.469 182.254 112.972C182.254 112.925 182.254 112.877 182.25 112.829C182.552 112.945 182.864 113.044 183.22 113.123C183.549 113.199 183.889 113.08 184.057 112.81C184.347 112.893 184.644 112.956 184.973 113C185.364 113.052 185.704 112.679 185.728 112.309C185.712 112.528 187.101 112.758 187.468 112.79C187.754 112.583 188.039 112.369 188.317 112.15C188.329 112.119 188.344 112.083 188.356 112.055L188.423 112.067C188.614 111.912 188.806 111.757 188.994 111.599C189.197 111.428 189.397 111.253 189.596 111.07C189.596 111.003 189.6 110.935 189.604 110.868C189.674 110.872 189.741 110.868 189.811 110.868C190.105 110.594 190.39 110.312 190.668 110.018C190.676 110.006 190.687 109.998 190.695 109.987C190.969 109.701 191.235 109.407 191.497 109.105C191.497 109.101 191.505 109.097 191.509 109.093C192.045 108.474 192.553 107.819 193.03 107.132C192.831 107.187 192.616 107.235 192.494 107.314H192.49ZM189.932 80.4023C189.979 80.8073 190.018 81.2123 190.046 81.6173C190.511 81.3076 190.355 80.6644 189.932 80.4023Z" fill="#32644E"/>
    <path d="M149.949 71.0225C151.424 72.972 150.309 76.0174 151.408 78.2647C152.284 80.0554 153.782 81.2982 155.589 82.0129C156.45 82.3504 156.892 80.9647 156.031 80.6232C153.348 79.567 152.151 77.2364 152.096 74.4173C152.065 72.7894 152.042 71.3997 151.029 70.0617C150.465 69.3152 149.386 70.284 149.949 71.0225Z" fill="#39765C"/>
    <path d="M285.883 93.4524C278.112 117.023 257.447 101.827 257.447 101.827C257.447 101.827 228.209 101.525 239.659 80.684C249.55 62.6826 264.376 76.6261 264.376 76.6261C264.376 76.6261 293.637 69.9446 285.883 93.4524Z" fill="#F4A069"/>
    <path d="M285.912 93.4524C278.142 117.023 257.476 101.827 257.476 101.827C257.476 101.827 228.238 101.525 239.688 80.684C249.579 62.6826 264.405 76.6261 264.405 76.6261C264.405 76.6261 293.666 69.9446 285.912 93.4524Z" fill="#F28A47"/>
    <path d="M272.851 69.2584C271.315 70.9372 267.986 70.6782 266.06 72.1075C264.519 73.2443 263.694 74.7888 263.476 76.4724C263.373 77.2734 264.874 77.3358 264.977 76.5347C265.298 74.0357 267.287 72.5009 270.072 71.8245C271.676 71.436 273.052 71.1051 274.106 69.9491C274.697 69.3064 273.442 68.6157 272.857 69.2536L272.851 69.2584Z" fill="#428569"/>
    <mask id="mask0_456_2683" style="mask-type:luminance" maskUnits="userSpaceOnUse" x="237" y="71" width="51" height="36">
        <path d="M285.912 93.4524C278.142 117.023 257.476 101.827 257.476 101.827C257.476 101.827 228.238 101.525 239.688 80.684C249.579 62.6826 264.405 76.6261 264.405 76.6261C264.405 76.6261 293.666 69.9446 285.912 93.4524Z" fill="white"/>
    </mask>
    <g mask="url(#mask0_456_2683)">
        <path d="M245.792 100.883C241.018 97.1941 239.998 87.1645 245.781 79.2646C250.422 72.9284 259.626 72.3864 260.016 72.3672L260.073 73.1538C259.981 73.1538 250.961 73.6958 246.577 79.6771C241.024 87.2604 241.918 96.8247 246.428 100.307L245.792 100.887V100.883Z" fill="#D77382"/>
        <path d="M267.665 107.301L267.379 106.524C273.282 105.013 281.878 96.4508 281.391 86.9968C281.007 79.5958 272.554 75.7969 272.468 75.7585L272.921 75.0391C273.012 75.0774 281.952 79.0825 282.365 86.9633C282.835 96.0239 274.709 105.497 267.665 107.301Z" fill="#D77382"/>
        <path d="M252.852 102.35C249.483 98.8772 249.081 89.1546 253.592 81.3315C257.225 75.0288 264.067 74.271 264.36 74.2422L264.457 74.9041C264.388 74.9089 257.752 75.662 254.314 81.6241C250.766 87.7684 249.632 97.9755 253.471 101.933L252.852 102.355V102.35Z" fill="#D77382"/>
        <path d="M259.77 104.663V103.977C267.718 103.996 271.781 95.3861 272.286 86.8482C272.733 79.2889 267.34 75.4469 267.283 75.4085L267.804 74.8809C268.039 75.0439 273.569 78.9627 273.105 86.8818C272.331 100.029 265.437 104.677 259.775 104.663H259.77Z" fill="#D77382"/>
        <path d="M257.087 101.885C256.078 97.3189 263.832 76.4635 264.164 75.5762L264.926 75.7728C264.846 75.9887 256.903 97.3573 257.877 101.76L257.092 101.88L257.087 101.885Z" fill="#D77382"/>
    </g>
    <g style="mix-blend-mode:multiply" opacity="0.22">
        <path d="M243.786 75.1582C242.364 76.5252 240.983 78.3287 239.688 80.6838C228.238 101.525 257.476 101.827 257.476 101.827C257.476 101.827 271.649 112.25 280.932 102.441C252.061 96.9585 250.542 88.1424 243.786 75.1582Z" fill="#F1965B"/>
    </g>
    <path d="M176.18 280.357C172.33 272.245 169.298 261.958 167.962 257.063C167.527 255.476 168.358 253.964 169.966 253.316C170.633 253.045 171.269 252.764 171.923 252.488C173.723 251.731 176.036 252.343 177.302 253.892C182.396 260.107 187.516 266.156 192.942 272.079C196.879 276.378 195.615 282.955 190.096 284.582L187.047 285.48C182.984 286.677 177.925 284.038 176.18 280.357Z" fill="#F2A06A"/>
    <path d="M168.83 258.176C171.338 257.287 174.833 256.049 177.341 255.16" stroke="#EC8A47" stroke-width="1.91" stroke-miterlimit="10" stroke-linecap="round"/>
    <path d="M169.909 262.031C172.416 261.142 177.199 259.092 179.706 258.203" stroke="#EC8A47" stroke-width="1.91" stroke-miterlimit="10" stroke-linecap="round"/>
    <path d="M171.3 266.134C173.808 265.245 180.687 262.376 183.194 261.487" stroke="#EC8A47" stroke-width="1.91" stroke-miterlimit="10" stroke-linecap="round"/>
    <path d="M172.576 270.342C175.084 269.452 183.607 265.941 186.111 265.051" stroke="#EC8A47" stroke-width="1.91" stroke-miterlimit="10" stroke-linecap="round"/>
    <path d="M173.571 273.503C176.181 272.82 187.084 269.045 189.694 268.362" stroke="#EC8A47" stroke-width="1.91" stroke-miterlimit="10" stroke-linecap="round"/>
    <path d="M181.425 284.735C183.563 284.148 192.483 280.919 194.617 280.331" stroke="#EC8A47" stroke-width="1.91" stroke-miterlimit="10" stroke-linecap="round"/>
    <path d="M175.233 278.594C178.093 277.67 189.905 272.813 192.766 271.886" stroke="#EC8A47" stroke-width="1.91" stroke-miterlimit="10" stroke-linecap="round"/>
    <path d="M178.344 281.679C181.354 280.71 192.498 276.111 195.511 275.143" stroke="#EC8A47" stroke-width="1.91" stroke-miterlimit="10" stroke-linecap="round"/>
    <path d="M172.867 252.734C173.386 253.429 194.425 280.335 194.425 280.335" stroke="#EC8A47" stroke-width="1.91" stroke-miterlimit="10" stroke-linecap="round"/>
    <path d="M169.654 253.914L185.825 285.326" stroke="#EC8A47" stroke-width="1.91" stroke-miterlimit="10" stroke-linecap="round"/>
    <path d="M188.726 286.803C188.726 286.803 180.577 286.819 176.649 281.403C173.122 276.542 168.279 267.692 163.223 265.154C163.004 265.045 163.09 264.777 163.33 264.818C166.97 265.477 175.051 267.575 178.854 273.549C183.853 281.396 188.722 286.805 188.722 286.805L188.726 286.803Z" fill="#5A9373"/>
    <path d="M189.986 286.887C189.986 286.887 183.952 286.898 181.048 282.889C178.438 279.29 174.854 272.74 171.111 270.862C170.949 270.781 171.013 270.582 171.191 270.614C173.885 271.104 179.864 272.652 182.682 277.074C186.381 282.882 189.987 286.885 189.987 286.885L189.986 286.887Z" fill="#68A684"/>
    <path d="M192.497 265.307C192.497 265.307 187.589 267.937 188.348 272.463C189.029 276.526 191.213 283.414 189.638 286.578C189.571 286.715 189.778 286.849 189.896 286.745C191.705 285.171 195.353 281.293 194.201 276.471C192.686 270.135 192.5 265.308 192.5 265.308L192.497 265.307Z" fill="#39765C"/>
    <path d="M194.953 256.487C194.953 256.487 188.323 260.041 189.347 266.157C190.266 271.648 193.22 280.955 191.09 285.227C190.996 285.412 191.276 285.593 191.44 285.452C193.885 283.323 198.815 278.088 197.258 271.572C195.213 263.011 194.957 256.489 194.957 256.489L194.953 256.487Z" fill="#5A9373"/>
    <path d="M191.266 284.288L191.734 285.882C192.103 286.744 191.625 287.633 190.663 287.864L188.421 288.404C187.459 288.636 186.377 288.127 186.009 287.265L185.415 285.884L191.27 284.289L191.266 284.288Z" fill="#39765C"/>
    <path d="M275.365 287.479C275.365 287.479 265.921 290.846 252.619 286.803C239.318 282.759 235.089 274.509 228.355 274.523C221.622 274.538 218.963 279.8 222.499 285.004C227.668 292.621 259.703 305.053 275.365 287.479Z" fill="#428569"/>
    <path d="M226.332 279.024C225.043 278.064 223.891 277.143 222.859 276.261C224.126 275.191 225.988 274.534 228.355 274.529C235.089 274.515 239.318 282.76 252.619 286.808C265.92 290.852 275.365 287.485 275.365 287.485C275.365 287.485 253.456 299.246 226.326 279.028L226.332 279.024Z" fill="#2E6550"/>
    <path d="M222.453 276.174C222.453 276.174 217.645 273.829 214.596 274.519C212.384 275.023 212.029 276.006 212 276.51C212 276.596 212.011 276.687 212.052 276.764C212.092 276.846 212.149 276.918 212.229 276.975C212.458 277.157 212.779 277.177 213.032 277.071C213.169 277.013 213.289 276.918 213.364 276.788C213.708 276.208 214.47 275.56 216.183 275.666C219.215 275.848 221.576 276.961 221.576 276.961C221.576 276.961 218.034 282.376 223.416 286.645C223.416 286.645 224.969 283.738 223.175 281.594C223.175 281.594 225.611 283.498 228.419 283.479C228.419 283.479 229.313 281.1 226.338 279.018C226.338 279.018 229.937 280.601 232.86 279.503C232.86 279.503 231.783 277.306 229.015 276.495C229.015 276.495 231.187 276.659 233.187 275.392C233.187 275.392 227.794 271.79 222.459 276.174H222.453Z" fill="#68A684"/>
    <path d="M254.735 295.149C254.735 295.149 236.861 294.986 226.041 286.928L226.992 286.074C226.992 286.074 238.672 293.648 254.735 295.149Z" fill="#6FB591"/>
    <path d="M222.453 276.174C227.788 271.79 233.181 275.392 233.181 275.392C231.181 276.659 229.009 276.495 229.009 276.495C231.777 277.306 232.854 279.503 232.854 279.503C226.654 275.109 222.459 276.174 222.459 276.174H222.453Z" fill="#5A9373"/>
    <path d="M310.266 323.434C309.74 323.67 309.348 323.898 309.286 323.858C307.975 322.897 306.335 324.133 305.015 323.455C304.81 323.347 304.739 323.099 304.641 322.964C305.514 322.205 306.335 321.493 307.351 320.613C308.314 321.554 309.25 322.46 310.258 323.434H310.266Z" fill="currentColor"/>
    <path d="M395.514 263.719C392.971 264.965 390.945 264.062 389.316 263.333C387.807 262.659 386.966 262.333 385.809 262.9C384.652 263.467 384.4 264.329 384.008 265.935C383.586 267.668 383.058 269.823 380.516 271.069C377.973 272.315 375.944 271.406 374.318 270.683C372.809 270.009 371.967 269.683 370.816 270.247C369.665 270.811 369.407 271.676 369.015 273.282C368.593 275.015 368.066 277.17 365.523 278.416C362.98 279.662 360.951 278.754 359.325 278.03C357.816 277.357 356.975 277.03 355.824 277.595C355.033 277.982 354.083 277.652 353.699 276.867C353.314 276.083 353.641 275.127 354.426 274.743C356.969 273.497 358.998 274.405 360.623 275.129C362.133 275.802 362.974 276.129 364.125 275.564C365.276 275 365.534 274.135 365.926 272.53C366.348 270.796 366.876 268.641 369.419 267.395C371.961 266.149 373.99 267.058 375.61 267.784C377.12 268.458 377.961 268.784 379.112 268.22C380.263 267.656 380.521 266.791 380.913 265.185C381.335 263.452 381.863 261.297 384.405 260.051C386.948 258.805 388.975 259.708 390.603 260.437C392.112 261.111 392.954 261.437 394.111 260.87C395.267 260.303 395.525 259.438 395.917 257.833C396.339 256.099 396.867 253.944 399.41 252.698C400.2 252.311 401.15 252.641 401.534 253.425C401.919 254.21 401.592 255.165 400.807 255.55C399.65 256.117 399.392 256.982 399 258.587C398.579 260.321 398.051 262.476 395.508 263.722L395.514 263.719Z" fill="#EFDEB9"/>
    <path d="M325.009 259.868C330.058 266.995 329.048 278.15 322.336 285.824C315.551 293.577 305.365 295.016 298.769 289.465L296.173 292.395C302.75 297.705 312.526 297.503 320.486 291.108C330.428 283.124 333.758 268.53 327.927 258.51C327.699 258.12 327.446 257.769 327.2 257.402L325.016 259.865L325.009 259.868Z" fill="#80C49F"/>
    <path d="M324.109 286.707C323.387 286.627 322.773 286.332 322.269 285.893C315.484 293.582 305.342 294.998 298.769 289.465L296.173 292.395C302.75 297.705 312.526 297.503 320.486 291.108C322.084 289.826 323.493 288.353 324.741 286.773C324.532 286.752 324.322 286.73 324.113 286.709L324.109 286.707Z" fill="#32644E"/>
    <path d="M322.332 285.821C329.045 278.147 330.055 266.993 325.006 259.865L298.765 289.462C305.362 295.013 315.55 293.569 322.332 285.821Z" fill="#A14863"/>
    <path d="M307.525 279.585C310.393 281.388 313.421 282.925 316.529 284.144C318.276 284.833 320.217 285.499 322.232 285.932C322.268 285.892 322.306 285.86 322.337 285.818C329.05 278.144 330.06 266.99 325.011 259.862L307.528 279.58L307.525 279.585Z" fill="#BB646C"/>
    <path d="M307.225 286.464C307.228 286.035 306.878 285.739 306.442 285.803C306.006 285.868 305.649 286.267 305.645 286.696C305.642 287.125 305.992 287.421 306.428 287.356C306.864 287.292 307.221 286.892 307.225 286.464Z" fill="#4B3123"/>
    <path d="M317.672 274.522C317.676 274.093 317.325 273.798 316.889 273.862C316.453 273.926 316.096 274.326 316.093 274.755C316.089 275.184 316.439 275.479 316.876 275.415C317.312 275.351 317.668 274.951 317.672 274.522Z" fill="#4B3123"/>
    <path d="M322.623 278.073C322.627 277.644 322.276 277.349 321.84 277.413C321.404 277.477 321.047 277.877 321.044 278.306C321.04 278.734 321.391 279.03 321.827 278.966C322.263 278.901 322.619 278.502 322.623 278.073Z" fill="#4B3123"/>
    <path d="M323.899 267.405C323.902 266.976 323.552 266.681 323.115 266.745C322.679 266.809 322.323 267.209 322.319 267.638C322.315 268.066 322.666 268.362 323.102 268.298C323.538 268.233 323.895 267.834 323.899 267.405Z" fill="#4B3123"/>
    <path d="M310.971 281.09C310.974 280.662 310.624 280.366 310.188 280.43C309.752 280.495 309.395 280.894 309.391 281.323C309.388 281.752 309.738 282.048 310.174 281.983C310.611 281.919 310.967 281.519 310.971 281.09Z" fill="#4B3123"/>
    <path d="M316.816 283.61C316.82 283.181 316.47 282.886 316.033 282.95C315.597 283.014 315.241 283.414 315.237 283.843C315.233 284.272 315.584 284.567 316.02 284.503C316.456 284.439 316.813 284.039 316.816 283.61Z" fill="#4B3123"/>
    <path d="M389.852 124.108C391.842 125.476 393.664 124.966 395.128 124.554C396.485 124.174 397.236 124.003 398.141 124.625C399.047 125.248 399.152 126.006 399.283 127.41C399.423 128.925 399.6 130.808 401.59 132.176C403.58 133.543 405.405 133.029 406.866 132.622C408.223 132.241 408.974 132.071 409.875 132.69C410.775 133.309 410.885 134.071 411.016 135.474C411.156 136.989 411.333 138.872 413.323 140.24C415.313 141.608 417.138 141.094 418.599 140.686C419.956 140.305 420.707 140.135 421.608 140.754C422.226 141.179 423.069 141.019 423.491 140.405C423.913 139.791 423.756 138.944 423.142 138.522C421.152 137.154 419.327 137.669 417.866 138.076C416.509 138.457 415.758 138.627 414.857 138.008C413.956 137.389 413.846 136.627 413.715 135.224C413.575 133.709 413.398 131.825 411.409 130.458C409.419 129.09 407.594 129.604 406.137 130.015C404.78 130.396 404.029 130.566 403.128 129.947C402.228 129.328 402.118 128.566 401.987 127.163C401.847 125.648 401.67 123.764 399.68 122.397C397.69 121.029 395.868 121.539 394.403 121.951C393.047 122.331 392.296 122.502 391.391 121.88C390.485 121.257 390.375 120.496 390.244 119.092C390.104 117.577 389.927 115.694 387.938 114.326C387.319 113.901 386.477 114.061 386.055 114.675C385.633 115.289 385.79 116.136 386.404 116.558C387.309 117.18 387.419 117.942 387.55 119.345C387.69 120.86 387.867 122.744 389.857 124.112L389.852 124.108Z" fill="#EFDEB9"/>
    <path d="M352.003 106.956C348.515 105.833 342.47 101.456 339.7 98.4855C339.113 97.8567 338.53 97.2254 337.998 96.5252C336.413 94.4174 335.424 91.7661 334.467 89.1715C338.698 90.1749 342.96 93.205 345.84 97.3146C348.015 100.417 349.554 104.178 351.999 106.958" fill="#68A684"/>
    <path d="M344.335 104.56C340.427 104.398 336.515 104.239 332.606 104.077C331.393 104.027 330.17 103.977 328.95 103.742C326.1 103.199 323.319 101.684 320.469 101.147C317.245 100.542 314.149 101.217 311.144 101.892C313.629 102.079 316.472 102.836 318.969 103.284C320.008 103.468 321.068 103.687 322.048 104.229C324.019 105.315 325.426 107.579 327.474 108.413C328.939 109.007 330.447 108.755 331.861 108.485C336.95 107.525 342.046 106.566 347.135 105.606" fill="#68A684"/>
    <path d="M351.011 106.073C349.718 104.013 348.4 101.905 347.751 99.6235C347.628 99.1925 347.537 98.7072 347.757 98.3856C348.882 96.7218 349.426 94.5479 350.996 93.3478C351.576 92.9018 352.266 92.5217 353.047 92.627C353.431 92.6813 353.549 92.8828 353.876 93.145C354.203 93.4072 354.474 93.7472 354.723 94.0915C355.062 94.5525 355.382 95.0283 355.706 95.5017C356.451 96.6028 356.491 96.6649 357.239 97.7636C357.239 97.7636 355.129 97.3252 353.647 96.8471C352.847 96.5905 352.002 96.3914 351.262 96.5995C350.671 98.2433 350.506 100.199 350.692 102.075C350.742 102.553 350.816 103.044 351.004 103.507C351.174 103.934 351.388 104.426 351.644 104.815C352.164 105.603 352.651 106.453 353.352 107.077" fill="#68A684"/>
    <path d="M347.866 99.9981C348.403 101.682 349.621 104.225 351.006 106.131C351.006 106.131 353.09 107.03 353.594 107.156C353.457 107.011 352.495 105.874 352.371 105.72C351.306 104.358 350.681 102.794 350.632 101.174C350.58 99.3407 350.903 97.8634 351.264 96.6039C350.27 97.2625 348.923 98.4644 348.185 99.4135C348.05 99.5863 347.858 99.9669 347.866 99.9981Z" fill="#2E6550"/>
    <path d="M355.019 108.29C353.639 108.822 352.26 109.354 350.884 109.884C349.837 110.288 348.766 110.709 348.004 111.529C347.283 112.306 346.9 113.374 346.589 114.443C346.431 114.995 346.283 115.589 346.446 116.192C346.632 116.89 347.193 117.47 347.775 117.912C348.655 118.576 349.659 119.033 350.663 119.225C349.257 119.783 347.298 119.786 345.854 118.795C344.409 117.804 343.345 116.123 343.093 114.431C342.864 112.894 343.592 109.499 343.722 109.544C344.566 108.94 345.344 108.024 346.422 107.94C347.028 107.892 351.111 107.6 352.213 107.444C352.213 107.444 353.864 107.97 355.022 108.288L355.019 108.29Z" fill="#68A684"/>
    <path d="M331.287 99.0422C345.56 104.404 360.257 110.159 372.468 115.182" stroke="#2E6550" stroke-width="2.41" stroke-miterlimit="10"/>
    <path d="M334.572 100.129C333.766 99.8641 332.961 100.034 332.18 100.144C328.279 100.682 324.039 99.5621 320.118 97.698C316.197 95.8339 312.539 93.2478 308.906 90.6806C310.984 90.7132 313.846 90.8615 315.924 90.8941C318.379 90.9305 320.845 92.7016 323.25 93.6097C327.39 95.1715 331.331 96.6524 334.572 100.129Z" fill="#2E6550"/>
</svg>
