<svg width="500" height="500" viewBox="0 0 500 500" fill="none" xmlns="http://www.w3.org/2000/svg">
    <g clip-path="url(#clip0_456_2906)">
        <path d="M536.99 348C530.033 337.756 518.027 330.976 504.362 330.976C495 330.976 486.405 334.161 479.686 339.463C476.555 326.304 464.321 316.479 449.703 316.479C446.955 316.479 444.291 316.828 441.75 317.487C434.358 304.488 420.019 295.681 403.555 295.681C382.519 295.681 364.976 310.049 360.912 329.139C355.127 323.658 347.185 320.263 338.424 320.263C328.927 320.263 320.384 324.247 314.516 330.567C308.129 319.894 296.165 312.695 282.459 312.695C270.1 312.695 259.162 318.536 252.454 327.502C246.492 322.969 238.965 320.253 230.775 320.253C228.732 320.253 226.742 320.433 224.793 320.752C219.339 308.951 207.064 300.713 192.787 300.713C178.51 300.713 166.639 308.671 161.051 320.163C155.909 315.53 148.993 312.695 141.394 312.695C138.739 312.695 136.178 313.044 133.742 313.693C129.056 299.945 127.5 278.5 97 278.5C81.1683 278.5 68.1552 292.241 63.5 306C59.5291 303.753 54.9051 302.465 49.9596 302.465C30.5 302.465 27.1604 320.223 25.6778 333.143C22.0905 331.745 18.1611 330.966 14.0554 330.966C1.68657 330.966 -8.99232 337.926 -14 347.99H537L536.99 348Z" fill="white"/>
        <g clip-path="url(#clip1_456_2906)">
            <rect width="500" height="154" transform="translate(0 346)" fill="currentColor"/>
            <path d="M475.426 363.02C475.047 362.315 474.661 361.614 474.289 360.904C474.006 360.364 473.944 359.784 474.114 359.206C474.741 357.065 476.017 355.475 478.119 354.623C478.644 354.411 479.196 354.304 479.768 354.404C480.548 354.54 481.035 354.979 481.2 355.755C481.77 358.453 482.881 360.931 484.223 363.321C484.868 364.47 485.77 365.415 486.676 366.353C487.276 366.973 487.357 367.448 486.932 368.183C486.793 368.425 486.623 368.652 486.442 368.864C485.769 369.655 484.918 369.853 483.944 369.548C482.017 368.946 480.346 367.895 478.812 366.605C477.547 365.541 476.425 364.345 475.425 363.018L475.426 363.02Z" fill="#704537"/>
            <path d="M507.9 396.224C507.504 396.231 507.17 396.514 507.1 396.902C506.853 398.279 506.112 401.441 504.279 403.31C499.598 408.082 493.016 408.031 488.935 405.133C485.157 402.451 483.009 398.852 482.706 394.194C482.624 392.934 482.528 391.673 482.435 390.411C482.22 387.529 481.444 384.838 480.011 382.297C478.591 379.778 478.103 376.986 478.179 374.108C478.252 371.294 479.524 368.983 481.369 366.955C483.965 364.102 487.268 363.262 490.948 363.861C494.118 364.376 496.932 365.767 499.377 367.869C499.864 368.287 500.332 368.725 500.799 369.164C502.084 370.373 503.642 371.109 505.278 371.679C506.964 372.268 508.683 372.762 510.371 373.338C512.187 373.955 513.943 374.749 515.326 376.103C518.072 378.788 519.562 382.039 519.499 385.947C519.442 389.478 517.73 392.025 514.872 393.913C512.825 395.265 510.616 396.149 508.13 396.215C508.055 396.218 507.979 396.218 507.901 396.221L507.9 396.224Z" fill="#C4E283"/>
            <path d="M487.398 382.308C487.76 383.034 487.84 383.778 487.231 384.436C486.673 385.041 485.744 385.201 484.89 384.819C483.878 384.366 483.192 383.552 482.653 382.62C482.124 381.71 481.782 380.718 481.674 379.67C481.625 379.201 481.633 378.699 481.749 378.245C481.964 377.405 482.621 377.071 483.467 377.294C484.15 377.475 484.715 377.872 485.149 378.407C486.572 380.166 486.856 381.21 487.402 382.304L487.398 382.308Z" fill="#FFF8EE"/>
            <path d="M483.818 371.199C483.874 371.328 483.998 371.561 484.073 371.807C484.324 372.63 484.334 373.473 484.116 374.299C484.022 374.656 483.853 375.02 483.629 375.313C482.9 376.272 481.644 376.166 481.045 375.122C480.461 374.105 480.606 371.977 481.322 371.033C481.936 370.223 483.128 370.257 483.818 371.199Z" fill="#FFF8EE"/>
            <path d="M502.565 388.364C502.619 389.356 502.022 390.272 501.115 390.68C500.844 390.803 500.569 390.917 500.284 390.99C499.485 391.191 498.652 390.794 498.206 390.103C498.066 389.887 497.967 389.626 498.183 389.455C498.318 389.347 498.589 389.341 498.774 389.389C498.976 389.441 499.175 389.581 499.331 389.729C499.759 390.139 500.522 389.913 501.087 389.463C501.504 389.131 501.611 388.557 501.388 388.048C501.331 387.92 501.261 387.799 501.204 387.673C501.077 387.392 501.054 387.117 501.348 386.93C501.643 386.74 501.875 386.887 502.079 387.118C502.383 387.46 502.541 387.901 502.567 388.363L502.565 388.364Z" fill="#704537"/>
            <path d="M496.311 389.836C496.705 390.043 496.987 390.41 497.128 390.833C497.169 390.957 497.202 391.082 497.216 391.208C497.282 391.846 496.704 392.239 496.099 392.014C495.55 391.811 495.076 391.091 495.104 390.502C495.131 389.95 495.617 389.585 496.148 389.764C496.203 389.784 496.257 389.808 496.311 389.836Z" fill="#704537"/>
            <path d="M39.4615 482.277C35.5295 485.421 31.8412 487.794 27.6665 489.261C21.9595 491.269 16.1592 491.449 10.3763 489.566C7.5733 488.653 4.9648 487.306 2.63534 485.46C0.590979 483.839 -0.831015 481.74 -2.04056 479.472C-3.26218 477.182 -4.08789 474.739 -4.75575 472.242C-4.83963 471.927 -4.92176 471.607 -4.94973 471.283C-5.32781 466.681 -4.89753 462.24 -2.63887 458.075C0.0552205 453.107 3.97287 449.495 8.95682 446.895C12.3328 445.132 15.7659 443.575 19.4537 442.594C23.0075 441.647 26.5981 441.332 30.1978 442.161C33.6979 442.969 36.7967 444.65 39.4624 447.053C44.5504 451.636 47.2124 457.385 47.422 464.224C47.5959 469.908 45.8529 474.973 42.1843 479.338C41.1958 480.512 40.0959 481.596 39.461 482.275L39.4615 482.277Z" fill="#F46666"/>
            <path d="M25.0251 444.006C24.9189 444.315 25.1254 444.641 25.4475 444.682C28.6115 445.062 30.8419 448.301 30.673 450.969C30.5541 452.838 29.6908 454.233 28.2111 455.291C26.9613 456.187 25.5618 456.432 24.0515 456.317C23.674 456.288 23.3725 456.625 23.4469 456.996C23.4827 457.173 23.5145 457.343 23.5436 457.514C24.1375 461.054 22.0471 464.006 19.1945 465.176C16.8029 466.157 14.1741 465.269 12.7197 463.076C12.675 463.007 12.6299 462.935 12.5821 462.864C12.4162 462.599 12.0452 462.545 11.8192 462.761C10.5454 463.982 9.02709 464.606 7.2114 464.5C5.81055 464.416 4.64287 463.804 3.63464 462.875C1.60434 461 1.39971 459.177 2.94592 456.263C3.0931 455.986 2.95272 455.645 2.65263 455.557C2.62107 455.548 2.59217 455.54 2.56015 455.529C0.436844 454.905 -0.894511 453.143 -0.967107 450.922C-1.10767 446.636 2.5613 444.102 6.1912 444.931C6.1912 444.931 6.19386 444.931 6.19652 444.93C6.48719 444.996 6.71859 444.682 6.57497 444.419C5.99602 443.356 4.91745 441.406 4.20053 440.049C3.76825 439.235 3.96593 438.387 4.38227 437.697C5.79103 435.374 7.58824 433.463 10.1571 432.397C10.2644 432.351 10.373 432.314 10.4857 432.283C11.5183 432.008 12.0889 432.333 12.3865 433.337C12.9809 435.356 13.578 437.375 14.1906 439.388C14.2401 439.55 14.3002 439.709 14.3697 439.876C14.5038 440.195 14.9484 440.215 15.1132 439.913C15.1132 439.913 15.1154 439.91 15.1176 439.907C16.1807 437.966 17.6918 436.562 19.8967 436.06C22.3362 435.503 24.7627 437.083 25.3326 439.52C25.6734 440.986 25.5936 442.427 25.0768 443.844C25.0584 443.897 25.0399 443.949 25.0193 444.005L25.0251 444.006Z" fill="#067F5A"/>
            <path d="M7.37279 474.168C7.55252 474.466 7.81732 474.829 8.00103 475.231C8.63684 476.627 9.54888 477.811 10.6106 478.909C11.0303 479.344 11.3958 479.896 11.6019 480.46C12.0573 481.714 11.4275 482.775 10.1265 483.099C9.17232 483.336 8.23642 483.263 7.35845 482.808C4.68456 481.431 3.07079 479.236 2.42475 476.321C2.33742 475.922 2.32768 475.496 2.33931 475.083C2.37658 473.666 3.52214 472.673 4.94365 472.813C5.90806 472.909 6.66804 473.395 7.37325 474.171L7.37279 474.168Z" fill="#FFF8EE"/>
            <path d="M3.47927 470.457C2.48397 471.383 0.971143 471.173 0.286459 469.988C-0.600817 468.452 -0.209166 466.719 0.793435 465.515C1.41206 464.773 2.39768 464.737 3.19754 465.312C4.49618 466.241 5.0341 469.213 3.47927 470.457Z" fill="#FFF8EE"/>
            <path d="M32.2912 472.887C32.1773 474.353 31.1228 475.575 29.713 475.999C29.2907 476.126 28.8636 476.24 28.434 476.292C27.2272 476.429 26.0807 475.686 25.5616 474.588C25.3985 474.243 25.3028 473.843 25.6558 473.632C25.8746 473.501 26.274 473.545 26.5386 473.651C26.8242 473.766 27.0876 474.009 27.2862 474.257C27.8334 474.942 28.9965 474.757 29.9117 474.212C30.5903 473.805 30.8587 472.987 30.6308 472.198C30.5722 472 30.4928 471.808 30.4343 471.61C30.3051 471.174 30.3229 470.765 30.7901 470.549C31.2594 470.329 31.57 470.591 31.826 470.966C32.2039 471.526 32.3497 472.203 32.2992 472.886L32.2912 472.887Z" fill="#704537"/>
            <path d="M22.8322 473.825C23.3684 474.204 23.711 474.798 23.8353 475.445C23.8703 475.634 23.8946 475.824 23.8887 476.014C23.862 476.964 22.9376 477.424 22.0938 476.976C21.3284 476.57 20.7735 475.423 20.9312 474.566C21.0784 473.76 21.8613 473.322 22.6066 473.691C22.6844 473.729 22.761 473.777 22.8327 473.827L22.8322 473.825Z" fill="#704537"/>
            <path d="M34.2072 466.624C34.7434 467.003 35.086 467.597 35.2103 468.244C35.2453 468.433 35.2696 468.623 35.2637 468.813C35.237 469.763 34.3126 470.223 33.4688 469.775C32.7034 469.369 32.1485 468.222 32.3062 467.365C32.4534 466.559 33.2363 466.121 33.9816 466.489C34.0594 466.528 34.136 466.575 34.2077 466.626L34.2072 466.624Z" fill="#704537"/>
        </g>
        <path d="M479.363 487.681C472.995 489.365 466.576 489.137 460.262 486.585C457.039 485.284 454.035 483.583 451.119 481.716C450.724 481.464 450.323 481.215 449.937 480.944C448.268 479.778 446.437 479.379 444.424 479.674C443.803 479.766 443.15 479.75 442.523 479.679C441.262 479.536 440.279 478.572 440.052 477.342C439.732 475.606 440.064 474.101 441.581 473.01C441.739 472.898 441.876 472.758 442.037 472.648C444.312 471.097 445.551 468.863 446.186 466.258C446.903 463.319 447.869 460.469 449.077 457.697C451.214 452.797 454.585 449.013 459.222 446.325C462.183 444.608 465.31 443.351 468.557 442.284C472.471 440.997 476.422 440.801 480.434 441.427C482.997 441.827 485.4 442.714 487.576 444.19C489.686 445.62 491.756 447.082 493.55 448.919C494.475 449.863 495.507 450.701 496.495 451.584C497.463 452.449 498.602 452.917 499.896 452.928C501.193 452.939 502.49 452.881 503.787 452.841C504.145 452.831 504.502 452.767 504.861 452.738C506.164 452.635 507.064 453.206 507.706 454.332C508.521 455.769 508.855 457.313 508.878 458.942C508.898 460.291 508.343 461.266 507.048 461.802C504.312 462.934 502.249 464.82 500.884 467.457C500.705 467.798 500.521 468.146 500.408 468.511C498.742 473.876 495.706 478.28 491.275 481.753C488.498 483.928 485.43 485.527 482.13 486.72C481.273 487.03 480.407 487.32 479.369 487.68L479.363 487.681Z" fill="#FFC255"/>
        <path d="M478.759 473.006C478.246 474.275 476.963 475.068 475.594 475.049C475.183 475.043 474.774 475.027 474.374 474.948C473.262 474.732 472.451 473.746 472.297 472.628C472.252 472.274 472.277 471.89 472.649 471.804C472.88 471.75 473.223 471.902 473.426 472.069C473.649 472.251 473.814 472.542 473.921 472.819C474.215 473.581 475.301 473.746 476.267 473.518C476.985 473.348 477.453 472.696 477.47 471.93C477.475 471.736 477.456 471.545 477.461 471.352C477.469 470.929 477.601 470.57 478.077 470.508C478.557 470.446 478.761 470.765 478.879 471.171C479.058 471.775 478.999 472.419 478.76 473.008L478.759 473.006Z" fill="#704537"/>
        <path d="M470.087 471.182C470.459 471.672 470.596 472.296 470.523 472.906C470.502 473.084 470.471 473.26 470.412 473.426C470.119 474.263 469.17 474.412 468.547 473.776C467.979 473.199 467.809 472.026 468.192 471.305C468.55 470.629 469.369 470.461 469.926 470.998C469.984 471.056 470.04 471.117 470.09 471.182L470.087 471.182Z" fill="#704537"/>
        <path d="M482.221 467.977C482.594 468.467 482.731 469.091 482.658 469.701C482.636 469.879 482.606 470.055 482.547 470.22C482.254 471.058 481.304 471.207 480.681 470.571C480.113 469.994 479.944 468.821 480.326 468.1C480.685 467.424 481.504 467.256 482.061 467.793C482.119 467.851 482.174 467.912 482.224 467.977L482.221 467.977Z" fill="#704537"/>
        <path d="M451.72 466.394C451.372 464.706 451.723 463.1 452.363 461.547C452.85 460.367 453.503 459.281 454.373 458.33C455.154 457.478 456.074 456.803 457.166 456.466C459.212 455.83 460.867 456.891 460.771 458.862C460.745 459.376 460.494 459.964 460.163 460.367C458.727 462.11 457.997 464.121 457.672 466.32C457.55 467.15 457.233 467.916 456.682 468.567C455.903 469.485 454.808 469.706 453.785 469.084C452.766 468.46 451.994 467.615 451.724 466.396L451.72 466.394Z" fill="#FFF8EE"/>
        <path d="M462.589 448.615C463.545 448.287 464.212 448.825 464.81 449.404C465.39 449.965 465.387 450.723 465.106 451.419C464.576 452.727 463.685 453.716 462.306 454.173C461.508 454.437 460.772 454.309 460.164 453.698C459.516 453.051 459.315 452.256 459.631 451.41C460.157 450.011 461.176 449.089 462.589 448.615Z" fill="#FFF8EE"/>
        <path d="M481.428 449.143C481.532 449.139 481.779 449.116 482.026 449.12C482.966 449.129 483.525 449.544 483.653 450.309C483.789 451.13 483.268 452.044 482.467 452.257C482.082 452.361 481.637 452.388 481.249 452.311C480.416 452.145 479.843 451.455 479.862 450.775C479.881 449.976 480.408 449.391 481.432 449.149L481.428 449.143Z" fill="#FF8939"/>
        <path d="M490.027 453.72C490.226 454.476 489.697 455.281 488.839 455.52C487.956 455.768 486.917 455.227 486.724 454.42C486.549 453.685 487.252 452.646 488.107 452.426C489.062 452.181 489.689 452.917 490.027 453.72Z" fill="#FF8939"/>
        <path d="M491.675 459.961C491.857 460.728 491.339 461.544 490.551 461.726C489.835 461.89 489.077 461.476 488.895 460.825C488.694 460.094 489.287 459.188 490.086 459.004C490.828 458.834 491.505 459.243 491.675 459.961Z" fill="#FF8939"/>
        <path d="M476.935 455.555C477.117 456.322 476.598 457.138 475.811 457.32C475.095 457.483 474.337 457.07 474.155 456.419C473.953 455.687 474.547 454.782 475.346 454.598C476.088 454.428 476.765 454.837 476.935 455.555Z" fill="#FF8939"/>
        <path d="M482.61 459.619C482.81 460.319 482.351 461.047 481.573 461.257C480.841 461.456 480.136 461.131 479.942 460.502C479.744 459.865 480.221 458.933 480.844 458.739C481.507 458.535 482.428 458.995 482.61 459.619Z" fill="#FF8939"/>
        <path d="M424.967 310.715C424.63 310.594 424.251 310.661 423.977 310.893C423.466 311.331 422.936 311.752 422.545 312.276C420.522 314.98 418.459 317.662 416.619 320.488C413.888 324.681 411.105 328.821 407.732 332.532C406.44 333.957 404.789 334.443 403.414 333.742C401.724 332.88 400.869 331.15 401.59 329.264C402.505 326.841 403.542 324.43 404.84 322.196C406.828 318.779 409.147 315.559 411.208 312.186C412.587 309.925 413.778 307.544 415.02 305.203C415.045 305.157 415.066 305.117 415.085 305.073C415.46 304.237 414.395 303.509 413.768 304.178L413.752 304.184C412.724 305.289 411.646 306.376 410.83 307.628C408.526 311.16 406.387 314.797 404.109 318.349C402.65 320.624 401.1 322.843 399.539 325.049C399.128 325.63 398.57 326.148 397.984 326.567C395.626 328.255 392.744 327.022 392.389 324.156C392.295 323.404 392.359 322.571 392.592 321.854C393.357 319.485 394.099 317.088 395.095 314.804C397.363 309.611 399.654 304.414 402.178 299.338C403.676 296.32 405.609 293.512 407.403 290.65C408.32 289.193 409.768 288.262 411.326 287.666C413.111 286.979 414.992 286.516 416.852 286.044C417.96 285.763 419.112 285.685 420.24 285.483C424.97 284.645 427.912 281.493 430.173 277.611C432.343 273.883 434.218 269.973 436.437 266.273C440.291 259.837 443.682 253.164 447.076 246.484C448.418 243.841 449.922 241.279 451.318 238.662C453.174 235.176 454.978 231.668 456.827 228.178C459.26 223.579 461.741 219.009 464.138 214.394C465.882 211.026 467.533 207.61 469.201 204.205C470.457 201.639 471.643 199.033 472.937 196.483C474.795 192.818 476.704 189.176 478.624 185.541C480.135 182.677 481.96 180.029 484.226 177.686C486.515 175.322 489.245 174.299 492.441 175.062C497.322 175.528 505.33 180.921 508.349 183.836C508.98 184.445 509.519 185.158 510.023 185.879C511.129 187.471 511.12 189.218 510.372 190.913C509.429 193.054 500.218 205.956 498.783 207.836C492.448 216.157 474.869 241.543 472.691 244.596C469.001 249.762 465.268 254.896 461.568 260.053C460.05 262.168 458.525 264.28 457.073 266.436C452.324 273.471 447.598 280.515 442.891 287.576C442.285 288.48 441.807 289.473 441.286 290.435C440.339 292.186 440.248 294.003 440.924 295.853C441.568 297.607 442.282 299.338 442.899 301.102C444.042 304.356 443.761 307.472 441.687 310.293C438.882 314.106 436.106 317.944 433.148 321.635C429.996 325.575 426.645 329.357 423.387 333.217C422.21 334.608 421.115 336.064 419.89 337.412C419.269 338.096 418.526 338.719 417.726 339.187C415.317 340.596 412.529 339.216 412.31 336.441C412.224 335.344 412.412 334.118 412.848 333.111C413.568 331.452 414.527 329.886 415.499 328.351C418.229 324.049 421.047 319.796 423.76 315.482C424.333 314.573 424.668 313.496 424.975 312.461C425.131 311.934 424.979 311.31 424.968 310.733L424.967 310.715Z" fill="currentColor"/>
        <path d="M99.5216 321.177C99.6386 321.135 99.7699 321.158 99.8651 321.239C100.042 321.391 100.226 321.537 100.362 321.719C101.064 322.657 101.78 323.588 102.418 324.568C103.366 326.023 104.332 327.46 105.502 328.748C105.951 329.242 106.524 329.411 107.001 329.168C107.587 328.869 107.884 328.268 107.634 327.614C107.316 326.773 106.956 325.936 106.506 325.161C105.816 323.975 105.011 322.858 104.296 321.687C103.818 320.903 103.405 320.076 102.973 319.264C102.965 319.248 102.957 319.234 102.951 319.219C102.821 318.929 103.19 318.676 103.408 318.908L103.413 318.91C103.77 319.294 104.144 319.671 104.427 320.106C105.227 321.331 105.969 322.593 106.76 323.826C107.266 324.615 107.804 325.385 108.346 326.151C108.488 326.352 108.682 326.532 108.885 326.678C109.704 327.264 110.704 326.836 110.827 325.841C110.859 325.58 110.837 325.291 110.756 325.042C110.491 324.22 110.233 323.388 109.888 322.596C109.101 320.794 108.306 318.99 107.43 317.229C106.91 316.181 106.239 315.207 105.617 314.214C105.298 313.708 104.796 313.385 104.255 313.178C103.636 312.94 102.983 312.779 102.338 312.615C101.953 312.518 101.553 312.491 101.162 312.421C99.5204 312.13 98.4997 311.036 97.715 309.689C96.9621 308.395 96.3111 307.038 95.5414 305.755C94.2039 303.521 93.0272 301.206 91.8494 298.888C91.3836 297.97 90.8618 297.081 90.3774 296.173C89.7333 294.963 89.1072 293.746 88.4657 292.535C87.6213 290.939 86.7601 289.353 85.9286 287.752C85.3234 286.583 84.7504 285.397 84.1716 284.216C83.7356 283.325 83.3241 282.421 82.8752 281.536C82.2305 280.264 81.5677 279 80.9017 277.739C80.3774 276.745 79.7441 275.826 78.9575 275.013C78.1632 274.193 77.216 273.838 76.1067 274.103C74.413 274.265 71.6339 276.136 70.5864 277.147C70.3674 277.359 70.1806 277.606 70.0055 277.856C69.6216 278.409 69.6248 279.015 69.8844 279.603C70.2116 280.346 73.4082 284.824 73.906 285.476C76.1045 288.363 82.2048 297.173 82.9604 298.232C84.2409 300.025 85.5365 301.807 86.8203 303.596C87.347 304.33 87.8763 305.063 88.3803 305.811C90.0281 308.252 91.6682 310.697 93.3017 313.147C93.5119 313.461 93.6778 313.806 93.8587 314.139C94.1871 314.747 94.2189 315.377 93.9842 316.019C93.7608 316.628 93.5129 317.229 93.2987 317.841C92.9023 318.97 92.9998 320.051 93.7195 321.031C94.6928 322.354 95.6561 323.685 96.6825 324.966C97.7764 326.334 98.9392 327.646 100.07 328.985C100.478 329.468 100.858 329.973 101.283 330.441C101.499 330.679 101.757 330.895 102.034 331.057C102.87 331.546 103.838 331.067 103.914 330.104C103.944 329.724 103.878 329.298 103.727 328.949C103.477 328.373 103.144 327.83 102.807 327.297C101.86 325.804 100.882 324.328 99.9403 322.831C99.7414 322.516 99.6254 322.142 99.5186 321.783C99.4645 321.6 99.5175 321.383 99.5213 321.183L99.5216 321.177Z" fill="currentColor"/>
        <path d="M109.111 37.0562C114.347 41.7174 117.768 47.6331 120.291 54.0646C122.611 59.9642 122.882 66.0003 120.927 72.1385C118.067 81.1049 111.386 85.6087 102.784 87.7213C97.8012 88.9517 92.7623 88.1961 87.8044 87.0748C84.3986 86.3083 81.185 85.0807 78.3457 83.007C70.8261 77.5046 64.5307 70.9441 60.1728 62.5979C56.7972 56.1411 54.2095 49.4745 53.6508 42.1491C53.4432 39.3895 53.5455 36.6533 54.2529 33.9518C55.1759 30.4442 57.1905 27.8096 60.5586 26.4454C62.7105 25.5714 64.9721 24.7507 67.2587 24.4708C87.123 19.9003 107.722 35.821 109.111 37.0562Z" fill="#C4E283"/>
        <path d="M48.6192 82.1994C44.6089 87.0701 39.5292 89.4427 33.1707 88.6347C25.6306 87.6768 19.7271 84.0528 15.736 77.5324C12.1835 71.7245 9.79794 65.5196 9.11098 58.6449C8.4842 52.346 9.09301 46.2629 11.1352 40.304C13.1306 34.5002 16.3003 29.5896 21.6549 26.2764C23.9183 24.8775 26.2913 24.5312 28.8859 24.8529C33.0628 25.3705 36.3878 27.5722 39.3 30.3125C47.8272 38.3153 53.0668 48.1754 54.7579 59.7411C55.8308 67.0788 54.7263 74.1095 50.0459 80.2094C49.5676 80.872 49.1327 81.5717 48.6089 82.2056L48.6192 82.1994Z" fill="#C4E283"/>
        <path d="M19.6348 6.80223C19.4844 6.37958 19.9391 5.99161 20.3323 6.21091C21.7064 6.96919 22.9294 7.62899 24.1236 8.33433C33.7292 13.981 43.0086 20.1348 52.2121 26.419C60.5522 32.1142 68.5945 38.2009 76.2383 44.7682C82.4565 50.1087 88.3788 55.7974 94.447 61.3203C95.2718 62.0663 96.1193 62.7917 97.0304 63.4363C98.4571 64.4442 99.8382 64.3889 100.666 63.3738C101.478 62.3897 101.322 61.1329 100.138 59.9217C97.5046 57.2588 94.8878 54.5648 92.1601 52.0013C88.2282 48.3093 84.2552 44.6773 80.204 41.1138C77.2552 38.5224 74.2119 36.0304 71.1358 33.6006C62.386 26.6827 53.2174 20.3632 43.8477 14.3274C38.6701 10.9957 33.511 7.62462 28.1633 4.59295C21.2386 0.665503 14.1315 -2.94736 7.09407 -6.66581C6.48158 -6.99158 5.79714 -7.23859 5.1275 -7.40307C3.79648 -7.73 2.73305 -7.25487 2.30155 -6.24758C1.85365 -5.20925 2.20086 -4.12465 3.36421 -3.4006C4.40544 -2.75037 5.54921 -2.26781 6.60886 -1.6569C8.03066 -0.843066 9.46074 -0.0272052 10.7902 0.912954C11.312 1.28658 11.6802 1.96435 11.9594 2.57642C16.4515 12.4107 19.5251 22.7732 23.0152 32.975C26.5596 43.3128 29.1098 53.9149 31.2867 64.6094C31.5227 65.7543 31.8103 66.9032 32.1885 68.0042C32.7025 69.4804 33.7395 70.112 34.967 69.8613C36.277 69.5957 37.0242 68.552 36.7552 66.8993C36.0647 62.6799 35.3495 58.4543 34.4774 54.2603C31.5978 40.3953 26.753 27.1082 22.1515 13.7582C21.347 11.4304 20.4765 9.12155 19.6245 6.80846C19.6245 6.80846 19.6266 6.8002 19.6203 6.7899L19.6348 6.80223Z" fill="#067F5A"/>
    </g>
    <defs>
        <clipPath id="clip0_456_2906">
            <rect width="500" height="500" fill="white"/>
        </clipPath>
        <clipPath id="clip1_456_2906">
            <rect width="500" height="154" fill="white" transform="translate(0 346)"/>
        </clipPath>
    </defs>
</svg>
