<svg width="500" height="500" viewBox="0 0 500 500" fill="none" xmlns="http://www.w3.org/2000/svg">
    <g clip-path="url(#clip0_456_2823)">
        <g clip-path="url(#clip1_456_2823)">
            <rect width="500" height="297" transform="matrix(1 0 0 -1 0 297)" fill="currentColor" mask="url(#mask_gradient)"/>
            <path d="M70.6973 24.1307C67.1914 24.1307 65.4305 22.0225 64.0171 20.3248C62.7064 18.7535 61.9483 17.9323 60.3533 17.9323C58.7583 17.9323 58.0082 18.7535 56.6974 20.3248C55.284 22.0225 53.5231 24.1307 50.0173 24.1307C46.5114 24.1307 44.7505 22.0146 43.3371 20.3248C42.0264 18.7535 41.2683 17.9323 39.6812 17.9323C38.0941 17.9323 37.3361 18.7535 36.0253 20.3248C34.6119 22.0225 32.851 24.1307 29.3452 24.1307C25.8393 24.1307 24.0784 22.0146 22.665 20.3248C21.3543 18.7535 20.5962 17.9323 19.0091 17.9323C17.9194 17.9323 17.043 17.0479 17.043 15.9661C17.043 14.8844 17.9273 14 19.0091 14C22.515 14 24.2758 16.1162 25.6892 17.8059C27 19.3773 27.758 20.1985 29.3452 20.1985C30.9323 20.1985 31.6903 19.3773 33.0011 17.8059C34.4145 16.1083 36.1753 14 39.6812 14C43.1871 14 44.9479 16.1162 46.3535 17.8059C47.6642 19.3773 48.4222 20.1985 50.0094 20.1985C51.5965 20.1985 52.3545 19.3773 53.6653 17.8059C55.0787 16.1083 56.8395 14 60.3454 14C63.8513 14 65.6121 16.1083 67.0255 17.8059C68.3363 19.3773 69.0943 20.1985 70.6894 20.1985C72.2844 20.1985 73.0424 19.3773 74.3532 17.8059C75.7666 16.1083 77.5274 14 81.0333 14C82.123 14 82.9994 14.8844 82.9994 15.9661C82.9994 17.0479 82.1151 17.9323 81.0333 17.9323C79.4383 17.9323 78.6803 18.7535 77.3695 20.3248C75.9561 22.0225 74.1952 24.1307 70.6894 24.1307H70.6973Z"
                  fill="white" fill-opacity="0.4"/>
            <path d="M49.6464 36.1483C46.1405 36.1483 44.3797 34.0401 42.9663 32.3424C41.6555 30.7711 40.8975 29.9499 39.3024 29.9499C37.7074 29.9499 36.9573 30.7711 35.6465 32.3424C34.2331 34.0401 32.4723 36.1483 28.9664 36.1483C25.4605 36.1483 23.6997 34.0322 22.2942 32.3424C20.9834 30.7711 20.2254 29.9499 18.6382 29.9499C17.0511 29.9499 16.2931 30.7711 14.9823 32.3424C13.5689 34.0401 11.8081 36.1483 8.30219 36.1483C4.7963 36.1483 3.03546 34.0322 1.62205 32.3424C0.311294 30.7711 -0.446736 29.9499 -2.03386 29.9499C-3.12353 29.9499 -4 29.0655 -4 27.9837C-4 26.9019 -3.11563 26.0176 -2.03386 26.0176C1.47203 26.0176 3.23287 28.1337 4.64628 29.8235C5.95704 31.3949 6.71507 32.216 8.30219 32.216C9.88931 32.216 10.6473 31.3949 11.9581 29.8235C13.3715 28.1258 15.1324 26.0176 18.6382 26.0176C22.1441 26.0176 23.905 28.1337 25.3184 29.8235C26.6291 31.3949 27.3872 32.216 28.9743 32.216C30.5614 32.216 31.3194 31.3949 32.6302 29.8235C34.0436 28.1258 35.8045 26.0176 39.3103 26.0176C42.8162 26.0176 44.5771 28.1258 45.9905 29.8235C47.3012 31.3949 48.0593 32.216 49.6543 32.216C51.2493 32.216 52.0073 31.3949 53.3181 29.8235C54.7315 28.1258 56.4923 26.0176 59.9982 26.0176C61.0879 26.0176 61.9644 26.9019 61.9644 27.9837C61.9644 29.0655 61.08 29.9499 59.9982 29.9499C58.4032 29.9499 57.6452 30.7711 56.3344 32.3424C54.921 34.0401 53.1602 36.1483 49.6543 36.1483H49.6464Z"
                  fill="white" fill-opacity="0.4"/>
            <path d="M506.697 170.131C503.191 170.131 501.431 168.022 500.017 166.325C498.706 164.753 497.948 163.932 496.353 163.932C494.758 163.932 494.008 164.753 492.697 166.325C491.284 168.022 489.523 170.131 486.017 170.131C482.511 170.131 480.751 168.015 479.337 166.325C478.026 164.753 477.268 163.932 475.681 163.932C474.094 163.932 473.336 164.753 472.025 166.325C470.612 168.022 468.851 170.131 465.345 170.131C461.839 170.131 460.078 168.015 458.665 166.325C457.354 164.753 456.596 163.932 455.009 163.932C453.919 163.932 453.043 163.048 453.043 161.966C453.043 160.884 453.927 160 455.009 160C458.515 160 460.276 162.116 461.689 163.806C463 165.377 463.758 166.198 465.345 166.198C466.932 166.198 467.69 165.377 469.001 163.806C470.414 162.108 472.175 160 475.681 160C479.187 160 480.948 162.116 482.353 163.806C483.664 165.377 484.422 166.198 486.009 166.198C487.596 166.198 488.355 165.377 489.665 163.806C491.079 162.108 492.84 160 496.345 160C499.851 160 501.612 162.108 503.026 163.806C504.336 165.377 505.094 166.198 506.689 166.198C508.284 166.198 509.042 165.377 510.353 163.806C511.767 162.108 513.527 160 517.033 160C518.123 160 518.999 160.884 518.999 161.966C518.999 163.048 518.115 163.932 517.033 163.932C515.438 163.932 514.68 164.753 513.369 166.325C511.956 168.022 510.195 170.131 506.689 170.131H506.697Z"
                  fill="white" fill-opacity="0.4"/>
            <path d="M485.646 182.148C482.141 182.148 480.38 180.04 478.966 178.342C477.655 176.771 476.897 175.95 475.302 175.95C473.707 175.95 472.957 176.771 471.647 178.342C470.233 180.04 468.472 182.148 464.966 182.148C461.461 182.148 459.7 180.032 458.294 178.342C456.983 176.771 456.225 175.95 454.638 175.95C453.051 175.95 452.293 176.771 450.982 178.342C449.569 180.04 447.808 182.148 444.302 182.148C440.796 182.148 439.035 180.032 437.622 178.342C436.311 176.771 435.553 175.95 433.966 175.95C432.876 175.95 432 175.065 432 173.984C432 172.902 432.884 172.018 433.966 172.018C437.472 172.018 439.233 174.134 440.646 175.824C441.957 177.395 442.715 178.216 444.302 178.216C445.889 178.216 446.647 177.395 447.958 175.824C449.372 174.126 451.132 172.018 454.638 172.018C458.144 172.018 459.905 174.134 461.318 175.824C462.629 177.395 463.387 178.216 464.974 178.216C466.561 178.216 467.319 177.395 468.63 175.824C470.044 174.126 471.804 172.018 475.31 172.018C478.816 172.018 480.577 174.126 481.99 175.824C483.301 177.395 484.059 178.216 485.654 178.216C487.249 178.216 488.007 177.395 489.318 175.824C490.732 174.126 492.492 172.018 495.998 172.018C497.088 172.018 497.964 172.902 497.964 173.984C497.964 175.065 497.08 175.95 495.998 175.95C494.403 175.95 493.645 176.771 492.334 178.342C490.921 180.04 489.16 182.148 485.654 182.148H485.646Z"
                  fill="white" fill-opacity="0.4"/>
        </g>
        <g filter="url(#filter0_d_456_2823)">
            <path d="M433.448 396.378C433.515 396.42 433.581 396.462 433.654 396.505H433.249C421.657 403.595 421.596 414.999 421.596 414.999C421.596 414.999 421.542 403.595 409.95 396.505H409.545C409.618 396.462 409.684 396.42 409.751 396.378C409.684 396.335 409.618 396.293 409.545 396.251H409.95C421.542 389.166 421.596 377.756 421.596 377.756C421.596 377.756 421.657 389.166 433.249 396.251H433.654C433.581 396.293 433.515 396.335 433.448 396.378Z"
                  fill="white"/>
            <path d="M443.055 368.737C443.103 368.767 443.152 368.797 443.2 368.827H442.91C434.609 373.909 434.567 382.077 434.567 382.077C434.567 382.077 434.531 373.909 426.224 368.827H425.934C425.982 368.797 426.036 368.767 426.085 368.737C426.036 368.706 425.988 368.676 425.934 368.646H426.224C434.525 363.57 434.567 355.396 434.567 355.396C434.567 355.396 434.609 363.57 442.91 368.646H443.2C443.152 368.676 443.097 368.706 443.055 368.737Z"
                  fill="white"/>
            <path d="M419.346 363.479C419.382 363.503 419.424 363.527 419.461 363.551H419.231C412.709 367.544 412.673 373.957 412.673 373.957C412.673 373.957 412.642 367.538 406.121 363.551H405.891C405.933 363.527 405.969 363.503 406.006 363.479C405.969 363.454 405.927 363.43 405.891 363.406H406.121C412.642 359.419 412.673 353 412.673 353C412.673 353 412.703 359.419 419.231 363.406H419.461C419.418 363.43 419.382 363.454 419.346 363.479Z"
                  fill="white"/>
            <path d="M407.13 385.066C408.527 385.066 409.659 383.933 409.659 382.537C409.659 381.14 408.527 380.008 407.13 380.008C405.734 380.008 404.602 381.14 404.602 382.537C404.602 383.933 405.734 385.066 407.13 385.066Z"
                  fill="white"/>
            <path d="M400.882 378.228C401.921 378.228 402.763 377.386 402.763 376.346C402.763 375.307 401.921 374.465 400.882 374.465C399.842 374.465 399 375.307 399 376.346C399 377.386 399.842 378.228 400.882 378.228Z"
                  fill="white"/>
            <path d="M402.769 390.462C403.581 390.462 404.239 389.804 404.239 388.992C404.239 388.18 403.581 387.521 402.769 387.521C401.957 387.521 401.299 388.18 401.299 388.992C401.299 389.804 401.957 390.462 402.769 390.462Z"
                  fill="white"/>
            <path d="M439.135 391.328C440.175 391.328 441.017 390.485 441.017 389.446C441.017 388.407 440.175 387.564 439.135 387.564C438.096 387.564 437.254 388.407 437.254 389.446C437.254 390.485 438.096 391.328 439.135 391.328Z"
                  fill="white"/>
            <path d="M443.956 382.94C444.768 382.94 445.427 382.282 445.427 381.47C445.427 380.658 444.768 380 443.956 380C443.145 380 442.486 380.658 442.486 381.47C442.486 382.282 443.145 382.94 443.956 382.94Z"
                  fill="white"/>
        </g>
        <g filter="url(#filter1_d_456_2823)">
            <path d="M62.4482 213.378C62.5148 213.42 62.5813 213.462 62.6539 213.505H62.2486C50.6569 220.595 50.5964 231.999 50.5964 231.999C50.5964 231.999 50.542 220.595 38.9503 213.505H38.5449C38.6175 213.462 38.6841 213.42 38.7506 213.378C38.6841 213.335 38.6175 213.293 38.5449 213.251H38.9503C50.542 206.166 50.5964 194.756 50.5964 194.756C50.5964 194.756 50.6569 206.166 62.2486 213.251H62.6539C62.5813 213.293 62.5148 213.335 62.4482 213.378Z"
                  fill="white"/>
            <path d="M72.0549 185.737C72.1033 185.767 72.1517 185.797 72.2001 185.827H71.9097C63.6092 190.909 63.5669 199.077 63.5669 199.077C63.5669 199.077 63.5306 190.909 55.224 185.827H54.9336C54.982 185.797 55.0364 185.767 55.0848 185.737C55.0364 185.706 54.988 185.676 54.9336 185.646H55.224C63.5245 180.57 63.5669 172.396 63.5669 172.396C63.5669 172.396 63.6092 180.57 71.9097 185.646H72.2001C72.1517 185.676 72.0973 185.706 72.0549 185.737Z"
                  fill="white"/>
            <path d="M48.3457 180.479C48.382 180.503 48.4243 180.527 48.4606 180.551H48.2307C41.7089 184.544 41.6726 190.957 41.6726 190.957C41.6726 190.957 41.6424 184.538 35.1205 180.551H34.8906C34.933 180.527 34.9693 180.503 35.0056 180.479C34.9693 180.454 34.9269 180.43 34.8906 180.406H35.1205C41.6424 176.419 41.6726 170 41.6726 170C41.6726 170 41.7029 176.419 48.2307 180.406H48.4606C48.4183 180.43 48.382 180.454 48.3457 180.479Z"
                  fill="white"/>
            <path d="M36.1304 202.066C37.5271 202.066 38.6593 200.933 38.6593 199.537C38.6593 198.14 37.5271 197.008 36.1304 197.008C34.7338 197.008 33.6016 198.14 33.6016 199.537C33.6016 200.933 34.7338 202.066 36.1304 202.066Z"
                  fill="white"/>
            <path d="M29.8815 195.228C30.9207 195.228 31.7631 194.386 31.7631 193.346C31.7631 192.307 30.9207 191.465 29.8815 191.465C28.8424 191.465 28 192.307 28 193.346C28 194.386 28.8424 195.228 29.8815 195.228Z"
                  fill="white"/>
            <path d="M31.769 207.462C32.5809 207.462 33.2391 206.804 33.2391 205.992C33.2391 205.18 32.5809 204.521 31.769 204.521C30.957 204.521 30.2988 205.18 30.2988 205.992C30.2988 206.804 30.957 207.462 31.769 207.462Z"
                  fill="white"/>
            <path d="M68.1354 208.328C69.1746 208.328 70.017 207.485 70.017 206.446C70.017 205.407 69.1746 204.564 68.1354 204.564C67.0963 204.564 66.2539 205.407 66.2539 206.446C66.2539 207.485 67.0963 208.328 68.1354 208.328Z"
                  fill="white"/>
            <path d="M72.9565 199.94C73.7684 199.94 74.4266 199.282 74.4266 198.47C74.4266 197.658 73.7684 197 72.9565 197C72.1445 197 71.4863 197.658 71.4863 198.47C71.4863 199.282 72.1445 199.94 72.9565 199.94Z"
                  fill="white"/>
        </g>
        <mask id="mask0_456_2823" style="mask-type:luminance" maskUnits="userSpaceOnUse" x="387" y="-77" width="191"
              height="190">
            <path d="M482.741 112.88C535.131 112.88 577.601 70.4099 577.601 18.0202C577.601 -34.3696 535.131 -76.8398 482.741 -76.8398C430.351 -76.8398 387.881 -34.3696 387.881 18.0202C387.881 70.4099 430.351 112.88 482.741 112.88Z"
                  fill="white"/>
        </mask>
        <g mask="url(#mask0_456_2823)">
            <path d="M329.271 38.9695L490.971 -122.73" stroke="white" stroke-width="0.75" stroke-miterlimit="10"/>
            <path d="M335.291 44.9991L497.001 -116.711" stroke="white" stroke-width="0.75" stroke-miterlimit="10"/>
            <path d="M341.311 51.0186L503.021 -110.691" stroke="white" stroke-width="0.75" stroke-miterlimit="10"/>
            <path d="M347.342 57.0398L509.042 -104.66" stroke="white" stroke-width="0.75" stroke-miterlimit="10"/>
            <path d="M353.361 63.0694L515.071 -98.6406" stroke="white" stroke-width="0.75" stroke-miterlimit="10"/>
            <path d="M359.381 69.0889L521.091 -92.6211" stroke="white" stroke-width="0.75" stroke-miterlimit="10"/>
            <path d="M365.412 75.1201L527.122 -86.5898" stroke="white" stroke-width="0.75" stroke-miterlimit="10"/>
            <path d="M371.432 81.1397L533.142 -80.5703" stroke="white" stroke-width="0.75" stroke-miterlimit="10"/>
            <path d="M377.451 87.1592L539.161 -74.5508" stroke="white" stroke-width="0.75" stroke-miterlimit="10"/>
            <path d="M383.482 93.1905L545.192 -68.5195" stroke="white" stroke-width="0.75" stroke-miterlimit="10"/>
            <path d="M389.502 99.21L551.212 -62.5" stroke="white" stroke-width="0.75" stroke-miterlimit="10"/>
            <path d="M395.531 105.229L557.231 -56.4707" stroke="white" stroke-width="0.75" stroke-miterlimit="10"/>
            <path d="M401.551 111.259L563.261 -50.4512" stroke="white" stroke-width="0.75" stroke-miterlimit="10"/>
            <path d="M407.572 117.28L569.282 -44.4297" stroke="white" stroke-width="0.75" stroke-miterlimit="10"/>
            <path d="M413.602 123.3L575.302 -38.4004" stroke="white" stroke-width="0.75" stroke-miterlimit="10"/>
            <path d="M419.621 129.329L581.331 -32.3809" stroke="white" stroke-width="0.75" stroke-miterlimit="10"/>
            <path d="M425.641 135.349L587.351 -26.3613" stroke="white" stroke-width="0.75" stroke-miterlimit="10"/>
            <path d="M431.672 141.38L593.382 -20.3301" stroke="white" stroke-width="0.75" stroke-miterlimit="10"/>
            <path d="M437.691 147.399L599.401 -14.3105" stroke="white" stroke-width="0.75" stroke-miterlimit="10"/>
            <path d="M443.711 153.419L605.421 -8.29102" stroke="white" stroke-width="0.75" stroke-miterlimit="10"/>
            <path d="M449.742 159.45L611.452 -2.25977" stroke="white" stroke-width="0.75" stroke-miterlimit="10"/>
            <path d="M455.762 165.47L617.472 3.75977" stroke="white" stroke-width="0.75" stroke-miterlimit="10"/>
            <path d="M461.791 171.489L623.491 9.78906" stroke="white" stroke-width="0.75" stroke-miterlimit="10"/>
        </g>
        <path d="M-74.3107 125.43C-68.7693 104.484 -31.0355 58.9405 75.5686 44.3347C182.173 29.729 180.502 -33.2943 166.342 -62.9802"
              stroke="white" stroke-dasharray="2 2"/>
    </g>
    <defs>
        <filter id="filter0_d_456_2823" x="379" y="337" width="86.4258" height="102" filterUnits="userSpaceOnUse"
                color-interpolation-filters="sRGB">
            <feFlood flood-opacity="0" result="BackgroundImageFix"/>
            <feColorMatrix in="SourceAlpha" type="matrix" values="0 0 0 0 0 0 0 0 0 0 0 0 0 0 0 0 0 0 127 0"
                           result="hardAlpha"/>
            <feOffset dy="4"/>
            <feGaussianBlur stdDeviation="10"/>
            <feComposite in2="hardAlpha" operator="out"/>
            <feColorMatrix type="matrix" values="0 0 0 0 0 0 0 0 0 0 0 0 0 0 0 0 0 0 0.15 0"/>
            <feBlend mode="normal" in2="BackgroundImageFix" result="effect1_dropShadow_456_2823"/>
            <feBlend mode="normal" in="SourceGraphic" in2="effect1_dropShadow_456_2823" result="shape"/>
        </filter>
        <filter id="filter1_d_456_2823" x="8" y="154" width="86.4258" height="102" filterUnits="userSpaceOnUse"
                color-interpolation-filters="sRGB">
            <feFlood flood-opacity="0" result="BackgroundImageFix"/>
            <feColorMatrix in="SourceAlpha" type="matrix" values="0 0 0 0 0 0 0 0 0 0 0 0 0 0 0 0 0 0 127 0"
                           result="hardAlpha"/>
            <feOffset dy="4"/>
            <feGaussianBlur stdDeviation="10"/>
            <feComposite in2="hardAlpha" operator="out"/>
            <feColorMatrix type="matrix" values="0 0 0 0 0 0 0 0 0 0 0 0 0 0 0 0 0 0 0.15 0"/>
            <feBlend mode="normal" in2="BackgroundImageFix" result="effect1_dropShadow_456_2823"/>
            <feBlend mode="normal" in="SourceGraphic" in2="effect1_dropShadow_456_2823" result="shape"/>
        </filter>
        <mask id="mask_gradient">
            <rect width="500" height="500" fill="url(#paint0_linear_456_2823)"/>
        </mask>
        <linearGradient id="paint0_linear_456_2823" x1="250" y1="0" x2="250" y2="297" gradientUnits="userSpaceOnUse">
            <stop stop-color="white" stop-opacity="0"/>
            <stop offset="0.307371" stop-color="white" stop-opacity="0.7"/>
            <stop offset="1" stop-color="white"/>
        </linearGradient>
        <clipPath id="clip0_456_2823">
            <rect width="500" height="500" fill="white"/>
        </clipPath>
        <clipPath id="clip1_456_2823">
            <rect width="500" height="297" fill="white" transform="matrix(1 0 0 -1 0 297)"/>
        </clipPath>
    </defs>
</svg>
