<svg width="65" height="11" viewBox="0 0 65 11" fill="none" xmlns="http://www.w3.org/2000/svg">
    <path d="M6.276 7.78C5.684 7.78 5.216 7.612 4.872 7.276C4.528 6.94 4.356 6.436 4.356 5.764C4.356 5.076 4.54 4.564 4.908 4.228C5.284 3.884 5.768 3.712 6.36 3.712C6.592 3.712 6.808 3.736 7.008 3.784C7.208 3.832 7.4 3.904 7.584 4L7.26 4.84C7.1 4.768 6.948 4.716 6.804 4.684C6.66 4.644 6.512 4.624 6.36 4.624C6.096 4.624 5.888 4.72 5.736 4.912C5.592 5.104 5.52 5.388 5.52 5.764C5.52 6.14 5.592 6.42 5.736 6.604C5.888 6.788 6.092 6.88 6.348 6.88C6.532 6.88 6.72 6.852 6.912 6.796C7.104 6.732 7.296 6.652 7.488 6.556V7.48C7.304 7.576 7.116 7.652 6.924 7.708C6.732 7.756 6.516 7.78 6.276 7.78ZM6 10.912C5.28 10.912 4.604 10.776 3.972 10.504C3.348 10.24 2.796 9.872 2.316 9.4C1.844 8.92 1.472 8.368 1.2 7.744C0.936 7.112 0.804 6.436 0.804 5.716C0.804 4.996 0.936 4.324 1.2 3.7C1.472 3.068 1.844 2.516 2.316 2.044C2.796 1.564 3.348 1.192 3.972 0.927999C4.604 0.656 5.28 0.52 6 0.52C6.72 0.52 7.392 0.656 8.016 0.927999C8.648 1.192 9.2 1.564 9.672 2.044C10.152 2.516 10.524 3.068 10.788 3.7C11.06 4.324 11.196 4.996 11.196 5.716C11.196 6.436 11.06 7.112 10.788 7.744C10.524 8.368 10.152 8.92 9.672 9.4C9.2 9.872 8.648 10.24 8.016 10.504C7.392 10.776 6.72 10.912 6 10.912ZM6 9.844C6.576 9.844 7.112 9.74 7.608 9.532C8.104 9.316 8.54 9.02 8.916 8.644C9.3 8.26 9.596 7.82 9.804 7.324C10.02 6.82 10.128 6.284 10.128 5.716C10.128 5.14 10.02 4.604 9.804 4.108C9.596 3.612 9.3 3.176 8.916 2.8C8.54 2.416 8.1 2.12 7.596 1.912C7.1 1.696 6.568 1.588 6 1.588C5.424 1.588 4.888 1.696 4.392 1.912C3.896 2.12 3.456 2.416 3.072 2.8C2.696 3.176 2.4 3.616 2.184 4.12C1.976 4.616 1.872 5.148 1.872 5.716C1.872 6.292 1.976 6.828 2.184 7.324C2.4 7.82 2.696 8.26 3.072 8.644C3.456 9.02 3.896 9.316 4.392 9.532C4.896 9.74 5.432 9.844 6 9.844ZM16.8984 10H15L17.9414 1.51562H20.2031L23.1328 10H21.2461L20.6133 8.04297H17.543L16.8984 10ZM17.9883 6.67188H20.168L19.1016 3.42578H19.043L17.9883 6.67188ZM24.0586 10V3.63672H25.7344V4.73828H25.8047C26.0391 3.95312 26.625 3.54297 27.3398 3.54297C27.5156 3.54297 27.7383 3.56641 27.8906 3.60156V5.14844C27.7266 5.10156 27.3984 5.05469 27.1523 5.05469C26.3672 5.05469 25.793 5.60547 25.793 6.37891V10H24.0586ZM32.4023 3.63672V4.9375H31.207V8.04297C31.207 8.54688 31.4531 8.67578 31.8047 8.6875C31.9805 8.6875 32.2852 8.67578 32.4961 8.65234V10.0234C32.3086 10.0586 32.0039 10.082 31.5703 10.082C30.3164 10.082 29.4609 9.51953 29.4727 8.28906V4.9375H28.5938V3.63672H29.4727V2.11328H31.207V3.63672H32.4023ZM39.1992 4.46875C39.0586 3.53125 38.332 2.95703 37.3477 2.95703C36.0234 2.95703 35.1562 3.97656 35.1562 5.75781C35.1562 7.58594 36.0352 8.55859 37.3359 8.55859C38.3086 8.55859 39.0234 8.01953 39.1992 7.10547L40.9805 7.11719C40.7812 8.6875 39.4688 10.1172 37.3125 10.1172C35.0391 10.1172 33.3633 8.52344 33.3633 5.75781C33.3633 2.99219 35.0742 1.39844 37.3125 1.39844C39.2695 1.39844 40.7461 2.52344 40.9805 4.46875H39.1992ZM43.9102 6.32031V10H42.1758V1.51562H43.8633V4.75H43.9336C44.2266 4.01172 44.8711 3.55469 45.832 3.55469C47.1562 3.55469 48.0352 4.44531 48.0352 5.94531V10H46.3008V6.25C46.3008 5.46484 45.8789 4.99609 45.1523 4.99609C44.4258 4.99609 43.9102 5.47656 43.9102 6.32031ZM49.0664 8.21875C49.0664 6.80078 50.2148 6.33203 51.4336 6.26172C51.8906 6.23242 52.7461 6.19141 53.0156 6.17969V5.66406C53.0039 5.13672 52.6406 4.82031 51.9961 4.82031C51.4102 4.82031 51.0352 5.08984 50.9414 5.52344H49.2891C49.3945 4.42188 50.3555 3.55469 52.043 3.55469C53.4258 3.55469 54.7383 4.17578 54.7383 5.71094V10H53.0977V9.12109H53.0508C52.7344 9.70703 52.1367 10.1172 51.1875 10.1172C49.9688 10.1172 49.0664 9.48438 49.0664 8.21875ZM50.7305 8.17188C50.7305 8.66406 51.1289 8.92188 51.6797 8.92188C52.4648 8.92188 53.0273 8.39453 53.0156 7.72656V7.25781C52.752 7.26953 52.0137 7.31055 51.7148 7.33984C51.1172 7.39844 50.7305 7.67969 50.7305 8.17188ZM56.0625 10V3.63672H57.7969V10H56.0625ZM56.9297 2.80469C56.4023 2.80469 55.9805 2.40625 55.9805 1.92578C55.9805 1.43359 56.4023 1.03516 56.9297 1.03516C57.4453 1.03516 57.8672 1.43359 57.8672 1.92578C57.8672 2.40625 57.4453 2.80469 56.9297 2.80469ZM60.8789 6.32031V10H59.1445V3.63672H60.7969V4.75H60.8672C61.1602 4.01172 61.8398 3.55469 62.7773 3.55469C64.1016 3.55469 64.9805 4.45703 64.9688 5.94531V10H63.2461V6.25C63.2461 5.46484 62.8125 4.99609 62.0977 4.99609C61.3711 4.99609 60.8789 5.47656 60.8789 6.32031Z" fill="white"/>
</svg>
