<svg width="128" height="128" viewBox="0 0 128 128" fill="none" xmlns="http://www.w3.org/2000/svg">
    <path d="M38.9526 101.435C45.185 107.107 49.3418 108.976 57.2087 110.473C57.9065 106.805 58.3317 104.448 58.1294 100.355C58.0393 98.5328 57.5679 96.7364 56.6888 95.1375C55.8732 93.6539 55.0369 92.5151 53.6337 91.1684C51.576 89.3808 50.1569 88.2053 48.1893 86.7172C47.0644 85.8665 46.0307 84.893 45.1795 83.7684C41.9886 79.5522 40.5232 76.5743 40.7638 71.1484C41.8395 64.9555 42.7047 61.5807 45.7687 56.1334L64.3587 27.5334L82.2337 56.1334C85.0723 61.126 86.1005 64.3069 86.9302 69.2021C87.1488 70.4914 87.184 71.8083 87.0135 73.1048C86.313 78.434 85.1229 81.2659 82.4642 84.3891C81.852 85.1082 81.1386 85.7358 80.376 86.293C76.4435 89.1667 73.9768 90.6005 70.0787 92.5984C70.7822 89.0959 70.0643 81.3245 69.3638 77.5834L67.2188 71.1484L60.7837 56.1334L64.3587 76.1534C65.8366 84.0228 65.8534 88.1427 65.7887 95.4584L64.3587 110.473C70.0828 110.518 73.3351 110.156 79.3737 108.328C84.2569 106.274 86.5399 104.456 90.0987 100.463C94.5565 94.8674 96.2106 90.81 96.5337 80.4434C95.9374 71.9133 94.6602 67.3264 90.0987 59.7084L64.3587 17.5234L37.9038 59.7084C33.9065 66.9316 32.567 71.4383 31.6081 79.2616C31.5119 80.0462 31.4825 80.843 31.516 81.6328C31.8182 88.7561 32.4076 92.6559 37.0685 99.302C37.6135 100.079 38.2506 100.796 38.9526 101.435Z"
          fill="currentColor"/>
</svg>
