<svg width="256" height="256" viewBox="0 0 256 256" fill="none" xmlns="http://www.w3.org/2000/svg">
    <path d="M102.953 127.935C109.185 133.607 113.342 135.476 121.209 136.973C121.907 133.305 122.332 130.948 122.129 126.855C122.039 125.033 121.568 123.236 120.689 121.637C119.873 120.154 119.037 119.015 117.634 117.668C115.576 115.881 114.157 114.705 112.189 113.217C111.064 112.366 110.031 111.393 109.18 110.268C105.989 106.052 104.523 103.074 104.764 97.6484C105.84 91.4555 106.705 88.0807 109.769 82.6334L128.359 54.0334L146.234 82.6334C149.072 87.626 150.101 90.8069 150.93 95.7021C151.149 96.9914 151.184 98.3083 151.014 99.6048C150.313 104.934 149.123 107.766 146.464 110.889C145.852 111.608 145.139 112.236 144.376 112.793C140.444 115.667 137.977 117.101 134.079 119.098C134.782 115.596 134.064 107.825 133.364 104.083L131.219 97.6484L124.784 82.6334L128.359 102.653C129.837 110.523 129.853 114.643 129.789 121.958L128.359 136.973C134.083 137.018 137.335 136.656 143.374 134.828C148.257 132.774 150.54 130.956 154.099 126.963C158.556 121.367 160.211 117.31 160.534 106.943C159.937 98.4133 158.66 93.8264 154.099 86.2084L128.359 44.0234L101.904 86.2084C97.9065 93.4316 96.567 97.9383 95.6081 105.762C95.5119 106.546 95.4825 107.343 95.516 108.133C95.8182 115.256 96.4076 119.156 101.069 125.802C101.614 126.579 102.251 127.296 102.953 127.935Z" fill="white"/>
    <path d="M61.9478 176.977V152.23H77.8071V155.956H66.3911V162.724H76.7134V166.449H66.3911V176.977H61.9478ZM80.3364 171.747C80.3364 167.577 83.7886 166.347 87.2407 166.142C88.5225 166.056 91.1885 165.902 91.9917 165.868V164.398C91.9917 162.553 90.7954 161.493 88.6421 161.493C86.6938 161.493 85.4976 162.382 85.1558 163.715H80.9517C81.2593 160.57 84.0962 158.178 88.7446 158.178C92.2651 158.178 96.3325 159.613 96.3325 164.569V176.977H92.1626V174.413H92.0259C91.2056 175.985 89.4624 177.353 86.5571 177.353C83.0024 177.353 80.3364 175.404 80.3364 171.747ZM84.5405 171.713C84.5405 173.319 85.8394 174.14 87.6851 174.14C90.3169 174.14 92.0259 172.396 92.0259 170.312V168.773L87.9243 169.047C85.8394 169.218 84.5405 170.072 84.5405 171.713ZM100.434 176.977V158.417H104.672V161.493H104.877C105.527 159.374 107.338 158.144 109.458 158.144C109.936 158.144 110.62 158.178 111.03 158.246V162.279C110.654 162.143 109.731 162.006 109.013 162.006C106.586 162.006 104.809 163.681 104.809 166.039V176.977H100.434ZM113.627 176.977V158.417H117.797V161.562H118.037C118.789 159.442 120.668 158.178 123.129 158.178C125.659 158.178 127.436 159.442 128.154 161.562H128.359C129.179 159.511 131.23 158.178 133.93 158.178C137.314 158.178 139.707 160.365 139.707 164.501V176.977H135.366V165.185C135.366 162.86 133.964 161.835 132.187 161.835C130.034 161.835 128.803 163.305 128.803 165.39V176.977H124.565V165.014C124.565 163.1 123.266 161.835 121.42 161.835C119.541 161.835 118.002 163.373 118.002 165.697V176.977H113.627ZM144.082 176.977V152.23H153.378C159.052 152.23 162.094 155.683 162.094 160.434C162.094 165.185 159.018 168.603 153.31 168.603H148.525V176.977H144.082ZM148.525 164.945H152.695C156.044 164.945 157.548 163.065 157.548 160.434C157.548 157.768 156.044 155.956 152.695 155.956H148.525V164.945ZM165.478 176.977V158.417H169.716V161.493H169.921C170.571 159.374 172.382 158.144 174.501 158.144C174.98 158.144 175.664 158.178 176.074 158.246V162.279C175.698 162.143 174.775 162.006 174.057 162.006C171.63 162.006 169.853 163.681 169.853 166.039V176.977H165.478ZM186.157 177.353C180.756 177.353 177.27 173.524 177.27 167.782C177.27 162.006 180.756 158.178 186.157 158.178C191.591 158.178 195.043 162.006 195.043 167.782C195.043 173.524 191.591 177.353 186.157 177.353ZM186.191 173.866C189.165 173.866 190.634 171.166 190.634 167.748C190.634 164.364 189.165 161.63 186.191 161.63C183.149 161.63 181.679 164.364 181.679 167.748C181.679 171.166 183.149 173.866 186.191 173.866Z" fill="white"/>
    <path d="M52.9062 207.977H50.7344L54.7188 196.664H57.2188L61.2188 207.977H59.0469L58.1094 205.18H53.8438L52.9062 207.977ZM54.3906 203.539H57.5625L56.0156 198.977H55.9219L54.3906 203.539ZM64.5938 196.664V207.977H62.5625V196.664H64.5938ZM77.1875 195.242V200.758H79.2812V202.211H77.1875V209.336H75.4531V195.242H77.1875ZM73.4531 196.711C73.4531 200.867 71.7344 204.508 67.0312 206.82L66.0469 205.477C69.4844 203.766 71.3438 201.359 71.7031 198.148H66.8125V196.711H73.4531ZM95.5781 204.445V209.383H93.8438V205.867H85.9531V204.445H95.5781ZM95.5781 195.242V203.82H93.8438V200.617H91.2812V199.195H93.8438V195.242H95.5781ZM88.8281 198.352C88.8281 199.977 90 201.539 92.2188 202.148L91.4375 203.539C89.7969 203.055 88.625 202.062 87.9844 200.789C87.3594 202.172 86.1953 203.25 84.5312 203.758L83.7031 202.414C85.9062 201.742 87.0938 200.086 87.0938 198.352V198.195H84.1406V196.82H87.0938V195.18H88.8438V196.82H91.7812V198.195H88.8281V198.352ZM109.406 204.445V209.383H107.672V205.867H99.7812V204.445H109.406ZM109.406 195.242V203.82H107.672V200.617H105.109V199.195H107.672V195.242H109.406ZM102.656 198.352C102.656 199.977 103.828 201.539 106.047 202.148L105.266 203.539C103.625 203.055 102.453 202.062 101.812 200.789C101.188 202.172 100.023 203.25 98.3594 203.758L97.5312 202.414C99.7344 201.742 100.922 200.086 100.922 198.352V198.195H97.9688V196.82H100.922V195.18H102.672V196.82H105.609V198.195H102.656V198.352ZM114.156 206.867L112.844 211.242H111.359L112.172 206.867H114.156ZM126.469 196.617V205.867H119.781V196.617H126.469ZM121.484 197.977V204.477H124.734V197.977H121.484ZM130.344 195.242V200.664H132.516V202.133H130.344V209.367H128.609V195.242H130.344ZM139.375 196.867C139.367 198.195 139.242 199.469 138.922 200.664H140.656V195.586H142.297V208.695H140.656V202.07H138.406C137.617 203.766 136.289 205.273 134.094 206.508L133.109 205.32C135.031 204.227 136.203 202.953 136.891 201.492L133.359 201.852L133.156 200.352L137.391 200.117C137.531 199.531 137.625 198.914 137.672 198.273H133.844V196.867H139.375ZM145.297 195.242V209.367H143.641V195.242H145.297ZM154.547 196.258V197.633H149.484V198.977H154.141V200.336H149.484V201.695C152.125 201.711 153.734 201.672 155.594 201.352L155.766 202.727C153.734 203.055 151.969 203.117 148.922 203.102H147.719V196.258H154.547ZM158.703 195.258V203.867H156.953V195.258H158.703ZM153.938 204.07C156.906 204.07 158.766 205.039 158.766 206.711C158.766 208.383 156.906 209.352 153.938 209.352C150.922 209.352 149.094 208.383 149.109 206.711C149.094 205.039 150.922 204.07 153.938 204.07ZM153.938 205.414C151.938 205.414 150.828 205.883 150.844 206.711C150.828 207.555 151.938 208.008 153.938 208.008C155.891 208.008 157.031 207.555 157.031 206.711C157.031 205.883 155.891 205.414 153.938 205.414ZM172.516 195.242V209.383H170.766V195.242H172.516ZM164.906 196.273C167.031 196.273 168.578 198.211 168.594 201.258C168.578 204.336 167.031 206.258 164.906 206.258C162.766 206.258 161.219 204.336 161.219 201.258C161.219 198.211 162.766 196.273 164.906 196.273ZM164.906 197.836C163.703 197.836 162.891 199.102 162.891 201.258C162.891 203.43 163.703 204.695 164.906 204.695C166.094 204.695 166.906 203.43 166.906 201.258C166.906 199.102 166.094 197.836 164.906 197.836ZM182.953 196.383C182.953 197.445 183.547 198.688 184.812 199.445C186.078 198.688 186.656 197.477 186.656 196.383V195.555H188.422V196.383C188.422 197.742 189.219 199.102 191.047 199.664L190.25 200.945C188.906 200.5 188.023 199.641 187.547 198.586C187.07 199.68 186.195 200.641 184.812 201.117C183.43 200.633 182.555 199.664 182.094 198.555C181.602 199.602 180.734 200.477 179.422 200.93L178.562 199.664C180.391 199.07 181.234 197.648 181.234 196.383V195.555H182.953V196.383ZM191.266 201.758V203.164H185.672V204.727H189.688V209.367H187.938V206.102H179.781V204.727H183.953V203.164H178.391V201.758H191.266ZM196.781 196.383C196.781 197.445 197.375 198.688 198.641 199.445C199.906 198.688 200.484 197.477 200.484 196.383V195.555H202.25V196.383C202.25 197.742 203.047 199.102 204.875 199.664L204.078 200.945C202.734 200.5 201.852 199.641 201.375 198.586C200.898 199.68 200.023 200.641 198.641 201.117C197.258 200.633 196.383 199.664 195.922 198.555C195.43 199.602 194.562 200.477 193.25 200.93L192.391 199.664C194.219 199.07 195.062 197.648 195.062 196.383V195.555H196.781V196.383ZM205.094 201.758V203.164H199.5V204.727H203.516V209.367H201.766V206.102H193.609V204.727H197.781V203.164H192.219V201.758H205.094Z" fill="white"/>
</svg>
